<svg width="66" height="53" viewBox="0 0 66 53" fill="none" xmlns="http://www.w3.org/2000/svg">
<g clip-path="url(#clip0_326_3984)">
<path d="M28.3615 0.791696L24.9573 4.18262L61.4503 40.533L64.8545 37.1421L28.3615 0.791696Z" fill="#858585"/>
<path d="M41.8038 13.7028L37.9412 17.5503L48.5572 28.1248L52.4198 24.2773L41.8038 13.7028Z" fill="#2C3E50"/>
<path d="M61.4308 19.4101L43.6519 37.1196L46.5488 40.0053L64.3278 22.2958L61.4308 19.4101Z" fill="#383838"/>
<path d="M61.4399 19.4053L43.6609 37.1147L45.1094 38.5576L62.8883 20.8481L61.4399 19.4053Z" fill="#1F1F1F"/>
<path d="M63.1674 23.4564L47.7231 38.8403L50.2412 41.3485L65.6855 25.9646L63.1674 23.4564Z" fill="#383838"/>
<path d="M63.1613 23.4593L47.717 38.8433L49.0372 40.1582L64.4815 24.7743L63.1613 23.4593Z" fill="#1F1F1F"/>
<path d="M64.0185 27.6188L51.8989 39.6909L53.873 41.6573L65.9925 29.5851L64.0185 27.6188Z" fill="#383838"/>
<path d="M64.0243 27.6212L51.9048 39.6934L52.8949 40.6796L65.0144 28.6074L64.0243 27.6212Z" fill="#1F1F1F"/>
<path d="M62.738 32.8282L57.0969 38.4473L58.9304 40.2736L64.5715 34.6545L62.738 32.8282Z" fill="#2B2B2B"/>
<path d="M62.3178 35.6346L62.9574 36.2717L64.3144 34.92L63.6748 34.2829C63.5872 34.1947 63.4829 34.1246 63.3679 34.0768C63.2529 34.029 63.1295 34.0044 63.0049 34.0044C62.8803 34.0044 62.757 34.029 62.642 34.0768C62.527 34.1246 62.4227 34.1947 62.3351 34.2829C62.2427 34.3693 62.1688 34.4734 62.1177 34.5889C62.0667 34.7044 62.0395 34.8289 62.0379 34.9551C62.0363 35.0813 62.0603 35.2065 62.1084 35.3233C62.1564 35.44 62.2277 35.5459 62.3178 35.6346Z" fill="#0F0F0F"/>
<path d="M58.5149 39.4231L59.1459 40.0602L60.5029 38.743L59.8633 38.1145C59.7757 38.0262 59.6713 37.9562 59.5564 37.9084C59.4414 37.8606 59.318 37.8359 59.1934 37.8359C59.0688 37.8359 58.9455 37.8606 58.8305 37.9084C58.7155 37.9562 58.6112 38.0262 58.5236 38.1145C58.3513 38.2885 58.2541 38.5227 58.2525 38.7671C58.2508 39.0114 58.345 39.2468 58.5149 39.4231Z" fill="#0F0F0F"/>
<path d="M60.4338 37.5116L61.0734 38.1487L62.4304 36.797L61.7908 36.1599C61.7031 36.0716 61.5988 36.0016 61.4839 35.9538C61.3689 35.906 61.2455 35.8813 61.1209 35.8813C60.9963 35.8813 60.873 35.906 60.758 35.9538C60.643 36.0016 60.5387 36.0716 60.4511 36.1599C60.3587 36.2463 60.2848 36.3503 60.2337 36.4658C60.1826 36.5813 60.1555 36.7059 60.1539 36.8321C60.1523 36.9583 60.1762 37.0835 60.2243 37.2002C60.2724 37.317 60.3436 37.4229 60.4338 37.5116Z" fill="#0F0F0F"/>
<path d="M43.6196 1.6577L25.8406 19.3672L28.7375 22.2528L46.5165 4.54333L43.6196 1.6577Z" fill="#383838"/>
<path d="M45.0651 3.09911L27.2861 20.8086L28.7346 22.2514L46.5136 4.54192L45.0651 3.09911Z" fill="#1F1F1F"/>
<path d="M39.9333 0.307955L24.489 15.6919L27.007 18.2001L42.4513 2.81614L39.9333 0.307955Z" fill="#383838"/>
<path d="M41.1311 1.50474L25.6868 16.8887L27.0069 18.2036L42.4512 2.81971L41.1311 1.50474Z" fill="#1F1F1F"/>
<path d="M36.2926 -0.000383621L24.1731 12.0718L26.1472 14.0381L38.2667 1.96598L36.2926 -0.000383621Z" fill="#383838"/>
<path d="M37.2858 0.983505L25.1663 13.0557L26.1564 14.0419L38.2759 1.96973L37.2858 0.983505Z" fill="#1F1F1F"/>
<path d="M31.2009 1.42684L25.5598 7.0459L27.3933 8.87225L33.0344 3.25318L31.2009 1.42684Z" fill="#2B2B2B"/>
<path d="M30.2514 3.66791L29.6118 3.03081L30.9429 1.72217L31.5825 2.35927C31.7572 2.53775 31.855 2.77719 31.855 3.02651C31.855 3.27582 31.7572 3.51526 31.5825 3.69374C31.4004 3.86182 31.1599 3.95304 30.9117 3.94822C30.6635 3.9434 30.4268 3.84293 30.2514 3.66791Z" fill="#0F0F0F"/>
<path d="M26.4138 7.45608L25.7742 6.81897L27.1312 5.46729L27.7708 6.10439C27.8594 6.19166 27.9297 6.29557 27.9777 6.4101C28.0257 6.52463 28.0504 6.64751 28.0504 6.77162C28.0504 6.89573 28.0257 7.01861 27.9777 7.13314C27.9297 7.24767 27.8594 7.35158 27.7708 7.43886C27.684 7.53086 27.5796 7.60449 27.4636 7.65535C27.3477 7.70621 27.2226 7.73326 27.0959 7.73486C26.9693 7.73647 26.8436 7.71261 26.7263 7.66471C26.6091 7.61681 26.5028 7.54585 26.4138 7.45608Z" fill="#0F0F0F"/>
<path d="M28.3413 5.54446L27.7017 4.90735L29.0587 3.55566L29.6983 4.19277C29.873 4.37125 29.9708 4.61069 29.9708 4.86C29.9708 5.10931 29.873 5.34875 29.6983 5.52724C29.6103 5.61715 29.5054 5.68891 29.3896 5.73844C29.2738 5.78797 29.1494 5.81428 29.0233 5.81588C28.8973 5.81748 28.7722 5.79433 28.6552 5.74776C28.5382 5.70119 28.4315 5.6321 28.3413 5.54446Z" fill="#0F0F0F"/>
<path d="M4.19036 12.1306L0.786133 15.5215L37.2792 51.8719L40.6834 48.481L4.19036 12.1306Z" fill="#858585"/>
<path d="M17.6302 25.0358L13.7676 28.8833L24.3836 39.4579L28.2462 35.6103L17.6302 25.0358Z" fill="#2C3E50"/>
<path d="M37.2572 30.7431L19.4783 48.4526L22.3752 51.3383L40.1542 33.6288L37.2572 30.7431Z" fill="#383838"/>
<path d="M37.2602 30.7446L19.4812 48.4541L20.9297 49.8969L38.7087 32.1874L37.2602 30.7446Z" fill="#1F1F1F"/>
<path d="M38.9963 34.7957L23.552 50.1797L26.07 52.6879L41.5143 37.3039L38.9963 34.7957Z" fill="#383838"/>
<path d="M38.9939 34.7982L23.5496 50.1821L24.8697 51.4971L40.314 36.1132L38.9939 34.7982Z" fill="#1F1F1F"/>
<path d="M39.8476 38.9576L27.728 51.0298L29.7021 52.9962L41.8216 40.924L39.8476 38.9576Z" fill="#383838"/>
<path d="M39.8532 38.9601L27.7336 51.0322L28.7237 52.0185L40.8433 39.9463L39.8532 38.9601Z" fill="#1F1F1F"/>
<path d="M38.5645 44.1817L32.9233 49.8008L34.7569 51.6271L40.398 46.0081L38.5645 44.1817Z" fill="#2B2B2B"/>
<path d="M38.1427 46.9737L38.7823 47.6108L40.1393 46.2591L39.4997 45.6306C39.4121 45.5424 39.3077 45.4723 39.1928 45.4245C39.0778 45.3767 38.9544 45.3521 38.8298 45.3521C38.7052 45.3521 38.5819 45.3767 38.4669 45.4245C38.3519 45.4723 38.2476 45.5424 38.16 45.6306C38.0689 45.7169 37.9961 45.8204 37.9459 45.9351C37.8956 46.0498 37.8689 46.1734 37.8673 46.2985C37.8657 46.4237 37.8892 46.5479 37.9365 46.6638C37.9838 46.7798 38.0539 46.8851 38.1427 46.9737Z" fill="#0F0F0F"/>
<path d="M34.3397 50.7959L34.9793 51.4244L36.3017 50.0469L35.6707 49.4184C35.5824 49.3299 35.4773 49.2597 35.3616 49.2118C35.2459 49.1638 35.1219 49.1392 34.9966 49.1392C34.8713 49.1392 34.7472 49.1638 34.6315 49.2118C34.5158 49.2597 34.4107 49.3299 34.3224 49.4184C34.2293 49.5081 34.1556 49.6158 34.1058 49.7349C34.056 49.854 34.0312 49.9819 34.0328 50.1109C34.0344 50.2399 34.0625 50.3672 34.1152 50.485C34.168 50.6028 34.2444 50.7086 34.3397 50.7959Z" fill="#0F0F0F"/>
<path d="M36.3017 48.8504L36.9413 49.4875L38.2983 48.1359L37.6587 47.4988C37.5711 47.4105 37.4667 47.3405 37.3518 47.2926C37.2368 47.2448 37.1134 47.2202 36.9888 47.2202C36.8642 47.2202 36.7409 47.2448 36.6259 47.2926C36.5109 47.3405 36.4066 47.4105 36.319 47.4988C36.2266 47.5851 36.1527 47.6892 36.1016 47.8047C36.0506 47.9202 36.0234 48.0448 36.0218 48.1709C36.0202 48.2971 36.0441 48.4223 36.0922 48.5391C36.1403 48.6559 36.2116 48.7618 36.3017 48.8504Z" fill="#0F0F0F"/>
<path d="M19.4399 13.0054L1.66089 30.7148L4.55784 33.6005L22.3368 15.891L19.4399 13.0054Z" fill="#383838"/>
<path d="M20.894 14.438L3.11499 32.1475L4.56347 33.5903L22.3424 15.8808L20.894 14.438Z" fill="#1F1F1F"/>
<path d="M15.7536 11.6473L0.309326 27.0312L2.82735 29.5394L18.2716 14.1555L15.7536 11.6473Z" fill="#383838"/>
<path d="M16.9514 12.8524L1.50708 28.2363L2.82721 29.5513L18.2715 14.1674L16.9514 12.8524Z" fill="#1F1F1F"/>
<path d="M12.1217 11.3385L0.00219727 23.4106L1.97628 25.377L14.0958 13.3049L12.1217 11.3385Z" fill="#383838"/>
<path d="M13.1061 12.3224L0.986572 24.3945L1.97667 25.3808L14.0962 13.3086L13.1061 12.3224Z" fill="#1F1F1F"/>
<path d="M7.02978 12.7657L1.38867 18.3848L3.22219 20.2111L8.8633 14.5921L7.02978 12.7657Z" fill="#2B2B2B"/>
<path d="M6.05025 15.0064L5.41064 14.3693L6.76764 13.0176L7.40724 13.6547C7.49583 13.742 7.56616 13.8459 7.61416 13.9604C7.66216 14.0749 7.68687 14.1978 7.68687 14.3219C7.68687 14.446 7.66216 14.5689 7.61416 14.6834C7.56616 14.798 7.49583 14.9019 7.40724 14.9892C7.32052 15.0812 7.21606 15.1548 7.10011 15.2056C6.98416 15.2565 6.8591 15.2836 6.73242 15.2852C6.60573 15.2868 6.48003 15.2629 6.36281 15.215C6.2456 15.1671 6.13929 15.0961 6.05025 15.0064Z" fill="#0F0F0F"/>
<path d="M2.23862 18.7946L1.60767 18.1661L2.96466 16.8145L3.59562 17.4429C3.68447 17.531 3.75498 17.6356 3.8031 17.7508C3.85121 17.8661 3.87598 17.9897 3.87598 18.1145C3.87598 18.2393 3.85121 18.3629 3.8031 18.4781C3.75498 18.5934 3.68447 18.698 3.59562 18.786C3.50769 18.8764 3.40256 18.9484 3.28638 18.9978C3.17019 19.0473 3.04528 19.0732 2.91893 19.074C2.79259 19.0748 2.66736 19.0505 2.55055 19.0025C2.43374 18.9546 2.3277 18.8839 2.23862 18.7946Z" fill="#0F0F0F"/>
<path d="M4.16597 16.8833L3.52637 16.2462L4.88336 14.8945L5.52296 15.5316C5.61155 15.6189 5.68188 15.7228 5.72988 15.8373C5.77788 15.9519 5.8026 16.0748 5.8026 16.1989C5.8026 16.323 5.77788 16.4459 5.72988 16.5604C5.68188 16.6749 5.61155 16.7788 5.52296 16.8661C5.43624 16.9581 5.33178 17.0317 5.21583 17.0826C5.09988 17.1335 4.97482 17.1605 4.84814 17.1621C4.72146 17.1637 4.59575 17.1399 4.47854 17.092C4.36132 17.0441 4.25501 16.9731 4.16597 16.8833Z" fill="#0F0F0F"/>
</g>
<defs>
<clipPath id="clip0_326_3984">
<rect width="66" height="53" fill="white"/>
</clipPath>
</defs>
</svg>
