<svg width="445" height="284" viewBox="0 0 445 284" fill="none" xmlns="http://www.w3.org/2000/svg">
<g clip-path="url(#clip0_1241_2516)">
<path d="M411.8 252.9C401 261.3 387.5 260 373.7 259.3L39.0001 252.5C0.400063 230.5 -24.1999 144.6 50.5001 88.3999C65.3001 77.1999 66.2001 51.7999 80.7001 40.2999C107.2 19.2999 110.3 37.4999 165.6 11.2999C203.2 -6.50007 253.1 6.19993 279 28.8999C295.9 43.6999 327.7 21.4999 356.8 31.0999C373.5 36.5999 387.7 49.8999 393.3 66.6999C396.1 75.2999 396.9 84.3999 399.4 92.9999C406.3 116.9 434.1 134.2 441.2 158C449.8 187.2 441.9 229.6 411.8 252.9Z" fill="#DDE7FE"/>
<path d="M441 256C441 243.7 346 233.8 228.9 233.8C111.8 233.8 16.7998 243.7 16.7998 256C16.7998 268.3 111.8 278.2 228.9 278.2C346 278.2 441 268.2 441 256Z" fill="#BDD1F9"/>
<path d="M92.8999 85.3999C94.2999 87.7999 93.1999 91.0999 90.8999 92.5999C88.5999 94.0999 85.4999 93.7999 83.1999 92.4999C81.8999 91.7999 80.7999 90.7999 79.3999 90.4999C75.8999 89.7999 71.6999 93.9999 68.4999 91.5999C65.6999 89.3999 66.9999 87.4999 69.1999 85.7999C75.4999 80.7999 85.8999 87.4999 92.8999 85.3999Z" fill="white"/>
<path d="M224.7 28.3C223.5 29 222.1 29.2 220.7 29.4C219.7 29.6 218.6 29.7 217.6 29.9C215.3 30.3 212.8 30.6 210.6 30C209 29.5 207.6 28.6 205.9 28.3C204.2 28 202.5 28.3 200.8 28.2C200.3 28.2 199.8 28.1 199.4 28C198.4 27.6 197.9 26.8 198 25.9C198.2 25.1 199.1 24.4 200.1 24.3C201.5 24.2 203.1 24.9 204.1 24.1C204.4 23.8 204.6 23.4 204.8 23.1C205.3 22.4 206.2 22 207.1 21.7C210 20.8 212.3 21.4 215.2 21.8C217.1 22 218.9 21.7 220.8 21.5C223.2 21.3 225.7 21.6 226.6 23.7C227.2 25.3 226.5 27.3 224.7 28.3Z" fill="white"/>
<path d="M378.4 102.8C377.4 103.5 376.2 103.7 375 103.9C374.1 104.1 373.3 104.2 372.4 104.4C370.5 104.8 368.4 105.1 366.6 104.5C365.3 104 364.1 103.1 362.7 102.8C361.3 102.5 359.9 102.8 358.4 102.7C358 102.7 357.6 102.6 357.2 102.5C356.4 102.1 355.9 101.3 356.1 100.4C356.2 99.6 357 98.9 357.9 98.8C359.1 98.7 360.4 99.4 361.2 98.6C361.5 98.3 361.6 97.9 361.8 97.6C362.2 96.9 362.9 96.5 363.7 96.2C366.1 95.3 368 95.9 370.4 96.3C372 96.5 373.5 96.2 375.1 96C377.1 95.8 379.2 96.1 379.9 98.2C380.5 99.9 379.9 101.9 378.4 102.8Z" fill="white"/>
<path d="M90.9999 65.5C89.0999 65 86.6999 63.8 86.8999 61.8C86.9999 60 89.1999 59.1 90.9999 59.1C92.7999 59.1 94.5999 59.7 96.2999 59.3C98.5999 58.8 100.1 56.6 101.5 54.8C103 52.8 104.6 50.9 106.8 49.6C109 48.4 111.7 48 113.9 49.1C115.6 50 116.7 51.7 118.5 52.4C120.9 53.4 123.5 52.2 126 51.5C128.5 50.9 131.8 51.3 132.6 53.7C133.2 55.8 131.7 58.4 133.2 59.9C140.7 68 126.1 65.3 120.8 65.6C110.9 66.5 100.8 67.9 90.9999 65.5Z" fill="white"/>
<path d="M85.4 239.9C85.5 239.9 85.5 239.9 85.4 239.9C85.7 239.9 85.9 239.7 85.8 239.4C78.3 182.6 69.6 142 61.4 125C61.2 124.6 61.1 124.4 61 124.2C60.9 124 60.7 123.9 60.5 124C60.3 124.1 60.2 124.3 60.3 124.5C60.4 124.7 60.5 124.9 60.7 125.4C68.8 142.3 77.5 182.9 85.1 239.6C85.1 239.8 85.3 239.9 85.4 239.9Z" fill="#A6C8FF"/>
<path d="M54.3998 121C55.3998 122.9 61.1998 127.1 61.7998 126.8C62.3998 126.5 62.3998 119.4 61.3998 117.4C60.3998 115.5 58.0998 114.7 56.0998 115.7C54.1998 116.7 53.3998 119.1 54.3998 121Z" fill="#A6C8FF"/>
<path d="M65.8001 128.2C64.8001 130.2 65.0001 137.5 65.6001 137.8C66.2001 138.1 72.0001 133.7 73.0001 131.7C74.0001 129.7 73.1001 127.3 71.1001 126.4C69.2001 125.4 66.8001 126.2 65.8001 128.2Z" fill="#A6C8FF"/>
<path d="M56.2002 139.4C58.4002 139.9 65.5002 138.1 65.6002 137.4C65.7002 136.8 60.1002 132.1 58.0002 131.6C55.8002 131.1 53.7002 132.5 53.2002 134.6C52.7002 136.8 54.1002 138.9 56.2002 139.4Z" fill="#A6C8FF"/>
<path d="M78.6999 167.1C76.6999 170.2 75.6999 182.5 76.5999 183.1C77.4999 183.7 88.0999 177.4 90.0999 174.2C92.0999 171.1 91.0999 166.9 87.9999 165C84.7999 163 80.5999 164 78.6999 167.1Z" fill="#A6C8FF"/>
<path d="M60.6998 184.1C64.1998 185.3 76.3998 183.5 76.6998 182.5C76.9998 181.5 68.4998 172.6 64.9998 171.4C61.4998 170.2 57.6998 172 56.4998 175.6C55.2998 179.1 57.1998 182.9 60.6998 184.1Z" fill="#A6C8FF"/>
<path d="M86.0002 182.2C82.8002 185.4 78.3002 199.8 79.2002 200.7C80.1002 201.6 94.5002 197 97.7002 193.7C100.9 190.5 100.9 185.3 97.7002 182.1C94.4002 179 89.2002 179 86.0002 182.2Z" fill="#A6C8FF"/>
<path d="M60.7001 204.2C65.1001 205.2 79.7001 201.5 80.0001 200.3C80.3001 199 68.8001 189.3 64.4001 188.3C60.0001 187.3 55.6001 190 54.5001 194.4C53.5001 198.8 56.2001 203.2 60.7001 204.2Z" fill="#A6C8FF"/>
<path d="M89.0998 200.8C85.8998 204 81.3998 218.4 82.2998 219.3C83.1998 220.2 97.5998 215.6 100.8 212.3C104 209.1 104 203.9 100.8 200.7C97.3998 197.6 92.1998 197.6 89.0998 200.8Z" fill="#A6C8FF"/>
<path d="M63.7001 222.8C68.1001 223.8 82.7001 220.1 83.0001 218.9C83.3001 217.6 71.8001 207.9 67.4001 206.9C63.0001 205.9 58.6001 208.6 57.5001 213C56.5001 217.4 59.3001 221.8 63.7001 222.8Z" fill="#A6C8FF"/>
<path d="M98.3999 225.1C94.1999 226.9 84.5999 238.4 85.0999 239.6C85.5999 240.8 100.6 242 104.8 240.2C109 238.4 110.9 233.6 109.2 229.5C107.4 225.3 102.6 223.3 98.3999 225.1Z" fill="#A6C8FF"/>
<path d="M66.0998 241.1C70.3998 242.7 85.2998 240.8 85.7998 239.6C86.1998 238.4 76.0998 227.3 71.7998 225.7C67.4998 224.1 62.7998 226.3 61.2998 230.6C59.6998 234.8 61.7998 239.5 66.0998 241.1Z" fill="#A6C8FF"/>
<path d="M69.8001 140.3C68.8001 142.3 69.0001 149.8 69.6001 150C70.2001 150.3 76.1001 145.8 77.1001 143.8C78.1001 141.8 77.2001 139.4 75.2001 138.4C73.2001 137.5 70.7001 138.3 69.8001 140.3Z" fill="#A6C8FF"/>
<path d="M60.3001 151.9C62.5001 152.4 69.7001 150.5 69.9001 149.9C70.0001 149.3 64.3001 144.5 62.2001 144C60.0001 143.5 57.8001 144.9 57.3001 147.1C56.8001 149.2 58.1001 151.4 60.3001 151.9Z" fill="#A6C8FF"/>
<path d="M74.7001 151.7C73.1001 154.4 72.5001 165 73.3001 165.5C74.1001 166 83.1001 160.3 84.7001 157.6C86.3001 154.9 85.4001 151.3 82.7001 149.7C79.8001 148.1 76.3001 149 74.7001 151.7Z" fill="#A6C8FF"/>
<path d="M59.8 168C62.9 168.7 73.2 166.1 73.4 165.2C73.6 164.3 65.5 157.5 62.4 156.8C59.3 156.1 56.2 158 55.5 161.1C54.7 164.2 56.7 167.3 59.8 168Z" fill="#A6C8FF"/>
<path d="M355.6 241.4C355.3 241.3 355.2 241.1 355.2 240.9C367.8 184.4 380.1 144.2 389.8 127.8C390 127.4 390.2 127.2 390.2 127C390.3 126.8 390.5 126.7 390.7 126.8C390.9 126.9 391 127.1 390.9 127.3C390.8 127.5 390.7 127.7 390.4 128.1C380.7 144.4 368.5 184.5 355.9 240.9C356 241.3 355.8 241.4 355.6 241.4Z" fill="#A6C8FF"/>
<path d="M397.2 124.4C396 126.2 389.8 129.9 389.3 129.6C388.8 129.3 389.4 122.1 390.5 120.2C391.7 118.4 394.1 117.8 395.9 119C397.8 120.1 398.4 122.6 397.2 124.4Z" fill="#A6C8FF"/>
<path d="M385.1 130.7C385.9 132.8 385.1 140.1 384.5 140.4C383.9 140.6 378.4 135.7 377.6 133.6C376.8 131.5 377.8 129.2 379.9 128.4C382 127.5 384.3 128.6 385.1 130.7Z" fill="#A6C8FF"/>
<path d="M393.7 142.8C391.5 143.1 384.5 140.6 384.4 140C384.3 139.4 390.4 135.1 392.6 134.8C394.8 134.5 396.8 136 397.2 138.2C397.5 140.4 395.9 142.5 393.7 142.8Z" fill="#A6C8FF"/>
<path d="M368.8 168.7C370.5 172 370.5 184.5 369.5 184.9C368.5 185.3 358.4 178.2 356.7 174.8C355 171.5 356.3 167.4 359.6 165.7C363 164.1 367.1 165.4 368.8 168.7Z" fill="#A6C8FF"/>
<path d="M385.4 187.4C381.8 188.3 369.7 185.5 369.4 184.4C369.1 183.4 378.5 175.1 382.1 174.2C385.7 173.3 389.4 175.5 390.3 179.1C391.3 182.8 389 186.5 385.4 187.4Z" fill="#A6C8FF"/>
<path d="M360.1 183.3C363 186.8 366.3 201.7 365.3 202.5C364.3 203.3 350.3 197.4 347.3 193.9C344.4 190.4 344.8 185.2 348.4 182.2C351.9 179.3 357.1 179.7 360.1 183.3Z" fill="#A6C8FF"/>
<path d="M383.7 207.6C379.2 208.2 364.8 203.3 364.6 202C364.4 200.7 376.8 191.9 381.4 191.2C385.9 190.6 390.1 193.7 390.8 198.2C391.4 202.7 388.2 206.9 383.7 207.6Z" fill="#A6C8FF"/>
<path d="M355.4 201.7C358.3 205.2 361.6 220.1 360.6 220.9C359.6 221.7 345.6 215.8 342.6 212.3C339.7 208.8 340.1 203.6 343.7 200.6C347.2 197.7 352.5 198.2 355.4 201.7Z" fill="#A6C8FF"/>
<path d="M379 226C374.5 226.6 360.1 221.7 359.9 220.4C359.7 219.1 372.1 210.3 376.7 209.6C381.2 209 385.4 212.1 386.1 216.6C386.7 221.2 383.5 225.4 379 226Z" fill="#A6C8FF"/>
<path d="M343.9 225.4C348 227.5 356.7 240 356.1 241.2C355.5 242.3 340.3 242.2 336.2 240.1C332.2 238 330.6 233 332.7 228.9C334.8 224.8 339.8 223.2 343.9 225.4Z" fill="#A6C8FF"/>
<path d="M375 244.3C370.6 245.5 355.7 242.4 355.3 241.1C355 239.8 366.2 229.5 370.6 228.3C375 227.1 379.6 229.7 380.8 234.1C382 238.5 379.4 243.1 375 244.3Z" fill="#A6C8FF"/>
<path d="M380.1 142.5C380.9 144.6 380.1 152.1 379.5 152.3C378.9 152.5 373.3 147.5 372.5 145.4C371.7 143.3 372.7 140.9 374.9 140.1C376.9 139.3 379.3 140.4 380.1 142.5Z" fill="#A6C8FF"/>
<path d="M388.6 155C386.3 155.3 379.3 152.8 379.2 152.2C379.1 151.6 385.3 147.2 387.5 146.9C389.8 146.6 391.8 148.1 392.1 150.4C392.4 152.6 390.8 154.7 388.6 155Z" fill="#A6C8FF"/>
<path d="M374.1 153.6C375.5 156.5 375.2 167.2 374.3 167.6C373.5 168 364.9 161.6 363.5 158.7C362.1 155.8 363.3 152.3 366.2 150.9C369.3 149.5 372.7 150.7 374.1 153.6Z" fill="#A6C8FF"/>
<path d="M387.7 171.2C384.5 171.6 374.4 168.1 374.3 167.2C374.2 166.3 382.9 160.1 386.1 159.7C389.3 159.2 392.2 161.5 392.7 164.7C393.1 167.8 390.9 170.8 387.7 171.2Z" fill="#A6C8FF"/>
<path d="M387.2 244.3C387.2 244.3 387.1 244.3 387.2 244.3C387 244.2 387 244.1 387 243.9C400.8 209.8 412.7 186 420.5 176.7C420.7 176.5 420.8 176.3 420.8 176.3C420.9 176.2 421 176.2 421.2 176.2C421.3 176.3 421.3 176.4 421.3 176.6C421.2 176.7 421.1 176.8 420.9 177.1C413.1 186.3 401.2 210.1 387.4 244.1C387.4 244.3 387.3 244.3 387.2 244.3Z" fill="#91B5F8"/>
<path d="M425.5 175.4C424.6 176.4 420.3 178.1 420 177.8C419.7 177.5 420.8 173.1 421.8 172.1C422.7 171.1 424.3 171 425.3 171.9C426.3 172.8 426.4 174.4 425.5 175.4Z" fill="#91B5F8"/>
<path d="M417.2 178.1C417.5 179.5 416.2 184 415.8 184.1C415.4 184.2 412.5 180.5 412.2 179.1C411.9 177.7 412.8 176.4 414.2 176.1C415.6 175.8 417 176.7 417.2 178.1Z" fill="#91B5F8"/>
<path d="M421.4 186.6C420 186.6 415.9 184.3 415.9 183.9C415.9 183.5 420.2 181.5 421.6 181.5C423 181.5 424.1 182.7 424.1 184.1C424 185.5 422.8 186.6 421.4 186.6Z" fill="#91B5F8"/>
<path d="M403 200.2C403.7 202.5 402.4 210.2 401.7 210.4C401.1 210.6 395.5 205 394.7 202.7C394 200.4 395.2 198 397.5 197.3C399.9 196.7 402.3 197.9 403 200.2Z" fill="#91B5F8"/>
<path d="M411.5 213.6C409.1 213.8 401.8 210.7 401.8 210.1C401.8 209.4 408.5 205.3 410.8 205.1C413.2 204.9 415.2 206.7 415.4 209C415.6 211.4 413.9 213.4 411.5 213.6Z" fill="#91B5F8"/>
<path d="M396.1 208.4C397.6 210.9 398.1 220.5 397.4 221C396.7 221.4 388.5 216.2 387 213.7C385.5 211.2 386.4 208 388.9 206.5C391.4 205 394.6 205.9 396.1 208.4Z" fill="#91B5F8"/>
<path d="M408.3 226.1C405.4 226 396.9 221.4 396.9 220.6C396.9 219.8 405.6 215.5 408.5 215.6C411.4 215.7 413.7 218.1 413.7 221C413.6 223.9 411.2 226.2 408.3 226.1Z" fill="#91B5F8"/>
<path d="M391.2 219.5C392.7 222 393.2 231.6 392.5 232.1C391.8 232.5 383.6 227.3 382.1 224.8C380.6 222.3 381.5 219.1 384 217.6C386.5 216.1 389.7 217 391.2 219.5Z" fill="#91B5F8"/>
<path d="M403.4 237.2C400.5 237.1 392 232.5 392 231.7C392 230.9 400.7 226.6 403.6 226.7C406.5 226.8 408.8 229.2 408.8 232.1C408.7 234.9 406.3 237.2 403.4 237.2Z" fill="#91B5F8"/>
<path d="M381.5 233.1C383.8 234.9 388 243.6 387.5 244.2C387 244.9 377.5 243.2 375.2 241.4C372.9 239.6 372.4 236.3 374.2 234C375.9 231.7 379.2 231.3 381.5 233.1Z" fill="#91B5F8"/>
<path d="M399 248.2C396.1 248.5 387.1 245 387 244.1C386.9 243.3 395 238 397.9 237.7C400.8 237.4 403.4 239.5 403.7 242.4C404 245.3 401.9 247.9 399 248.2Z" fill="#91B5F8"/>
<path d="M412.9 185C413.2 186.4 411.9 191 411.5 191.1C411.1 191.2 408.1 187.5 407.8 186.1C407.5 184.7 408.4 183.3 409.8 183C411.2 182.6 412.6 183.6 412.9 185Z" fill="#91B5F8"/>
<path d="M416.9 193.7C415.5 193.7 411.3 191.4 411.3 190.9C411.3 190.5 415.6 188.4 417.1 188.5C418.5 188.5 419.7 189.7 419.6 191.2C419.5 192.6 418.3 193.7 416.9 193.7Z" fill="#91B5F8"/>
<path d="M408 191.3C408.6 193.3 407.3 199.9 406.7 200.1C406.1 200.3 401.5 195.3 400.9 193.4C400.3 191.4 401.5 189.4 403.4 188.8C405.4 188.2 407.4 189.3 408 191.3Z" fill="#91B5F8"/>
<path d="M414.6 203.8C412.6 203.7 406.6 200.5 406.6 199.9C406.6 199.3 412.7 196.4 414.8 196.4C416.8 196.5 418.4 198.2 418.4 200.2C418.4 202.2 416.7 203.8 414.6 203.8Z" fill="#91B5F8"/>
<path d="M63.8998 242.1C63.8998 242.1 94.1998 216.8 42.4998 172.5C42.4998 172.5 19.8998 238.9 63.8998 242.1Z" fill="#7C9AF2"/>
<path d="M42.3999 172.4L66.9999 238.3C73.2999 229.8 82.6999 206.9 42.3999 172.4Z" fill="#91B5F8"/>
<path d="M66.3001 236.6C66.3001 236.6 66.2001 236.6 66.2001 236.5L42.6001 173.4C42.6001 173.3 42.6001 173.2 42.7001 173.2C42.8001 173.2 42.9001 173.2 42.9001 173.3L66.5001 236.4C66.5001 236.5 66.5001 236.6 66.3001 236.6C66.3001 236.7 66.4001 236.7 66.3001 236.6Z" fill="#060633"/>
<path d="M54.6999 205.5L37.9999 196.9C37.8999 196.9 37.8999 196.8 37.8999 196.7C37.8999 196.6 37.9999 196.6 38.0999 196.6L54.6999 205.2C54.7999 205.2 54.7999 205.3 54.7999 205.4C54.8999 205.5 54.7999 205.6 54.6999 205.5Z" fill="#060633"/>
<path d="M59.8002 219.1C59.7002 219.1 59.7002 219 59.7002 218.9L62.4002 200.7C62.4002 200.6 62.5002 200.5 62.6002 200.6C62.7002 200.6 62.8002 200.7 62.7002 200.8L60.0002 218.9C60.0002 219 59.9002 219.1 59.8002 219.1Z" fill="#060633"/>
<path d="M63.8998 242C63.8998 242 67.9998 212.1 15.8998 213.8C15.7998 213.8 37.3998 262.9 63.8998 242Z" fill="#91B5F8"/>
<path d="M15.7998 213.8L63.7998 242C63.8998 242 41.6998 265.8 15.7998 213.8Z" fill="#7C9AF2"/>
<path d="M61.1 240.1L50.1 233.7L43.3 222.4C43.3 222.3 43.2 222.3 43.1 222.4C43 222.4 43 222.5 43.1 222.6L49.7 233.5L19.2 215.8C19.1 215.8 19.1 215.8 19 215.8C19 215.9 19 215.9 19 216L40.6 228.6L27.7 231.3C27.6 231.3 27.6 231.4 27.6 231.4L27.7 231.5L40.8 228.7L60.8 240.3H60.9C60.9 240.3 60.9 240.3 61 240.3C61.2 240.2 61.1 240.1 61.1 240.1Z" fill="#060633"/>
<path d="M368.2 50.3001C359.7 39.3001 348.5 52.8001 348.5 52.8001C348.5 52.8001 337.3 39.4001 328.8 50.3001C320.3 61.3001 348.5 82.3001 348.5 82.3001C348.5 82.3001 376.7 61.3001 368.2 50.3001Z" fill="#FA7267"/>
<path d="M348.4 66.8C348.2 66.8 348.1 66.7 348.1 66.5L347.3 59.0999L345.7 66.5C345.7 66.6 345.5 66.8 345.4 66.8H342.5C342.4 66.8 342.3 66.6999 342.2 66.5999L341.4 65L340.5 66.5999C340.4 66.6999 340.3 66.8 340.2 66.8H338.4C338.3 66.8 338.1 66.6999 338.1 66.5999L336.3 61.4L334 66.5999C334 66.6999 333.8 66.8 333.7 66.8H325.2C325 66.8 324.9 66.7 324.9 66.5C324.9 66.3 325 66.1999 325.2 66.1999H333.5L336 60.4C336 60.3 336.2 60.2 336.3 60.2C336.4 60.2 336.6 60.3 336.6 60.4L338.6 66.1999H339.9L341 64.3C341.1 64.2 341.2 64.0999 341.3 64.0999C341.4 64.0999 341.5 64.2 341.6 64.3L342.6 66.1999H345.1L347 57C347 56.8 347.2 56.7 347.3 56.7C347.5 56.7 347.6 56.8 347.6 57L348.5 64.6999L349.3 61.7C349.3 61.6 349.5 61.5 349.6 61.5C349.7 61.5 349.9 61.5999 349.9 61.7999L350.8 66.1999H354.3L357.1 57.7999C357.1 57.6999 357.3 57.5999 357.4 57.5999C357.5 57.5999 357.7 57.7 357.7 57.9L359.2 66.1999H360.3L361.7 63.2C361.8 63.1 361.9 63 362 63C362.1 63 362.3 63.1 362.3 63.2L363.1 66.0999H367.9C368.1 66.0999 368.2 66.2 368.2 66.4C368.2 66.6 368.1 66.6999 367.9 66.6999H363C362.9 66.6999 362.7 66.6 362.7 66.5L362.1 64.1999L361 66.5999C361 66.6999 360.8 66.8 360.7 66.8H359.2C359 66.8 358.9 66.7 358.9 66.5L357.6 59.2L355.2 66.5C355.2 66.6 355 66.6999 354.9 66.6999H350.9C350.7 66.6999 350.6 66.6 350.6 66.4L349.9 63L349 66.4C348.7 66.7 348.6 66.8 348.4 66.8Z" fill="white"/>
<path d="M193.7 198.6H217.3C223.1 198.6 227.7 200.2 230.6 203.1C232.9 205.4 234.1 208.2 234.1 211.8C234.1 217.5 231.1 220.7 227.4 222.7C233.3 224.9 236.9 228.3 236.9 235.3C236.9 244.6 229.4 249.2 217.9 249.2H193.8V198.6H193.7ZM214.9 219.1C219.8 219.1 223 217.5 223 213.6C223 210.3 220.4 208.4 215.7 208.4H204.7V219.1H214.9ZM217.8 239.5C222.7 239.5 225.7 237.8 225.7 233.9C225.7 230.5 223.2 228.4 217.4 228.4H204.5V239.5H217.8Z" fill="#7C9AF2"/>
<path d="M246.1 198.6H258.1L271.4 220L284.7 198.6H296.7V249.3H285.6V216.2L271.3 237.8H271L257 216.4V249.3H246L246.1 198.6Z" fill="#7C9AF2"/>
<path d="M309.5 198.6H320.7V249.3H309.5V198.6Z" fill="#7C9AF2"/>
<path d="M286.7 57.5999L252.5 138C252.2 137.9 252 137.8 251.7 137.7C245.1 135.1 238 133.7 230.6 133.7C225.1 133.7 219.7 134.5 214.6 135.9C212.1 136.6 209.7 137.5 207.4 138.5L204.1 132.1L167.5 60.6999C186.6 51.4999 208 46.3999 230.6 46.3999C250.4 46.3999 269.3 50.2999 286.5 57.4999C286.6 57.5999 286.6 57.5999 286.7 57.5999Z" fill="#FFE6CA"/>
<path d="M107.6 114.1L183.3 158.1C176.5 167.6 172.5 179.2 172.5 191.7H85.1001C85.1001 163.2 93.3001 136.6 107.6 114.1Z" fill="#7C9AF2"/>
<path d="M207.4 138.5C207.1 138.6 206.9 138.7 206.6 138.9C197.2 143.2 189.2 149.8 183.2 158.1L107.5 114.1C122 91.2 142.8 72.6 167.4 60.8L204 132.2L207.4 138.5Z" fill="#91B5F8"/>
<path d="M376.1 191.7H288.7C288.7 179.4 284.9 168 278.3 158.6L353.9 114.6C368 137 376.1 163.4 376.1 191.7Z" fill="#DD463E"/>
<path d="M354 114.7L278.4 158.7C272 149.5 263.1 142.3 252.6 138L286.7 57.6001C314.6 69.3001 338.1 89.3001 354 114.7Z" fill="#FA7267"/>
<path d="M268.3 191.7H192.9C192.9 182.9 195.9 174.8 201 168.4C204.4 164.1 208.7 160.5 213.7 158C214.7 157.5 215.7 157.1 216.7 156.6C219 155.7 221.5 155 224.1 154.5C226.2 154.1 228.4 153.9 230.6 153.9C235.2 153.9 239.6 154.7 243.6 156.2C243.9 156.3 244.2 156.4 244.5 156.6C250.9 159.2 256.5 163.4 260.6 168.8C265.5 175.3 268.3 183.2 268.3 191.7Z" fill="#DD463E"/>
<path d="M255.6 191.7H205.5C205.5 185.2 208 179.3 212 174.9C213.7 173 215.8 171.4 218 170.1C219.4 169.3 220.9 168.6 222.4 168.1C224.8 167.3 227.4 166.8 230.1 166.8C230.2 166.8 230.4 166.8 230.5 166.8C233.3 166.8 236 167.3 238.5 168.1C238.8 168.2 239.2 168.3 239.5 168.5C243.4 170 246.8 172.4 249.5 175.5C253.3 179.8 255.6 185.5 255.6 191.7Z" fill="#DD463E"/>
<path d="M234.7 183.8C233.7 184.7 232.4 185.2 231 185.4C230.8 185.4 230.6 185.4 230.3 185.4C230.1 185.4 229.9 185.4 229.7 185.4C226.7 185.2 224.1 183.1 223.3 180.1C223.3 180.1 223.3 180 223.3 179.9L223.1 177L222.3 165.7L221.4 153L220 132.6L219.5 125.5L217 86.4C217 85.9 217.3 85.6 217.7 85.5L219.2 85.3C219.7 85.3 220.1 85.5 220.1 86L228.6 132.2L232.4 152.8L234.9 166.1L236.8 176.5L237.1 178L237.2 178.3C237.2 178.3 237.2 178.4 237.2 178.5C237.2 180.6 236.3 182.5 234.7 183.8Z" fill="#FA7267"/>
<path d="M139.7 106.5H140.5L143.1 109.8V106.5H143.9V111.3H143.2L140.6 107.9V111.3H139.8V106.5H139.7Z" fill="white"/>
<path d="M144.9 108.9C144.9 107.6 145.9 106.4 147.4 106.4C148.9 106.4 149.9 107.5 149.9 108.9C149.9 110.2 148.9 111.4 147.4 111.4C145.9 111.4 144.9 110.3 144.9 108.9ZM149 108.9C149 108 148.3 107.2 147.4 107.2C146.4 107.2 145.8 108 145.8 108.9C145.8 109.8 146.5 110.6 147.4 110.6C148.3 110.6 149 109.9 149 108.9Z" fill="white"/>
<path d="M151 106.5H153.1C154.2 106.5 154.9 107.1 154.9 108C154.9 108.8 154.4 109.3 153.7 109.5L155 111.3H154L152.8 109.7H151.8V111.4H151V106.5ZM153 108.9C153.6 108.9 154 108.6 154 108.1C154 107.6 153.6 107.3 153 107.3H151.8V108.9H153Z" fill="white"/>
<path d="M155.9 106.5H156.8L158.3 108.8L159.8 106.5H160.7V111.3H159.9V107.9L158.4 110.2L156.9 108V111.4H156.1L155.9 106.5Z" fill="white"/>
<path d="M163.6 106.5H164.4L166.5 111.3H165.6L165.1 110.2H162.8L162.3 111.3H161.4L163.6 106.5ZM164.8 109.4L164 107.5L163.2 109.4H164.8Z" fill="white"/>
<path d="M167.3 106.5H168.1V110.5H170.6V111.3H167.2V106.5H167.3Z" fill="white"/>
<path d="M213.9 61.7H217.5V62.5H214.8V63.7H217.2V64.5H214.8V65.8H217.6V66.5999H214V61.7H213.9Z" fill="white"/>
<path d="M219.9 64.0999L218.2 61.7H219.2L220.4 63.4L221.6 61.7H222.6L220.9 64L222.7 66.5H221.7L220.4 64.6999L219.1 66.5H218.1L219.9 64.0999Z" fill="white"/>
<path d="M223 64.1001C223 62.7001 224 61.6001 225.5 61.6001C226.4 61.6001 226.9 61.9001 227.4 62.3001L226.9 62.9001C226.5 62.5001 226.1 62.3001 225.6 62.3001C224.7 62.3001 224 63.1001 224 64.0001C224 64.9001 224.7 65.7001 225.6 65.7001C226.2 65.7001 226.6 65.5001 227 65.1001L227.5 65.6001C227 66.1001 226.4 66.5001 225.6 66.5001C224 66.6001 223 65.5001 223 64.1001Z" fill="white"/>
<path d="M228.2 61.7H231.8V62.5H229.1V63.7H231.5V64.5H229.1V65.8H231.9V66.5999H228.3V61.7H228.2Z" fill="white"/>
<path d="M232.5 65.8L233 65.1999C233.5 65.5999 233.9 65.8 234.5 65.8C235 65.8 235.3 65.5999 235.3 65.1999C235.3 64.8999 235.1 64.7 234.2 64.5C233.2 64.3 232.6 63.9999 232.6 63.0999C232.6 62.2999 233.3 61.7 234.2 61.7C234.9 61.7 235.4 61.8999 235.9 62.2999L235.4 62.9C235 62.6 234.5 62.4 234.1 62.4C233.6 62.4 233.3 62.7 233.3 63C233.3 63.4 233.5 63.5 234.4 63.7C235.4 63.9 235.9 64.2999 235.9 65.0999C235.9 65.9999 235.2 66.5 234.2 66.5C233.8 66.6 233.1 66.3 232.5 65.8Z" fill="white"/>
<path d="M236.8 65.8L237.3 65.1999C237.8 65.5999 238.2 65.8 238.8 65.8C239.3 65.8 239.6 65.5999 239.6 65.1999C239.6 64.8999 239.4 64.7 238.5 64.5C237.5 64.3 236.9 63.9999 236.9 63.0999C236.9 62.2999 237.6 61.7 238.5 61.7C239.2 61.7 239.7 61.8999 240.2 62.2999L239.7 62.9C239.3 62.6 238.8 62.4 238.4 62.4C237.9 62.4 237.6 62.7 237.6 63C237.6 63.4 237.8 63.5 238.7 63.7C239.7 63.9 240.2 64.2999 240.2 65.0999C240.2 65.9999 239.5 66.5 238.5 66.5C238.1 66.6 237.4 66.3 236.8 65.8Z" fill="white"/>
<path d="M212.6 70H213.5L214.7 73.6L215.9 70H216.6L217.8 73.6L219 70H219.9L218.2 74.8H217.5L216.3 71.4L215.1 74.8H214.4L212.6 70Z" fill="white"/>
<path d="M220.7 70H224.3V70.8H221.6V72H224V72.8H221.6V74H224.4V74.8H220.8V70H220.7Z" fill="white"/>
<path d="M225.3 70H226.1V74.8H225.3V70Z" fill="white"/>
<path d="M227.2 72.3999C227.2 71.0999 228.2 69.8999 229.7 69.8999C230.5 69.8999 231 70.0999 231.5 70.4999L231 71.0999C230.6 70.7999 230.3 70.5999 229.7 70.5999C228.8 70.5999 228.1 71.3999 228.1 72.2999C228.1 73.2999 228.7 73.9999 229.7 73.9999C230.2 73.9999 230.6 73.8999 230.9 73.5999V72.6999H229.7V71.9999H231.7V73.9999C231.2 74.3999 230.5 74.6999 229.7 74.6999C228.2 74.7999 227.2 73.7999 227.2 72.3999Z" fill="white"/>
<path d="M232.8 70H233.6V72H235.9V70H236.7V74.8H235.9V72.8H233.6V74.8H232.8V70Z" fill="white"/>
<path d="M239.2 70.7H237.7V70H241.6V70.8H240V74.8H239.2V70.7Z" fill="white"/>
<path d="M292.2 108.9C292.2 107.6 293.2 106.4 294.7 106.4C296.2 106.4 297.2 107.5 297.2 108.9C297.2 110.2 296.2 111.4 294.7 111.4C293.2 111.4 292.2 110.3 292.2 108.9ZM296.3 108.9C296.3 108 295.6 107.2 294.7 107.2C293.7 107.2 293.1 108 293.1 108.9C293.1 109.8 293.8 110.6 294.7 110.6C295.6 110.6 296.3 109.9 296.3 108.9Z" fill="white"/>
<path d="M298.2 106.5H300.4C301 106.5 301.4 106.6 301.6 106.9C301.8 107.1 301.9 107.4 301.9 107.7C301.9 108.3 301.6 108.6 301.2 108.8C301.8 109 302.2 109.3 302.2 110C302.2 110.9 301.5 111.3 300.4 111.3H298.2V106.5ZM300.2 108.5C300.7 108.5 301.1 108.3 301.1 107.8C301.1 107.4 300.8 107.2 300.3 107.2H299V108.5H300.2ZM300.4 110.6C301 110.6 301.3 110.4 301.3 109.9C301.3 109.5 301 109.3 300.3 109.3H299V110.6H300.4Z" fill="white"/>
<path d="M303.1 106.5H306.7V107.3H304V108.5H306.4V109.3H304V110.6H306.8V111.4H303.2V106.5H303.1Z" fill="white"/>
<path d="M307.4 110.6L307.9 110C308.4 110.4 308.8 110.6 309.4 110.6C309.9 110.6 310.2 110.4 310.2 110C310.2 109.7 310 109.5 309.1 109.3C308.1 109.1 307.5 108.8 307.5 107.9C307.5 107.1 308.2 106.5 309.1 106.5C309.8 106.5 310.3 106.7 310.9 107.1L310.4 107.7C310 107.4 309.5 107.2 309.1 107.2C308.6 107.2 308.3 107.5 308.3 107.8C308.3 108.2 308.5 108.3 309.4 108.5C310.4 108.7 310.9 109.1 310.9 109.9C310.9 110.8 310.2 111.3 309.2 111.3C308.7 111.4 308 111.1 307.4 110.6Z" fill="white"/>
<path d="M312.2 106.5H313V111.3H312.2V106.5Z" fill="white"/>
<path d="M315.5 107.3H314V106.5H317.9V107.3H316.4V111.3H315.6V107.3H315.5Z" fill="white"/>
<path d="M320.1 109.4L318.2 106.5H319.2L320.5 108.6L321.9 106.5H322.9L321 109.4V111.3H320.1V109.4Z" fill="white"/>
<path d="M309.8 159.9H313.4V160.7H310.7V161.9H313.1V162.7H310.7V164H313.5V164.8H309.9V159.9H309.8Z" fill="white"/>
<path d="M315.8 162.2L314.1 159.8H315.1L316.3 161.5L317.5 159.8H318.5L316.8 162.1L318.6 164.6H317.6L316.3 162.8L315 164.6H314L315.8 162.2Z" fill="white"/>
<path d="M320.6 160.7H319.1V159.9H323V160.7H321.5V164.7H320.7V160.7H320.6Z" fill="white"/>
<path d="M323.8 159.9H325.9C327 159.9 327.7 160.5 327.7 161.4C327.7 162.2 327.2 162.7 326.5 162.9L327.8 164.7H326.8L325.6 163H324.6V164.7H323.8V159.9V159.9ZM325.9 162.3C326.5 162.3 326.9 162 326.9 161.5C326.9 161 326.5 160.7 325.9 160.7H324.7V162.3H325.9V162.3Z" fill="white"/>
<path d="M328.8 159.9H332.4V160.7H329.7V161.9H332.1V162.7H329.7V164H332.5V164.8H328.9V159.9H328.8Z" fill="white"/>
<path d="M333.4 159.9H334.3L335.8 162.2L337.3 159.9H338.2V164.7H337.4V161.3L335.9 163.6L334.4 161.4V164.8H333.6L333.4 159.9Z" fill="white"/>
<path d="M339.3 159.9H342.9V160.7H340.2V161.9H342.6V162.7H340.2V164H343V164.8H339.4V159.9H339.3Z" fill="white"/>
<path d="M343.9 159.9H344.7V163.9H347.2V164.7H343.8V159.9H343.9Z" fill="white"/>
<path d="M348.7 162.8L346.8 159.9H347.8L349.1 162L350.5 159.9H351.5L349.6 162.8V164.7H348.7V162.8Z" fill="white"/>
<path d="M315.1 170.5C315.1 169.2 316.1 168 317.6 168C319.1 168 320.1 169.1 320.1 170.5C320.1 171.8 319.1 173 317.6 173C316.2 173 315.1 171.9 315.1 170.5ZM319.3 170.5C319.3 169.6 318.6 168.8 317.7 168.8C316.7 168.8 316.1 169.6 316.1 170.5C316.1 171.4 316.8 172.2 317.7 172.2C318.6 172.2 319.3 171.5 319.3 170.5Z" fill="white"/>
<path d="M321.2 168.1H323.4C324 168.1 324.4 168.2 324.6 168.5C324.8 168.7 324.9 169 324.9 169.3C324.9 169.9 324.6 170.2 324.2 170.4C324.8 170.6 325.2 170.9 325.2 171.6C325.2 172.5 324.5 172.9 323.4 172.9H321.2V168.1ZM323.2 170.1C323.7 170.1 324.1 169.9 324.1 169.4C324.1 169 323.8 168.8 323.3 168.8H322V170.1H323.2V170.1ZM323.4 172.1C324 172.1 324.3 171.9 324.3 171.4C324.3 171 324 170.8 323.3 170.8H322V172.1H323.4V172.1Z" fill="white"/>
<path d="M326.1 168.1H329.7V168.9H327V170.1H329.4V170.9H327V172.2H329.8V173H326.2V168.1H326.1Z" fill="white"/>
<path d="M330.4 172.2L330.9 171.6C331.4 172 331.8 172.2 332.4 172.2C332.9 172.2 333.2 172 333.2 171.6C333.2 171.3 333 171.1 332.1 170.9C331.1 170.7 330.5 170.4 330.5 169.5C330.5 168.7 331.2 168.1 332.1 168.1C332.8 168.1 333.3 168.3 333.8 168.7L333.3 169.3C332.9 169 332.4 168.8 332 168.8C331.5 168.8 331.2 169.1 331.2 169.4C331.2 169.8 331.4 169.9 332.3 170.1C333.3 170.3 333.8 170.7 333.8 171.5C333.8 172.4 333.1 172.9 332.1 172.9C331.7 173 331 172.7 330.4 172.2Z" fill="white"/>
<path d="M335.2 168.1H336V172.9H335.2V168.1Z" fill="white"/>
<path d="M338.5 168.9H337V168.1H340.9V168.9H339.4V172.9H338.6V168.9H338.5Z" fill="white"/>
<path d="M343.1 171L341.2 168.1H342.2L343.5 170.2L344.9 168.1H345.9L344 171V172.9H343.1V171Z" fill="white"/>
<path d="M169.8 153.9C169.8 153.9 172.2 165.4 179.5 175.8L177.4 177.5C177.4 177.5 165.3 168.1 163.1 157.1L169.8 153.9Z" fill="#FB9391"/>
<path d="M149.9 121.5C148.4 123.1 148.8 125.6 148.1 127.5C147.5 129.1 146.1 130.3 144.5 130.9C142.9 131.5 141.2 131.6 139.5 131.4C137.5 131.2 135.4 130.7 133.7 131.8C132.4 132.6 131.8 134.3 131.8 135.8C131.8 137.3 132.1 138.9 132.3 140.4C132.4 140.9 132.4 141.5 132.2 142C131.8 142.9 130.7 143.2 129.9 143.7C129 144.3 128.5 145.4 128.3 146.5C127.9 148.7 128.8 151 130.6 152.3C132.5 153.8 135.2 154 137.5 153.2C140.1 152.3 142.3 150.2 145 149.5C146.7 149.1 148.4 149.3 150.1 149.5C154.1 150.1 158 151 162 151.4C165 151.7 168.3 151.5 170.4 149.5C171.7 148.3 172.4 146.5 172.8 144.8C173.4 142.5 173.4 139.7 171.8 137.9C171.2 137.3 170.5 136.8 170.1 136.1C169.2 134.6 170.1 132.8 170.4 131.1C170.7 129.8 172.2 129.5 172.1 127.2C172 126.3 171.3 124.5 170.8 123.8C170.2 123.1 167.9 120.8 163.5 119.9C161.4 119.5 155.7 119.9 154.2 120.1C152.6 120.3 151 120.3 149.9 121.5Z" fill="#060633"/>
<path d="M154.9 140.7C154.9 140.7 145.4 139.7 141.5 143.2C137.7 146.7 121.6 165.1 118.9 166.6L120 169.2C120 169.2 136.5 161 142.7 154.6C142.7 154.6 142.7 162.3 141.2 164.8C140 166.8 135.8 171.1 133.6 179.9C133 182.2 147.1 188.6 148.2 189C149.3 189.4 168.6 197.3 168.1 183C167.9 176.7 164.5 166.6 164.6 163.8C164.7 161 170 153.9 170 153.9C170 153.9 167 144 163 142.5C159.1 141 154.9 140.7 154.9 140.7Z" fill="#FB9391"/>
<path d="M166.9 157L163.5 142.9L162.7 142.5C162.7 142.5 164.5 151.4 165.2 154.8C162.9 154.2 158 156.2 156 159.4L154.2 159.3C153.6 155.4 148.7 151.4 146.5 150.8L148.5 140.7H148C148 140.7 146.1 148.3 145.4 150.7C142 151.4 138.6 159.2 143.5 161.9C146.9 163.8 150.3 162.8 152.4 161.9L156.7 162.7V162.6C157.9 163.8 160 165.1 163.4 164.4C165.6 164 167.1 159.5 166.7 156.8L166.9 157Z" fill="white"/>
<path d="M152 172.8C152.1 172.6 152.3 172.5 152.5 172.6C152.7 172.7 152.8 172.9 152.7 173.1C152.6 173.3 152.4 173.4 152.2 173.3C152 173.3 151.9 173 152 172.8Z" fill="#060633"/>
<path d="M120.1 169C120.1 169 118.8 171.7 118.1 172.5C117.4 173.4 117.4 174.7 116.8 174.5C116.2 174.3 116.8 172.2 116.8 172.2C116.8 172.2 114.7 173.1 114.1 173.5C113.5 173.9 112.3 174.3 112 173.9C111.7 173.5 114.7 171.9 114.7 171.9C114.7 171.9 112.1 173 111.7 172.7C111.3 172.4 114.5 170.5 114.5 170.5C114.5 170.5 111.7 171.8 111.5 171.7C111.2 171.6 111.3 171.2 112.1 170.5C113 169.8 114 169.3 114 169.3C114 169.3 112 170.1 111.7 170.1C111.4 170.1 111 169.9 112.4 169C113.8 168.1 117.1 166.6 119 166.5L120.1 169Z" fill="#FB9391"/>
<path d="M177.4 177.4C177.4 177.4 177.4 180.4 177.7 181.5C178 182.6 177.4 183.8 178 183.9C178.6 184 179 181.9 179 181.9C179 181.9 180.5 183.6 180.8 184.2C181.2 184.8 182.1 185.7 182.6 185.5C183.1 185.3 181.1 182.5 181.1 182.5C181.1 182.5 183 184.6 183.5 184.5C184 184.4 182 181.3 182 181.3C182 181.3 183.9 183.7 184.2 183.7C184.5 183.8 184.6 183.4 184.1 182.4C183.6 181.4 182.9 180.5 182.9 180.5C182.9 180.5 184.4 182.1 184.6 182.2C184.8 182.3 185.3 182.3 184.4 180.9C183.5 179.5 181.2 176.7 179.5 175.8L177.4 177.4Z" fill="#FB9391"/>
<path d="M167.8 123.1C164.8 121.5 161.1 122.4 159.2 125.2C158.6 126.1 158.2 127.1 158 128.1C157.5 130.6 157.2 132.6 157.3 134.2C157.4 135.9 156.9 137.5 155.8 138.8L153.3 141.9C155.6 145.6 159.3 143.3 159.3 143.3L161.5 139.7C165.3 141.5 169 134.6 170.2 132.7C170.2 132.6 170.3 132.6 170.3 132.5C172.4 129.3 171.3 125 167.8 123.1Z" fill="#FB9391"/>
<path d="M163.8 128.7C162.7 129 161.6 129.4 160.5 129.8C159.3 130.2 158.1 130.7 157.3 131.7C156.8 130.4 156.9 129 157 127.7C157.1 127.1 157.2 126.4 157.4 125.9C157.8 125.1 158.4 124.4 159.1 123.8C159.9 123 160.8 122.2 161.9 121.8C162.6 121.6 163.4 121.6 164.2 121.7C166 121.9 167.7 122.6 169.1 123.7C170.5 124.8 171.5 126.5 171.6 128.3C171.8 130.6 170.6 132.7 169.5 134.8C169.8 133.9 169.7 132.9 169.6 131.9C169.5 131.3 169.4 130.6 169.2 130C168.7 129 168.4 129 167.6 127.2C166.4 128 165.2 128.3 163.8 128.7Z" fill="#060633"/>
<path d="M158.8 130.8C158.8 130.6 158.8 130.3 158.6 130.1C158.3 129.7 157.7 129.1 156.9 129.3C155.8 129.6 156 132.3 158 132.2C158 132.2 158.7 132.1 158.8 130.8Z" fill="#FB9391"/>
<path d="M167.4 134.7C167.6 134.4 167.5 134.1 167.3 133.9C167 133.7 166.7 133.8 166.5 134C166.3 134.3 166.4 134.6 166.6 134.8C166.9 135 167.2 134.9 167.4 134.7Z" fill="#060633"/>
<path d="M162.4 132.3C162.6 132 162.5 131.7 162.3 131.5C162 131.3 161.7 131.4 161.5 131.6C161.3 131.9 161.4 132.2 161.6 132.4C161.9 132.6 162.2 132.6 162.4 132.3Z" fill="#060633"/>
<path d="M161.3 130.4C161.2 130.4 161.2 130.3 161.2 130.2C161.2 130.1 161.2 129.9 161.4 129.9C161.4 129.9 162.4 129.7 163.3 130.2C163.4 130.3 163.5 130.4 163.4 130.5C163.3 130.6 163.2 130.6 163.1 130.6C162.3 130.1 161.5 130.3 161.5 130.3C161.4 130.4 161.4 130.4 161.3 130.4Z" fill="#060633"/>
<path d="M167.2 132.3C167.2 132.2 167.2 132.2 167.2 132.1C167.2 132 167.4 131.9 167.5 132C167.5 132 168.4 132.3 168.9 133.3C169 133.4 168.9 133.6 168.8 133.6C168.7 133.7 168.5 133.6 168.5 133.5C168.1 132.7 167.3 132.4 167.3 132.4C167.2 132.4 167.2 132.3 167.2 132.3Z" fill="#060633"/>
<path d="M163.5 135.6C164.1 135.9 164.6 135.6 164.8 135.3V135.2C164.7 134.2 165.3 133.3 165.3 133.3C165.4 133.2 165.3 133.1 165.3 133C165.2 132.9 165.1 133 165 133C165 133 164.3 134 164.4 135.1C164.3 135.2 163.9 135.4 163.4 135.1C163.3 135 163.2 135.1 163.1 135.1C163 135.2 163.1 135.3 163.1 135.4C163.3 135.5 163.4 135.5 163.5 135.6Z" fill="#EA6868"/>
<path d="M164.2 137.8C164.2 137.8 164.1 136.7 163.7 136.5C163.4 136.4 163 136.6 163 136.6C163 136.6 163.1 136.2 162.7 136C162.4 135.8 160.8 136.2 160.8 136.2C160.8 136.2 161.4 137.3 162.5 137.7C163.7 138.1 164.2 137.8 164.2 137.8Z" fill="#EA6868"/>
<path d="M160.8 136.4C162.6 136.6 164.1 138 164.1 138H164.2V137.9C164.1 137.8 162.6 136.5 160.8 136.3C160.8 136.2 160.7 136.3 160.8 136.4C160.8 136.4 160.8 136.3 160.8 136.4Z" fill="#060633"/>
<path d="M159.7 248.3C158.9 250.9 154.5 253.5 154.3 248.5C154.1 243.5 152.6 191.2 151.5 191C150.4 190.8 145.1 240.1 145 248.6C145 255 139.4 250.4 139.6 248.8C139.8 247.2 131.3 204.3 131.7 191.9C131.8 188.5 132.3 185.1 133 182L169.2 181.1C171.3 197.4 160.9 244.2 159.7 248.3Z" fill="#FB9391"/>
<path d="M151.5 191.9C148.7 191.8 143.3 185.8 137.9 185.1C132.5 184.4 132.4 184.7 132.4 184.7C132.4 184.7 133.3 178.6 135.2 174.5C135.2 174.5 155.3 179.1 166 172.3C166 172.3 169 179.4 169 181.2C169 181.2 164.5 183.1 162.8 183.9C158.8 185.9 153 192 151.5 191.9Z" fill="white"/>
<path d="M145 248.3C144.5 253.6 152.4 255 152.3 256C152.2 257 139.4 256 139.4 256C138.7 254.7 139.5 248.5 139.5 248.5L145 248.3Z" fill="#FB9391"/>
<path d="M159.7 248.3C159.2 253.6 167.1 255 167 256C166.9 257 154.1 256 154.1 256C153.4 254.7 154.2 248.5 154.2 248.5L159.7 248.3Z" fill="#FB9391"/>
<path d="M183 256.1H121.3V260.5H183V256.1Z" fill="#FA7267"/>
<path d="M128 260.4H121.2V262.9H128V260.4Z" fill="#060633"/>
<path d="M183 260.4H176.2V262.9H183V260.4Z" fill="#060633"/>
<path d="M382.1 249C344.5 236.9 313.5 275.2 275 266.9C273.9 260.4 273.4 257.2 272.3 250.7C310.8 258.9 341.8 220.6 379.4 232.8C380.4 239.3 381 242.6 382.1 249Z" fill="#FFDEBD"/>
<path d="M282.7 265.4C282.4 265.4 282.3 265.3 282 265.3C281 261 280.5 258.8 279.6 254.5C279.9 254.5 280 254.6 280.3 254.6C281.3 258.9 281.7 261.1 282.7 265.4Z" fill="#17177A"/>
<path d="M305.7 263.8C305.4 263.9 305.3 263.9 305.1 264C304.1 259.7 303.6 257.5 302.7 253.2C303 253.1 303.1 253.1 303.3 253C304.2 257.3 304.7 259.5 305.7 263.8Z" fill="#17177A"/>
<path d="M284.1 258.7C283.8 258.7 283.7 258.7 283.4 258.6C283.1 257.1 282.9 256.4 282.6 254.9C282.9 254.9 283 254.9 283.3 255C283.6 256.5 283.8 257.3 284.1 258.7Z" fill="#17177A"/>
<path d="M287.5 260.7C287.2 260.7 287.1 260.7 286.8 260.7C286.3 258.5 286.1 257.4 285.6 255.2C285.9 255.2 286 255.2 286.3 255.2C286.7 257.4 287 258.5 287.5 260.7Z" fill="#17177A"/>
<path d="M290 259C289.7 259 289.6 259 289.3 259C289 257.5 288.8 256.8 288.5 255.3C288.8 255.3 288.9 255.3 289.2 255.3C289.5 256.7 289.7 257.5 290 259Z" fill="#17177A"/>
<path d="M295.7 258.5C295.4 258.5 295.3 258.5 295 258.6C294.7 257.1 294.5 256.4 294.2 254.9C294.5 254.9 294.6 254.9 294.9 254.8C295.2 256.3 295.4 257 295.7 258.5Z" fill="#17177A"/>
<path d="M298.9 259.8C298.6 259.8 298.5 259.9 298.2 259.9C297.7 257.7 297.5 256.6 297 254.4C297.3 254.4 297.4 254.3 297.7 254.3C298.2 256.5 298.4 257.6 298.9 259.8Z" fill="#17177A"/>
<path d="M301.3 257.5C301 257.6 300.9 257.6 300.7 257.6C300.4 256.1 300.2 255.4 299.9 253.9C300.2 253.8 300.3 253.8 300.5 253.8C300.8 255.2 301 256 301.3 257.5Z" fill="#17177A"/>
<path d="M293.6 262C293.3 262 293.2 262 292.9 262C292.3 259.2 292 257.8 291.3 255.1C291.6 255.1 291.7 255.1 292 255.1C292.7 257.9 293 259.2 293.6 262Z" fill="#17177A"/>
<path d="M327.8 255C327.6 255.1 327.4 255.2 327.2 255.3C326.2 251 325.7 248.8 324.8 244.5C325 244.4 325.2 244.3 325.4 244.2C326.4 248.5 326.9 250.7 327.8 255Z" fill="#17177A"/>
<path d="M307.6 255.7C307.3 255.8 307.2 255.8 307 255.9C306.7 254.4 306.5 253.7 306.2 252.2C306.5 252.1 306.6 252.1 306.8 252C307.1 253.4 307.3 254.2 307.6 255.7Z" fill="#17177A"/>
<path d="M310.7 256.5C310.4 256.6 310.3 256.6 310.1 256.7C309.6 254.5 309.4 253.4 308.9 251.2C309.2 251.1 309.3 251.1 309.5 251C310 253.2 310.2 254.3 310.7 256.5Z" fill="#17177A"/>
<path d="M313 253.7C312.7 253.8 312.6 253.8 312.4 253.9C312.1 252.4 311.9 251.7 311.6 250.2C311.9 250.1 312 250.1 312.2 250C312.5 251.5 312.7 252.2 313 253.7Z" fill="#17177A"/>
<path d="M318.3 251.5C318 251.6 317.9 251.7 317.7 251.8C317.4 250.3 317.2 249.6 316.9 248.1C317.2 248 317.3 247.9 317.5 247.8C317.8 249.2 318 250 318.3 251.5Z" fill="#17177A"/>
<path d="M321.4 252.1C321.2 252.2 321 252.3 320.8 252.4C320.3 250.2 320.1 249.1 319.6 246.9C319.8 246.8 320 246.7 320.2 246.6C320.6 248.8 320.9 249.9 321.4 252.1Z" fill="#17177A"/>
<path d="M323.6 249.1C323.4 249.2 323.2 249.3 323 249.4C322.7 247.9 322.5 247.2 322.2 245.7C322.4 245.6 322.6 245.5 322.8 245.4C323.1 246.9 323.3 247.6 323.6 249.1Z" fill="#17177A"/>
<path d="M316.4 255.8C316.1 255.9 316 256 315.8 256.1C315.2 253.3 314.9 251.9 314.2 249.2C314.5 249.1 314.6 249 314.8 248.9C315.5 251.7 315.8 253 316.4 255.8Z" fill="#17177A"/>
<path d="M349.9 246.3C349.6 246.4 349.5 246.4 349.3 246.5C348.3 242.2 347.8 240 346.9 235.7C347.2 235.6 347.3 235.6 347.5 235.5C348.5 239.8 349 241.9 349.9 246.3Z" fill="#17177A"/>
<path d="M329.6 246.4C329.4 246.5 329.2 246.6 329 246.7C328.7 245.2 328.5 244.5 328.2 243C328.4 242.9 328.6 242.8 328.8 242.7C329.1 244.2 329.2 244.9 329.6 246.4Z" fill="#17177A"/>
<path d="M332.6 247C332.4 247.1 332.2 247.2 332 247.3C331.5 245.1 331.3 244 330.8 241.8C331 241.7 331.2 241.6 331.4 241.5C331.9 243.7 332.1 244.8 332.6 247Z" fill="#17177A"/>
<path d="M334.9 244.1C334.6 244.2 334.5 244.3 334.3 244.4C334 242.9 333.8 242.2 333.5 240.7C333.8 240.6 333.9 240.5 334.1 240.4C334.4 241.8 334.5 242.6 334.9 244.1Z" fill="#17177A"/>
<path d="M340.2 241.9C339.9 242 339.8 242 339.6 242.1C339.3 240.6 339.1 239.9 338.8 238.4C339.1 238.3 339.2 238.3 339.4 238.2C339.7 239.6 339.9 240.4 340.2 241.9Z" fill="#17177A"/>
<path d="M343.3 242.7C343 242.8 342.9 242.8 342.7 242.9C342.2 240.7 342 239.6 341.5 237.4C341.8 237.3 341.9 237.3 342.1 237.2C342.6 239.4 342.8 240.5 343.3 242.7Z" fill="#17177A"/>
<path d="M345.6 240C345.3 240.1 345.2 240.1 345 240.2C344.7 238.7 344.5 238 344.2 236.5C344.5 236.4 344.6 236.4 344.8 236.3C345.1 237.8 345.3 238.5 345.6 240Z" fill="#17177A"/>
<path d="M338.2 246.1C337.9 246.2 337.8 246.3 337.6 246.4C337 243.6 336.7 242.2 336 239.5C336.3 239.4 336.4 239.3 336.6 239.2C337.3 242 337.6 243.4 338.2 246.1Z" fill="#17177A"/>
<path d="M373.2 244.9C372.9 244.9 372.8 244.8 372.5 244.8C371.5 240.5 371 238.3 370.1 234C370.4 234 370.5 234.1 370.8 234.1C371.7 238.4 372.2 240.6 373.2 244.9Z" fill="#17177A"/>
<path d="M351.3 238.4C351 238.5 350.9 238.5 350.7 238.5C350.4 237 350.2 236.3 349.9 234.8C350.2 234.7 350.3 234.7 350.5 234.7C350.8 236.2 351 237 351.3 238.4Z" fill="#17177A"/>
<path d="M354.5 239.7C354.2 239.7 354.1 239.8 353.8 239.8C353.3 237.6 353.1 236.5 352.6 234.3C352.9 234.3 353 234.2 353.3 234.2C353.8 236.4 354 237.5 354.5 239.7Z" fill="#17177A"/>
<path d="M356.9 237.5C356.6 237.5 356.5 237.5 356.2 237.6C355.9 236.1 355.7 235.4 355.4 233.9C355.7 233.9 355.8 233.9 356.1 233.8C356.4 235.2 356.6 236 356.9 237.5Z" fill="#17177A"/>
<path d="M362.7 237.1C362.4 237.1 362.3 237.1 362 237.1C361.7 235.6 361.5 234.9 361.2 233.4C361.5 233.4 361.6 233.4 361.9 233.4C362.2 234.8 362.3 235.6 362.7 237.1Z" fill="#17177A"/>
<path d="M366 238.9C365.7 238.9 365.6 238.9 365.3 238.9C364.8 236.7 364.6 235.6 364.1 233.4C364.4 233.4 364.5 233.4 364.8 233.4C365.3 235.6 365.5 236.7 366 238.9Z" fill="#17177A"/>
<path d="M368.6 237.4C368.3 237.4 368.2 237.4 367.9 237.3C367.6 235.8 367.4 235.1 367.1 233.6C367.4 233.6 367.5 233.6 367.8 233.7C368.1 235.2 368.2 235.9 368.6 237.4Z" fill="#17177A"/>
<path d="M360.5 240.4C360.2 240.4 360.1 240.4 359.8 240.4C359.2 237.6 358.9 236.2 358.2 233.5C358.5 233.5 358.6 233.5 358.9 233.5C359.6 236.2 359.9 237.6 360.5 240.4Z" fill="#17177A"/>
<path d="M275 267.3L272.3 266.1V249.9L275 251.1V267.3Z" fill="#17177A"/>
<path d="M401.6 230.3H375V249.2H401.6V230.3Z" fill="#FFE6CA"/>
<path d="M378.4 233.5H377.7V245.9H378.4V233.5Z" fill="#17177A"/>
<path d="M398.9 233.5H398.2V245.9H398.9V233.5Z" fill="#17177A"/>
<path d="M381 233.5H380.3V237.3H381V233.5Z" fill="#17177A"/>
<path d="M386.1 233.5H385.4V237.3H386.1V233.5Z" fill="#17177A"/>
<path d="M383.5 233.5H382.8V239H383.5V233.5Z" fill="#17177A"/>
<path d="M391.2 233.5H390.5V237.3H391.2V233.5Z" fill="#17177A"/>
<path d="M396.3 233.5H395.6V237.3H396.3V233.5Z" fill="#17177A"/>
<path d="M393.8 233.5H393.1V239H393.8V233.5Z" fill="#17177A"/>
<path d="M388.6 233.5H387.9V241.7H388.6V233.5Z" fill="#17177A"/>
<path d="M226.8 178.3C226.8 176.4 228.3 174.9 230.2 174.9C232.1 174.9 233.6 176.4 233.6 178.3C233.6 180.2 232.1 181.7 230.2 181.7C228.3 181.7 226.8 180.2 226.8 178.3Z" fill="#FFE6CA"/>
<path d="M213.7 263C213.7 263 217 257.2 223.9 255.7C230.8 254.2 234.1 254.5 235 257.8C235.9 261.1 234.1 262.3 231 264.2C228 266 211.6 265.6 213.7 263Z" fill="#FA7267"/>
<path d="M213.8 263.1L213.7 262.9C213.7 262.9 215.6 261.9 217.5 261.6C218.4 261.5 219.1 261.1 219.7 260.8C220.4 260.5 221.1 260.1 222.1 259.9C222.9 259.8 223.6 259.4 224.3 259C225.3 258.4 226.5 257.7 228.4 257.7C229.9 257.7 230.9 257.4 231.8 257.1C232.9 256.8 233.7 256.5 234.8 256.9L234.7 257.1C233.7 256.8 232.9 257 231.8 257.3C230.9 257.6 229.8 257.9 228.3 257.9C226.4 257.9 225.3 258.6 224.3 259.2C223.6 259.6 222.9 260 222 260.1C221 260.2 220.3 260.6 219.6 260.9C219 261.2 218.3 261.6 217.3 261.7C215.6 262.1 213.8 263 213.8 263.1Z" fill="#D14A43"/>
<path d="M213.8 263.9L213.7 263.7C213.8 263.7 215.3 262.9 218.1 263.1C219.7 263.2 220.4 262.7 221 262.2C221.5 261.8 222 261.5 222.8 261.4C223.6 261.3 224 261 224.6 260.6C225.2 260.1 225.9 259.6 227.2 259.8C228.4 260 229.3 259.7 230.2 259.5C230.9 259.3 231.6 259.1 232.4 259.2C234 259.4 235.2 258.8 235.2 258.8L235.3 259C235.3 259 234 259.6 232.4 259.4C231.7 259.3 231 259.5 230.3 259.7C229.4 259.9 228.5 260.2 227.2 260C226 259.8 225.4 260.3 224.7 260.8C224.2 261.2 223.7 261.6 222.8 261.7C222.1 261.8 221.6 262.1 221.1 262.5C220.4 263 219.7 263.6 218 263.4C215.3 263.2 213.8 263.9 213.8 263.9Z" fill="#D14A43"/>
<path d="M219.2 264.5C218.8 264.5 218.4 264.5 217.9 264.4C215.6 264 214.4 264.4 214.4 264.4L214.3 264.2C214.3 264.2 215.5 263.8 217.9 264.2C219.8 264.5 221.2 264 222.5 263.6C222.8 263.5 223.1 263.4 223.3 263.3C224 263.1 224.7 263.1 225.5 263.1C226.3 263.1 227 263.1 227.6 262.8C227.8 262.7 228 262.6 228.2 262.5C229.2 261.9 230.4 261.3 231.5 261.5C232.1 261.6 232.5 261.4 233 261.2C233.6 260.9 234.2 260.6 235.1 260.9V261.1C234.3 260.9 233.7 261.1 233.1 261.4C232.6 261.6 232.1 261.9 231.5 261.7C230.5 261.5 229.3 262.2 228.4 262.7C228.2 262.8 228 262.9 227.8 263C227.2 263.3 226.5 263.3 225.6 263.3C224.9 263.3 224.2 263.3 223.5 263.5C223.2 263.6 223 263.7 222.7 263.8C221.6 264.1 220.5 264.5 219.2 264.5Z" fill="#D14A43"/>
<path d="M214.7 261.8L214.6 261.7C214.7 261.7 216.1 260.5 217.1 260.5C217.5 260.5 217.7 260.2 218 259.7C218.5 259.1 219.1 258.3 220.2 258.3C221.1 258.3 221.8 257.9 222.5 257.5C223.4 257 224.3 256.5 225.6 256.5C226.7 256.6 227.9 256.2 229 255.8C230.2 255.4 231.5 255 232.8 255.2V255.4C231.6 255.2 230.3 255.6 229.1 256C228 256.4 226.8 256.7 225.7 256.7C224.5 256.6 223.6 257.1 222.7 257.6C221.9 258.1 221.2 258.5 220.2 258.5C219.1 258.5 218.6 259.2 218.1 259.8C217.8 260.3 217.5 260.6 217 260.6C216.1 260.6 214.7 261.8 214.7 261.8Z" fill="#D14A43"/>
<path d="M227.2 270.9C227.2 270.9 229.7 266.5 234.9 265.4C240.1 264.3 242.6 264.5 243.3 267C244 269.5 242.6 270.4 240.3 271.8C238.1 273.2 225.6 272.9 227.2 270.9Z" fill="#FA7267"/>
<path d="M227.2 270.9L227.1 270.8C227.1 270.8 228.5 270 230 269.8C230.7 269.7 231.2 269.5 231.7 269.2C232.2 268.9 232.7 268.7 233.5 268.6C234.1 268.5 234.6 268.2 235.2 267.9C236 267.4 236.9 266.9 238.3 266.9C239.4 266.9 240.2 266.7 240.9 266.4C241.7 266.2 242.4 266 243.2 266.3V266.4C242.4 266.1 241.8 266.3 241 266.5C240.3 266.7 239.5 266.9 238.4 267C237 267 236.1 267.5 235.4 268C234.8 268.3 234.3 268.6 233.7 268.7C232.9 268.8 232.4 269.1 231.9 269.3C231.4 269.5 230.9 269.8 230.2 269.9C228.6 270.2 227.2 270.9 227.2 270.9Z" fill="#D14A43"/>
<path d="M227.2 271.6L227.1 271.5C227.1 271.5 228.3 270.9 230.4 271.1C231.6 271.2 232.1 270.8 232.6 270.4C233 270.1 233.4 269.8 234 269.8C234.6 269.8 235 269.5 235.3 269.2C235.8 268.8 236.3 268.4 237.3 268.6C238.2 268.7 238.9 268.5 239.6 268.4C240.2 268.3 240.7 268.1 241.3 268.2C242.5 268.3 243.4 267.9 243.4 267.9L243.5 268C243.5 268 242.5 268.5 241.3 268.3C240.7 268.2 240.2 268.4 239.7 268.5C239.1 268.7 238.3 268.9 237.3 268.7C236.4 268.6 235.9 268.9 235.4 269.3C235 269.6 234.6 269.9 234 269.9C233.4 269.9 233.1 270.2 232.7 270.5C232.2 270.9 231.6 271.3 230.4 271.2C228.4 271 227.2 271.6 227.2 271.6Z" fill="#D14A43"/>
<path d="M231.3 272C231 272 230.7 272 230.3 271.9C228.5 271.6 227.6 271.9 227.6 271.9V271.8C227.6 271.8 228.5 271.5 230.3 271.8C231.8 272 232.8 271.7 233.8 271.4C234 271.3 234.2 271.3 234.4 271.2C234.9 271 235.5 271.1 236 271.1C236.6 271.1 237.2 271.1 237.6 270.9C237.7 270.8 237.9 270.7 238 270.7C238.7 270.3 239.7 269.8 240.5 269.9C240.9 270 241.3 269.8 241.6 269.7C242 269.5 242.5 269.3 243.2 269.5V269.6C242.6 269.4 242.1 269.6 241.7 269.8C241.3 270 240.9 270.2 240.5 270.1C239.7 269.9 238.8 270.4 238.1 270.8C237.9 270.9 237.8 271 237.7 271C237.3 271.2 236.7 271.2 236.1 271.2C235.6 271.2 235 271.2 234.5 271.3C234.3 271.4 234.1 271.4 233.9 271.5C233.1 271.7 232.3 272 231.3 272Z" fill="#D14A43"/>
<path d="M227.9 270L227.8 269.9C227.8 269.9 228.9 269 229.7 269C230 269 230.2 268.7 230.4 268.4C230.8 267.9 231.2 267.3 232.1 267.3C232.8 267.3 233.3 267 233.9 266.7C234.6 266.3 235.3 265.9 236.2 266C237 266.1 237.9 265.8 238.7 265.5C239.6 265.2 240.6 264.9 241.6 265V265.1C240.7 265 239.7 265.3 238.8 265.6C237.9 265.9 237.1 266.2 236.2 266.1C235.3 266 234.6 266.4 233.9 266.8C233.3 267.1 232.7 267.5 232 267.4C231.2 267.4 230.8 267.9 230.4 268.4C230.1 268.7 229.9 269 229.6 269C229 269.1 227.9 270 227.9 270Z" fill="#D14A43"/>
<path d="M49.8998 260.4C49.8998 260.4 52.3998 256 57.5998 254.9C62.7998 253.8 65.2998 254 65.9998 256.5C66.6998 259 65.2998 259.9 62.9998 261.3C60.7998 262.8 48.2998 262.5 49.8998 260.4Z" fill="#FA7267"/>
<path d="M49.9999 260.5L49.8999 260.4C49.8999 260.4 51.2999 259.6 52.7999 259.4C53.4999 259.3 53.9999 259.1 54.4999 258.8C54.9999 258.5 55.4999 258.3 56.2999 258.2C56.8999 258.1 57.3999 257.8 57.9999 257.5C58.7999 257 59.6999 256.5 61.0999 256.5C62.1999 256.5 62.9999 256.3 63.6999 256C64.4999 255.8 65.1999 255.6 65.9999 255.9V256C65.1999 255.7 64.5999 255.9 63.7999 256.1C63.0999 256.3 62.2999 256.5 61.1999 256.6C59.7999 256.6 58.8999 257.1 58.1999 257.6C57.5999 257.9 57.0999 258.2 56.4999 258.3C55.6999 258.4 55.1999 258.7 54.6999 258.9C54.1999 259.1 53.6999 259.4 52.9999 259.5C51.2999 259.8 49.9999 260.5 49.9999 260.5Z" fill="#D14A43"/>
<path d="M49.9999 261.2L49.8999 261.1C49.8999 261.1 51.0999 260.5 53.1999 260.7C54.3999 260.8 54.8999 260.4 55.3999 260C55.7999 259.7 56.1999 259.4 56.7999 259.4C57.3999 259.4 57.7999 259.1 58.0999 258.8C58.5999 258.4 59.0999 258 60.0999 258.2C60.9999 258.3 61.6999 258.1 62.3999 258C62.9999 257.9 63.4999 257.7 64.0999 257.8C65.2999 257.9 66.1999 257.5 66.1999 257.5L66.2999 257.6C66.2999 257.6 65.2999 258.1 64.0999 257.9C63.4999 257.8 62.9999 258 62.4999 258.1C61.8999 258.3 61.0999 258.5 60.1999 258.3C59.2999 258.2 58.7999 258.5 58.2999 258.9C57.8999 259.2 57.4999 259.5 56.8999 259.5C56.2999 259.5 55.9999 259.8 55.5999 260.1C55.0999 260.5 54.4999 260.9 53.2999 260.8C51.0999 260.6 49.9999 261.2 49.9999 261.2Z" fill="#D14A43"/>
<path d="M54.0999 261.6C53.7999 261.6 53.4999 261.6 53.0999 261.5C51.2999 261.2 50.3999 261.5 50.3999 261.5V261.4C50.3999 261.4 51.2999 261.1 53.0999 261.4C54.5999 261.6 55.5999 261.3 56.5999 261C56.7999 260.9 56.9999 260.9 57.1999 260.8C57.6999 260.6 58.2999 260.7 58.7999 260.7C59.3999 260.7 59.9999 260.7 60.3999 260.5C60.4999 260.4 60.6999 260.3 60.7999 260.3C61.4999 259.9 62.4999 259.4 63.2999 259.5C63.6999 259.6 64.0999 259.4 64.3999 259.3C64.7999 259.1 65.2999 258.9 65.9999 259.1V259.2C65.3999 259 64.8999 259.2 64.4999 259.4C64.0999 259.6 63.6999 259.8 63.2999 259.7C62.4999 259.5 61.5999 260 60.8999 260.4C60.6999 260.5 60.5999 260.6 60.4999 260.6C60.0999 260.8 59.4999 260.8 58.8999 260.8C58.3999 260.8 57.7999 260.8 57.2999 260.9C57.0999 261 56.8999 261 56.6999 261.1C55.8999 261.3 55.0999 261.6 54.0999 261.6Z" fill="#D14A43"/>
<path d="M50.7001 259.5L50.6001 259.4C50.6001 259.4 51.7001 258.5 52.5001 258.5C52.8001 258.5 53.0001 258.2 53.2001 257.9C53.6001 257.4 54.0001 256.8 54.9001 256.8C55.6001 256.8 56.1001 256.5 56.7001 256.2C57.4001 255.8 58.1001 255.4 59.0001 255.5C59.8001 255.6 60.7001 255.3 61.5001 255C62.4001 254.7 63.4001 254.4 64.4001 254.5V254.6C63.5001 254.5 62.5001 254.8 61.6001 255.1C60.7001 255.4 59.9001 255.7 59.0001 255.6C58.1001 255.5 57.4001 255.9 56.7001 256.3C56.1001 256.6 55.5001 257 54.8001 256.9C54.0001 256.9 53.6001 257.4 53.2001 257.9C52.9001 258.2 52.7001 258.5 52.4001 258.5C51.7001 258.6 50.7001 259.5 50.7001 259.5Z" fill="#D14A43"/>
<path d="M230.2 250.1C230.2 250.1 236.5 247.9 242.7 251.2C248.9 254.6 251.2 257 249.7 260.1C248.2 263.2 246.1 262.9 242.5 262.3C239 261.8 226.8 250.8 230.2 250.1Z" fill="#FA7267"/>
<path d="M230.1 250.2V250C230.1 250 232.2 250.5 233.8 251.5C234.6 252 235.3 252.2 236 252.3C236.7 252.5 237.5 252.7 238.4 253.2C239.1 253.7 239.9 253.8 240.7 254C241.9 254.2 243.2 254.5 244.7 255.7C245.8 256.6 246.8 257.1 247.7 257.5C248.7 258 249.5 258.3 250.1 259.3L249.9 259.4C249.3 258.5 248.6 258.1 247.6 257.7C246.7 257.3 245.7 256.8 244.6 255.9C243.2 254.7 241.9 254.5 240.7 254.2C239.9 254 239.1 253.9 238.4 253.4C237.5 252.8 236.8 252.7 236.1 252.5C235.4 252.3 234.7 252.2 233.8 251.6C232.2 250.7 230.2 250.2 230.1 250.2Z" fill="#D14A43"/>
<path d="M229.6 250.9V250.7C229.7 250.7 231.3 251.2 233.3 253.1C234.4 254.2 235.3 254.3 236.1 254.3C236.7 254.3 237.3 254.4 238 254.9C238.6 255.4 239.2 255.4 239.9 255.4C240.7 255.4 241.6 255.5 242.4 256.5C243.2 257.4 244.1 257.8 244.9 258.2C245.6 258.5 246.2 258.8 246.7 259.4C247.8 260.6 249.1 261 249.1 261V261.2C249.1 261.2 247.7 260.8 246.6 259.6C246.1 259.1 245.5 258.8 244.8 258.4C244 258 243.1 257.6 242.2 256.6C241.4 255.7 240.6 255.6 239.8 255.6C239.2 255.6 238.5 255.5 237.8 255C237.2 254.6 236.6 254.5 236 254.5C235.2 254.4 234.2 254.4 233.1 253.2C231.2 251.3 229.6 250.9 229.6 250.9Z" fill="#D14A43"/>
<path d="M233.3 254.8C233 254.5 232.7 254.2 232.4 253.9C230.9 252.1 229.8 251.6 229.7 251.6L229.8 251.4C229.8 251.4 231 251.9 232.5 253.8C233.7 255.3 235.1 255.9 236.3 256.3C236.6 256.4 236.8 256.5 237.1 256.6C237.7 256.9 238.3 257.4 238.8 257.9C239.4 258.4 239.9 258.9 240.5 259.1C240.7 259.1 240.9 259.2 241.1 259.2C242.2 259.4 243.6 259.7 244.2 260.6C244.5 261.1 245 261.2 245.5 261.3C246.1 261.5 246.8 261.7 247.3 262.4L247.1 262.5C246.6 261.8 246 261.6 245.4 261.4C244.8 261.2 244.3 261.1 244 260.6C243.4 259.8 242.1 259.5 241 259.3C240.8 259.3 240.5 259.2 240.4 259.2C239.8 259.1 239.2 258.5 238.6 258C238.1 257.5 237.5 257 236.9 256.8C236.7 256.7 236.4 256.6 236.1 256.5C235.4 256.1 234.3 255.7 233.3 254.8Z" fill="#D14A43"/>
<path d="M231.7 249.8V249.6C231.8 249.6 233.6 249.6 234.4 250.3C234.7 250.5 235.1 250.4 235.6 250.3C236.4 250.1 237.3 249.9 238.2 250.7C238.9 251.3 239.7 251.4 240.5 251.6C241.5 251.8 242.5 252 243.5 252.9C244.3 253.7 245.4 254.1 246.5 254.6C247.7 255.1 248.9 255.6 249.8 256.6L249.7 256.7C248.9 255.8 247.7 255.3 246.5 254.8C245.4 254.3 244.3 253.9 243.5 253.1C242.6 252.2 241.6 252 240.6 251.9C239.7 251.7 238.9 251.6 238.2 250.9C237.4 250.2 236.5 250.4 235.8 250.5C235.2 250.6 234.8 250.7 234.4 250.4C233.5 249.9 231.7 249.8 231.7 249.8Z" fill="#D14A43"/>
<path d="M81.1 207.3C81.1 207.3 70 198.4 57.5 207C57.5 207 69.3 221.3 81.1 207.3Z" fill="#4851EC"/>
<path d="M80.7999 218.7C81.2999 218.7 81.7999 218.3 81.8999 217.8C81.9999 217.4 84.1999 208.4 80.1999 200.1C79.8999 199.5 79.0999 199.2 78.4999 199.5C77.8999 199.8 77.5999 200.6 77.8999 201.2C81.5999 208.7 79.4999 217.1 79.4999 217.2C79.2999 217.9 79.6999 218.5 80.3999 218.7C80.4999 218.7 80.6999 218.7 80.7999 218.7Z" fill="#060633"/>
<path d="M60.6 221.6C59.3 224.2 58.9 227.4 59.1 230.1C59.8 240 66.6 250.4 75.6 254.7C85.1 259.3 97.9 255.4 104.4 247.5C110.5 240 111.6 228.8 107.1 220.2C103.2 212.9 95.7 209 87.8 212.5C85 213.7 82.6 216.1 79.4 216.2C74.5 216.4 68.7 214.6 64.2 217.4C62.6 218.5 61.5 219.9 60.6 221.6Z" fill="#FA7267"/>
<path d="M106.2 240.7C105.9 239.3 106 237.8 106.1 236.4C107.7 238.2 107.7 241 109 243C109 241.2 109.6 239.5 110.6 238.1C111.1 239.9 111 241.8 110.5 243.6C112.3 243.7 114 243.9 115.7 244.2C115 245 113.8 245.4 112.7 245.2C113.5 245.6 114.4 246 115.2 246.3C115.5 246.4 115.8 246.6 116 246.8C116.2 247.1 116.2 247.5 116 247.7C115.9 247.8 115.7 247.8 115.5 247.8C113.2 248.1 111.2 247 109.7 245.4C108.4 243.9 106.7 242.8 106.2 240.7Z" fill="#4851EC"/>
<path d="M110.9 245.6C107.3 241.6 99.5999 234.8 94.6999 245.7C90.1999 255.6 90.6999 257.9 92.9999 261C95.2999 264.1 113.6 264 116.2 255.8C118.8 247.6 110.9 245.6 110.9 245.6Z" fill="#FFDEBD"/>
<path d="M101.4 241.8C101.6 241.7 102.2 241.6 102.3 241.8C102.4 242 101.8 242.4 101.6 242.4C101.4 242.5 101.2 242.4 101.2 242.2C101.2 242.1 101.2 241.9 101.4 241.8Z" fill="#FA7267"/>
<path d="M101.8 246.5C101.9 246.4 102.6 246.2 102.7 246.3C102.8 246.4 102.3 246.9 102.1 247C102 247.1 101.7 247 101.7 246.9C101.6 246.8 101.7 246.6 101.8 246.5Z" fill="#FA7267"/>
<path d="M97.9001 250.1C98.0001 250 98.6001 249.6 98.7001 249.8C98.8001 249.9 98.4001 250.5 98.3001 250.6C98.2001 250.7 98.0001 250.7 97.8001 250.6C97.7001 250.5 97.7001 250.3 97.9001 250.1Z" fill="#FA7267"/>
<path d="M94.3 256.8C94.4 256.7 95 256.3 95.1 256.5C95.2 256.6 94.8 257.2 94.7 257.3C94.6 257.4 94.4 257.4 94.2 257.3C94.1 257.1 94.1 256.9 94.3 256.8Z" fill="#FA7267"/>
<path d="M93.9998 251.9C94.0998 251.8 94.5998 251.2 94.6998 251.3C94.7998 251.4 94.5998 252 94.4998 252.2C94.3998 252.3 94.1998 252.4 94.0998 252.3C93.8998 252.3 93.8998 252.1 93.9998 251.9Z" fill="#FA7267"/>
<path d="M96.8998 245.8C96.9998 245.7 97.6998 245.5 97.7998 245.6C97.8998 245.7 97.3998 246.2 97.1998 246.3C97.0998 246.4 96.7998 246.3 96.7998 246.2C96.7998 246.1 96.7998 245.9 96.8998 245.8Z" fill="#FA7267"/>
<path d="M107.1 247.9C107.2 247.8 107.7 247.3 107.9 247.4C108 247.5 107.7 248.1 107.6 248.3C107.5 248.4 107.3 248.5 107.1 248.3C107 248.2 106.9 248 107.1 247.9Z" fill="#FA7267"/>
<path d="M103.2 254.8C103.3 254.7 103.8 254.2 104 254.3C104.1 254.4 103.8 255 103.7 255.2C103.6 255.3 103.4 255.4 103.2 255.2C103.1 255.2 103.1 255 103.2 254.8Z" fill="#FA7267"/>
<path d="M102 258.7C102.1 258.6 102.8 258.3 102.9 258.5C103 258.6 102.5 259.1 102.4 259.3C102.3 259.4 102.1 259.4 101.9 259.2C101.8 259 101.9 258.8 102 258.7Z" fill="#FA7267"/>
<path d="M98.4002 260C98.5002 259.9 99.2002 259.6 99.3002 259.8C99.4002 259.9 98.9002 260.4 98.8002 260.6C98.7002 260.7 98.5002 260.7 98.3002 260.5C98.2002 260.3 98.3002 260.1 98.4002 260Z" fill="#FA7267"/>
<path d="M102.9 250.6C103 250.5 103.5 250 103.7 250.1C103.8 250.2 103.5 250.8 103.4 251C103.3 251.1 103.1 251.2 102.9 251C102.8 250.9 102.8 250.7 102.9 250.6Z" fill="#FA7267"/>
<path d="M98.4998 254.7C98.5998 254.6 99.0998 254.1 99.2998 254.2C99.3998 254.3 99.0998 254.9 98.9998 255.1C98.8998 255.2 98.6998 255.3 98.4998 255.1C98.3998 255.1 98.3998 254.9 98.4998 254.7Z" fill="#FA7267"/>
<path d="M108.4 252.3C108.5 252.1 108.9 251.6 109 251.7C109.2 251.8 109 252.4 109 252.6C108.9 252.8 108.7 252.8 108.6 252.8C108.4 252.7 108.3 252.5 108.4 252.3Z" fill="#FA7267"/>
<path d="M106.9 258C107 257.9 107.5 257.4 107.7 257.5C107.8 257.6 107.6 258.2 107.5 258.4C107.4 258.5 107.2 258.6 107 258.5C106.8 258.3 106.8 258.1 106.9 258Z" fill="#FA7267"/>
<path d="M112.8 250.9C112.9 250.8 113.4 250.3 113.5 250.4C113.6 250.5 113.4 251.1 113.3 251.3C113.2 251.4 113 251.5 112.8 251.4C112.8 251.2 112.7 251 112.8 250.9Z" fill="#FA7267"/>
<path d="M112.5 256.1C112.6 256 113.1 255.5 113.2 255.6C113.3 255.7 113.1 256.3 113 256.5C112.9 256.6 112.7 256.7 112.5 256.6C112.5 256.4 112.4 256.2 112.5 256.1Z" fill="#FA7267"/>
<path d="M109.2 243.5C109.6 243.4 111.9 242.2 113.6 238.7L115.4 239.6C115.4 239.6 110.6 244.4 110.1 244.3C109.5 244.2 109.2 243.5 109.2 243.5Z" fill="#4851EC"/>
</g>
<defs>
<clipPath id="clip0_1241_2516">
<rect width="444.5" height="284" fill="white"/>
</clipPath>
</defs>
</svg>
