<svg width="14" height="14" viewBox="0 0 14 14" fill="none" xmlns="http://www.w3.org/2000/svg">
<g clip-path="url(#clip0_326_6546)">
<path d="M6.99941 14C3.97027 14 1.50586 11.5296 1.50586 8.49306C1.50586 6.13149 2.5791 4.02575 4.15487 2.29636C5.45088 0.873996 6.73355 0.0907615 6.7875 0.0581404C7.07182 -0.113852 7.4534 0.120484 7.4534 0.437398V4.20988L9.38346 2.4085C9.55099 2.25212 9.81623 2.26295 9.96982 2.43661C10.7034 3.26581 11.2873 4.14144 11.7054 5.03922C14.0371 10.0465 10.8228 14 6.99941 14Z" fill="url(#paint0_linear_326_6546)"/>
<path d="M11.7055 5.03896C11.2874 4.14118 10.7035 3.26555 9.96992 2.43636C9.81633 2.26267 9.5511 2.25187 9.38356 2.40825L7.4535 4.20963V0.437144C7.4535 0.198543 7.23724 0.00683594 7.00903 0V13.9996C10.8282 13.9931 14.0352 10.0421 11.7055 5.03896Z" fill="url(#paint1_linear_326_6546)"/>
<path d="M6.99956 14.0001C5.84839 14.0001 4.91187 13.0613 4.91187 11.9074C4.91187 10.0427 6.72224 8.93862 6.7993 8.89252C6.93438 8.81177 7.1035 8.81555 7.23486 8.90209C7.31049 8.95197 9.08724 10.1437 9.08724 11.9074C9.08726 13.0613 8.15074 14.0001 6.99956 14.0001Z" fill="#FEC356"/>
<path d="M9.08721 11.9072C9.08721 10.1435 7.31044 8.95178 7.23484 8.9019C7.16642 8.85681 7.08778 8.83442 7.00903 8.83447V13.9997C8.1558 13.9945 9.08721 13.0579 9.08721 11.9072Z" fill="#FEB020"/>
<g clip-path="url(#clip1_326_6546)">
<path d="M6.99917 14C3.97003 14 1.50562 11.5296 1.50562 8.49306C1.50562 6.13149 2.57886 4.02575 4.15462 2.29636C5.45063 0.873996 6.7333 0.0907615 6.78725 0.0581404C7.07157 -0.113852 7.45315 0.120484 7.45315 0.437398V4.20988L9.38321 2.4085C9.55075 2.25212 9.81598 2.26295 9.96957 2.43661C10.7031 3.26581 11.287 4.14144 11.7051 5.03921C14.0368 10.0465 10.8225 14 6.99917 14Z" fill="#FE4E33"/>
<path d="M11.705 5.03945C11.2869 4.14167 10.703 3.26604 9.96943 2.43684C9.81584 2.26316 9.55061 2.25236 9.38307 2.40873L7.45302 4.21011V0.437633C7.45302 0.199031 7.23676 0.00732422 7.00854 0.000488281V14.0001C10.8277 13.9936 14.0347 10.0426 11.705 5.03945Z" fill="#FE1600"/>
<path d="M6.99908 14.0001C5.8479 14.0001 4.91138 13.0613 4.91138 11.9074C4.91138 10.0427 6.72176 8.93862 6.79881 8.89252C6.93389 8.81177 7.10301 8.81555 7.23437 8.90209C7.31 8.95197 9.08675 10.1437 9.08675 11.9074C9.08678 13.0613 8.15025 14.0001 6.99908 14.0001Z" fill="#FEC356"/>
<path d="M9.08673 11.9072C9.08673 10.1435 7.30996 8.95178 7.23435 8.9019C7.16594 8.85681 7.08729 8.83442 7.00854 8.83447V13.9997C8.15532 13.9945 9.08673 13.0579 9.08673 11.9072Z" fill="#FEB020"/>
</g>
</g>
<defs>
<linearGradient id="paint0_linear_326_6546" x1="12.4944" y1="14" x2="-2.18461" y2="13.1084" gradientUnits="userSpaceOnUse">
<stop stop-color="#F9889C"/>
<stop offset="1" stop-color="#FEAA99"/>
</linearGradient>
<linearGradient id="paint1_linear_326_6546" x1="12.4945" y1="13.9996" x2="5.14647" y2="13.7768" gradientUnits="userSpaceOnUse">
<stop stop-color="#F9889C"/>
<stop offset="1" stop-color="#FEAA99"/>
</linearGradient>
<clipPath id="clip0_326_6546">
<rect width="14" height="14" fill="white"/>
</clipPath>
<clipPath id="clip1_326_6546">
<rect width="14" height="14" fill="white"/>
</clipPath>
</defs>
</svg>
