<svg width="159" height="37" viewBox="0 0 159 37" fill="none" xmlns="http://www.w3.org/2000/svg">
<path d="M16.684 10.728V15.66H6.388V20.988H14.092V25.776H6.388V36H0.232V10.728H16.684ZM23.0155 13.824C21.9355 13.824 21.0475 13.512 20.3515 12.888C19.6795 12.24 19.3435 11.448 19.3435 10.512C19.3435 9.552 19.6795 8.76 20.3515 8.136C21.0475 7.488 21.9355 7.164 23.0155 7.164C24.0715 7.164 24.9355 7.488 25.6075 8.136C26.3035 8.76 26.6515 9.552 26.6515 10.512C26.6515 11.448 26.3035 12.24 25.6075 12.888C24.9355 13.512 24.0715 13.824 23.0155 13.824ZM26.0755 15.912V36H19.9195V15.912H26.0755ZM41.7327 30.78V36H38.6007C36.3687 36 34.6287 35.46 33.3807 34.38C32.1327 33.276 31.5087 31.488 31.5087 29.016V21.024H29.0607V15.912H31.5087V11.016H37.6647V15.912H41.6967V21.024H37.6647V29.088C37.6647 29.688 37.8087 30.12 38.0967 30.384C38.3847 30.648 38.8647 30.78 39.5367 30.78H41.7327ZM57.4017 15.696C59.7537 15.696 61.6257 16.464 63.0177 18C64.4337 19.512 65.1417 21.6 65.1417 24.264V36H59.0217V25.092C59.0217 23.748 58.6737 22.704 57.9777 21.96C57.2817 21.216 56.3457 20.844 55.1697 20.844C53.9937 20.844 53.0577 21.216 52.3617 21.96C51.6657 22.704 51.3177 23.748 51.3177 25.092V36H45.1617V15.912H51.3177V18.576C51.9417 17.688 52.7817 16.992 53.8377 16.488C54.8937 15.96 56.0817 15.696 57.4017 15.696ZM88.3555 25.632C88.3555 26.208 88.3195 26.808 88.2475 27.432H74.3155C74.4115 28.68 74.8075 29.64 75.5035 30.312C76.2235 30.96 77.0995 31.284 78.1315 31.284C79.6675 31.284 80.7355 30.636 81.3355 29.34H87.8875C87.5515 30.66 86.9395 31.848 86.0515 32.904C85.1875 33.96 84.0955 34.788 82.7755 35.388C81.4555 35.988 79.9795 36.288 78.3475 36.288C76.3795 36.288 74.6275 35.868 73.0915 35.028C71.5555 34.188 70.3555 32.988 69.4915 31.428C68.6275 29.868 68.1955 28.044 68.1955 25.956C68.1955 23.868 68.6155 22.044 69.4555 20.484C70.3195 18.924 71.5195 17.724 73.0555 16.884C74.5915 16.044 76.3555 15.624 78.3475 15.624C80.2915 15.624 82.0195 16.032 83.5315 16.848C85.0435 17.664 86.2195 18.828 87.0595 20.34C87.9235 21.852 88.3555 23.616 88.3555 25.632ZM82.0555 24.012C82.0555 22.956 81.6955 22.116 80.9755 21.492C80.2555 20.868 79.3555 20.556 78.2755 20.556C77.2435 20.556 76.3675 20.856 75.6475 21.456C74.9515 22.056 74.5195 22.908 74.3515 24.012H82.0555ZM99.7751 36.288C98.0231 36.288 96.4631 35.988 95.0951 35.388C93.7271 34.788 92.6471 33.972 91.8551 32.94C91.0631 31.884 90.6191 30.708 90.5231 29.412H96.6071C96.6791 30.108 97.0031 30.672 97.5791 31.104C98.1551 31.536 98.8631 31.752 99.7031 31.752C100.471 31.752 101.059 31.608 101.467 31.32C101.899 31.008 102.115 30.612 102.115 30.132C102.115 29.556 101.815 29.136 101.215 28.872C100.615 28.584 99.6431 28.272 98.2991 27.936C96.8591 27.6 95.6591 27.252 94.6991 26.892C93.7391 26.508 92.9111 25.92 92.2151 25.128C91.5191 24.312 91.1711 23.22 91.1711 21.852C91.1711 20.7 91.4831 19.656 92.1071 18.72C92.7551 17.76 93.6911 17.004 94.9151 16.452C96.1631 15.9 97.6391 15.624 99.3431 15.624C101.863 15.624 103.843 16.248 105.283 17.496C106.747 18.744 107.587 20.4 107.803 22.464H102.115C102.019 21.768 101.707 21.216 101.179 20.808C100.675 20.4 100.003 20.196 99.1631 20.196C98.4431 20.196 97.8911 20.34 97.5071 20.628C97.1231 20.892 96.9311 21.264 96.9311 21.744C96.9311 22.32 97.2311 22.752 97.8311 23.04C98.4551 23.328 99.4151 23.616 100.711 23.904C102.199 24.288 103.411 24.672 104.347 25.056C105.283 25.416 106.099 26.016 106.795 26.856C107.515 27.672 107.887 28.776 107.911 30.168C107.911 31.344 107.575 32.4 106.903 33.336C106.255 34.248 105.307 34.968 104.059 35.496C102.835 36.024 101.407 36.288 99.7751 36.288ZM122.873 30.78V36H119.741C117.509 36 115.769 35.46 114.521 34.38C113.273 33.276 112.649 31.488 112.649 29.016V21.024H110.201V15.912H112.649V11.016H118.805V15.912H122.837V21.024H118.805V29.088C118.805 29.688 118.949 30.12 119.237 30.384C119.525 30.648 120.005 30.78 120.677 30.78H122.873Z" fill="#1D1617"/>
<path d="M148.67 36L141.52 25.25L135.22 36H125.52L136.77 18.15L125.27 0.899999H135.22L142.27 11.5L148.47 0.899999H158.17L147.02 18.6L158.62 36H148.67Z" fill="url(#paint0_linear_426_154)"/>
<defs>
<linearGradient id="paint0_linear_426_154" x1="295" y1="68.4074" x2="-56.2744" y2="-55.1187" gradientUnits="userSpaceOnUse">
<stop stop-color="#CC8FED"/>
<stop offset="1" stop-color="#9DCEFF"/>
</linearGradient>
</defs>
</svg>
