<svg width="147" height="200" viewBox="0 0 147 200" fill="none" xmlns="http://www.w3.org/2000/svg">
<defs opacity="0.64">
<path opacity="0.64" d="M133.476 42.3529C134.064 42.3529 134.064 42.3529 133.476 42.3529C134.064 39.4118 106.428 37.0588 72.9121 36.4706C39.9841 36.4706 12.3481 37.6471 12.3481 40.5882V41.1765L25.8721 184.706C26.4601 189.412 46.4521 192.941 71.1481 193.529C95.8441 194.118 115.836 190.588 116.424 186.471L133.476 42.3529Z" fill="white"/>
</defs>
<path d="M0 5.29419L16.464 188.824C17.052 194.706 41.16 199.412 71.148 199.412C100.548 200 125.244 195.882 125.832 190L147 7.64713L0 5.29419Z" fill="url(#paint0_linear_1276_2620)"/>
<path d="M147 7.05887C147 3.52946 114.072 0.588279 73.5 4.36372e-05C32.928 -0.588192 0 1.76475 0 4.70593C0 8.23534 32.928 11.1765 73.5 11.7647C114.072 12.353 147 10 147 7.05887Z" fill="#7B6F72"/>
<defs opacity="0.51">
<path opacity="0.51" d="M134.064 41.7647C134.064 44.1176 106.428 45.2941 72.9118 45.2941C39.3958 44.7059 11.7598 42.3529 11.7598 40C11.7598 37.6471 39.3958 36.4706 72.9118 36.4706C107.016 37.0588 134.064 39.4118 134.064 41.7647Z" fill="white"/>
</defs>
<path d="M63.504 108.824C64.092 103.529 64.092 98.8236 64.092 93.5295C64.092 90.5883 59.976 90.5883 59.976 93.5295C59.976 98.2354 59.388 102.941 59.388 107.647L49.392 107.059C49.392 103.529 49.392 100.588 49.392 97.0589C49.392 94.1177 45.276 94.1177 45.276 97.0589C45.276 105.882 44.688 114.118 44.688 122.941C44.688 125.882 48.804 125.882 48.804 122.941C48.804 119.412 48.804 115.294 49.392 111.765H58.8C58.212 116.471 58.212 120.588 57.624 125.294C57.036 128.235 61.74 128.235 61.74 125.294C62.328 120.588 62.916 115.294 62.916 110.588C62.916 110 62.916 110 62.916 109.412C63.504 110 63.504 109.412 63.504 108.824Z" fill="white"/>
<path d="M72.9121 141.765C72.3241 141.765 69.9721 141.765 68.7961 141.177C69.3841 140.588 69.9721 140 70.5601 139.412C71.1481 138.824 71.1481 138.824 71.7361 138.235C73.5001 136.471 74.6761 134.118 74.0881 131.177C72.9121 126.471 67.0321 126.471 65.8561 131.177C65.2681 134.118 69.3841 135.294 69.9721 132.353C70.5601 132.353 70.5601 132.941 69.9721 133.529C69.3841 134.118 69.3841 134.706 68.7961 135.294C68.2081 135.882 67.6201 136.471 67.0321 137.059C65.8561 138.235 65.2681 140 65.2681 141.765C65.8561 145.882 70.5601 145.294 73.5001 145.294C75.2641 146.471 75.2641 141.765 72.9121 141.765Z" fill="white"/>
<path d="M91.14 97.0589C91.14 96.4707 91.14 95.8824 90.552 95.8824C89.964 95.2942 89.964 95.2942 89.376 95.2942C82.32 95.2942 78.792 105.882 78.792 112.353C78.792 118.824 81.732 127.059 88.788 127.059C95.844 127.059 100.548 120 101.136 112.941C101.724 107.059 97.608 98.2354 91.14 97.0589ZM97.02 114.118C96.432 118.235 93.492 123.529 88.2 122.941C83.496 122.353 82.32 115.882 82.908 111.765C82.908 110 83.496 107.647 84.084 105.882C84.672 104.706 85.848 101.765 87.612 100.588C87.612 101.177 88.2 101.177 88.788 101.765C89.376 101.765 89.376 102.353 89.964 101.765C92.316 101.765 94.668 105.294 95.844 107.059C97.02 108.824 97.608 111.177 97.02 114.118Z" fill="white"/>
<g>
<linearGradient id="paint0_linear_1276_2620" x1="152.472" y1="106.465" x2="-43.9494" y2="94.9739" gradientUnits="userSpaceOnUse">
<stop stop-color="#92A3FD"/>
<stop offset="1" stop-color="#9DCEFF"/>
</linearGradient>
</g>
</svg>
