<svg width="309" height="352" viewBox="0 0 309 352" fill="none" xmlns="http://www.w3.org/2000/svg">
<g clip-path="url(#clip0_931_2516)">
<path d="M159.4 72.7L164.3 111.4L119 113.8V85.1L159.4 72.7Z" fill="#FFEDE5"/>
<path d="M119 103.9C119 103.9 147.3 118 155.3 73.9L119 85.1V103.9Z" fill="#E0855C"/>
<path d="M111.9 66C115.2 65 116.4 59.4 114.6 53.5C112.8 47.6 108.7 43.6 105.5 44.6C102.2 45.6 101 51.2 102.8 57.1C104.6 63 108.7 67 111.9 66Z" fill="#E0855C"/>
<path d="M106.9 38.6C106.9 38.6 107.8 99.6 134.2 101.5C160.6 103.4 162.7 54.3 162.9 38.6C163.1 22.9 146.4 18.4 131.4 18.6C116.5 18.7 107.6 26.4 106.9 38.6Z" fill="#FFEDE5"/>
<path d="M161.7 52.2C161.7 52.2 155 42.9 155.2 31.6C155.2 31.6 132.3 42.6 117.2 33.9C117.2 33.9 108.1 39.5 107.7 51.4L104.6 44.9C104.6 44.9 102.9 31.4 103.9 28.2C104.5 26.3 105.8 24.7 107.6 23.8C107.6 23.8 99.9 6.7 118.7 0C118.7 0 118.8 4.1 126.3 3.5C133.8 2.9 168.5 0.799999 165.8 19.4C165.7 19.5 173.4 31.6 161.7 52.2Z" fill="#3B2645"/>
<path d="M169.6 53.9C171.2 47.9 169.9 42.4 166.6 41.5C163.3 40.6 159.3 44.7 157.7 50.6C156.1 56.6 157.4 62.1 160.7 63C163.9 63.9 167.9 59.8 169.6 53.9Z" fill="#FFEDE5"/>
<path d="M161.7 56.3H161.6C161.4 56.2 161.4 56 161.4 55.9L164.3 49.8C164.4 49.6 164.6 49.6 164.7 49.6C164.9 49.7 164.9 49.9 164.9 50L162 56.1C162 56.3 161.9 56.3 161.7 56.3Z" fill="#472938"/>
<path d="M133.1 72.7C131.5 72.7 128.3 71.8 127.6 70.5C127.1 69.6 128.1 64.3 130 55.5C130.3 53.9 130.6 52.7 130.7 52.1C131.1 49.9 129.9 49.3 129.8 49.3C129.6 49.2 129.6 49 129.6 48.9C129.7 48.7 129.9 48.7 130 48.7C130.1 48.7 131.8 49.5 131.3 52.2C131.2 52.8 130.9 54 130.6 55.6C129.7 59.7 127.6 69.2 128.1 70.1C128.7 71.2 132.4 72.2 133.5 71.9C134.6 71.6 136.8 70 136.8 70C136.9 69.9 137.2 69.9 137.3 70.1C137.4 70.2 137.4 70.5 137.2 70.6C137.1 70.7 134.9 72.3 133.7 72.6C133.6 72.7 133.4 72.7 133.1 72.7Z" fill="#472938"/>
<path d="M133.8 82.5C130.8 82.5 128.5 81.8 128.4 81.8C128.2 81.7 128.1 81.6 128.2 81.4C128.3 81.2 128.4 81.1 128.6 81.2C128.7 81.2 140 84.7 144.3 75.9C144.4 75.7 144.6 75.7 144.7 75.7C144.9 75.8 144.9 76 144.9 76.1C142.4 81.4 137.6 82.5 133.8 82.5Z" fill="#472938"/>
<path d="M146.2 50.3C147.3 50.3 148.1 51.2 148.1 52.2V53.6C148.1 54.7 147.2 55.5 146.2 55.5C145.1 55.5 144.3 54.6 144.3 53.6V52.2C144.2 51.2 145.1 50.3 146.2 50.3Z" fill="#472938"/>
<path d="M120.1 51.7C121.2 51.6 122.1 52.4 122.2 53.4L122.3 54.8C122.4 55.9 121.6 56.8 120.6 56.9C119.5 57 118.6 56.2 118.5 55.2L118.4 53.8C118.3 52.7 119.1 51.8 120.1 51.7Z" fill="#472938"/>
<path d="M152.8 44.1C150.5 42.8 147.7 42.6 145.2 43.5C141 45.2 139.8 44 139.5 43.5C139.2 42.9 142 40.2 147.6 40.4C151.5 40.6 152.8 44.1 152.8 44.1Z" fill="#472938"/>
<path d="M112 47.2C114.1 45.5 116.8 44.9 119.4 45.4C123.8 46.4 124.8 45.1 125 44.5C125.2 43.9 122 41.6 116.5 42.7C112.7 43.5 112 47.2 112 47.2Z" fill="#472938"/>
<path d="M216.8 130.9L195 122.8C138 140.7 113.4 126.7 103.9 117.1C103.9 117.1 69.3 122 64.7 125.8C60.1 129.6 73.2 245.8 73.9 271.3C74.3 287.5 72.3 311.1 70.8 326C95.9 342.5 125.4 352 158 352C177.8 352 197.4 345.4 215.9 334.2C212.8 308.3 206.3 254.2 206.1 246.4C205.7 236.1 216.8 130.9 216.8 130.9Z" fill="#AB8DA8"/>
<path d="M119 113.7L103.8 117C113.3 126.6 138 140.6 195 122.8L164.3 111.3L119 113.7Z" fill="#FFEDE5"/>
<path d="M207.4 225.6C207.4 225.6 192.6 154.5 183.1 126.1C181.8 122.1 180.5 119 179.5 117L166.7 112.2C166.7 112.2 168.5 119.1 170.9 128.8C175.4 146.7 181.8 174.3 182.6 185.9H114.2V114.7L102.5 117C102.5 117 102.5 117.1 102.5 117.3C101.6 122.9 84.5 221.8 71.8 243.8C72.7 252.6 73.3 261.7 73.7 271.2C74.9 300.9 73 328.1 69.7 352C81.4 352 98.5 352 110.7 352C126.4 352 142.2 352 157.9 352C172 352 192.2 352 216.9 352C215.8 319 212.6 297.4 209.8 283.5C208.8 278.4 206.2 264.8 205.9 246.4C205.9 244 206.5 236.1 207.4 225.6Z" fill="#3B2645"/>
<path d="M71.4 238L82.7 189.3L68.3 202.8L71.4 238Z" fill="#543753"/>
<path d="M148.6 293.5C139.6 293.5 131.9 290.2 125.9 283.8C116.1 273.3 112.2 256.2 110.7 243.6C109.1 230 109.7 218.8 109.8 218.7V218.4H187.4V218.7C187.4 218.8 188.1 230.1 186.5 243.6C185 256.2 181.1 273.3 171.3 283.8C165.2 290.2 157.6 293.5 148.6 293.5ZM110.4 219.1C110.3 221 109.9 231.4 111.4 243.6C112.9 256.1 116.7 273 126.4 283.4C132.3 289.7 139.8 292.9 148.6 292.9C157.4 292.9 164.9 289.7 170.8 283.4C180.5 273.1 184.3 256.1 185.8 243.6C187.3 231.3 186.9 221 186.8 219.1H110.4V219.1Z" fill="white"/>
<path d="M64.5999 125.7C64.5999 125.7 51.3999 136.4 20.8999 198.6L62.5999 234.5L86.5999 190.7C86.5999 190.7 76.2999 123.9 64.5999 125.7Z" fill="#AB8DA8"/>
<path d="M71.0999 321.8C71.0999 321.8 89.4999 330.3 92.2999 329.1C95.1999 327.9 91.5999 303.8 90.6999 303.5C89.7999 303.2 73.7999 291 70.5999 291.7C68.3999 292.2 66.2999 299.4 66.2999 299.4L32.0999 273.4L57.7999 230.4L20.6999 198.5C20.6999 198.5 9.1999 218.8 -0.100098 237.8C15.3999 274.7 39.7999 305.5 70.4999 325.8L71.0999 321.8Z" fill="#FFEDE5"/>
<path d="M20.8999 198.6L57.9999 230.5L54.3999 236.6L20.8999 198.6Z" fill="#E0855C"/>
<path d="M216.8 130.9C222.7 133 263.2 184.9 263.2 184.9L218.9 218.7C218.9 218.7 202.5 196.1 200.9 184.9C199.3 173.7 204.8 126.7 216.8 130.9Z" fill="#AB8DA8"/>
<path d="M263.2 184.9C263.2 184.9 306.5 246.1 308.3 259.5C310.1 272.8 304.7 287.4 268.4 287.1C232.1 286.9 200.7 283.1 192.5 284.7C184.3 286.3 165.9 287.3 162.8 286.4C159.7 285.5 148.8 259.5 149.4 256C149.9 252.5 155.4 250.4 155.4 250.4C155.4 250.4 153.9 248.1 154.3 245.8C154.7 243.6 173.7 248.2 177.9 248.7C182.1 249.2 191.2 259.5 193.5 260C195.8 260.5 252.7 251.8 252.7 251.8L220.9 217.2L263.2 184.9Z" fill="#FFEDE5"/>
<path d="M263.2 184.9L220.9 217.1L225.8 222.5L263.2 184.9Z" fill="#E0855C"/>
<path d="M252.7 251.8L274.2 248C274.2 248 263.9 247.5 262.2 226.8L252.7 251.8Z" fill="#E0855C"/>
<path d="M262.2 218.7H159.7C159.1 229.4 160 238.4 161.6 245.6C167.6 246.5 175.4 248.3 177.9 248.6C182.1 249.1 191.2 259.4 193.5 259.9C195.8 260.4 252.7 251.7 252.7 251.7C263.9 246.7 262.2 218.7 262.2 218.7Z" fill="#E3DCF7"/>
<path d="M183.5 249.4C176.8 246.1 161.5 245.7 161.5 245.7C167.5 246.6 175.3 248.4 177.8 248.7C182 249.2 191.1 259.5 193.4 260C194.4 260.2 205.7 258.7 218.2 256.9C199.3 258.9 190.2 252.7 183.5 249.4Z" fill="#3B2645"/>
<path d="M159.7 218.7C159.7 218.7 151.7 211.4 153.2 208.5C154.7 205.6 160.9 211 160.9 211C160.9 211 155.5 197.2 159.5 195.8C163.5 194.4 176.8 210.2 176.8 210.2C176.8 210.2 173.8 195.6 175.6 195C177.4 194.4 187.9 208.1 187.9 208.1C187.9 208.1 192.1 190.7 196.4 190.6C200.7 190.5 197.6 210.5 197.6 210.5C197.6 210.5 202.3 195.2 205.9 196.2C209.5 197.2 209.8 213.6 209.8 213.6C209.8 213.6 210.4 201 213 200.5C215.6 200 218.9 218.5 218.9 218.5H159.7V218.7Z" fill="#679E97"/>
<path d="M222.3 218.7C222.3 218.7 227.5 201.4 230.1 201.2C232.6 201 232.8 215.5 232.8 215.5C232.8 215.5 237.9 198.5 239.5 198.1C241.1 197.7 242.1 209.4 242.1 209.4C242.1 209.4 250.3 197.6 252.2 198C254.1 198.4 251.6 209.4 251.6 209.4C251.6 209.4 259.4 198.2 264.6 199.9C269.7 201.6 262.3 218.7 262.3 218.7H222.3Z" fill="#679E97"/>
<path d="M262.2 218.7C262.2 218.7 273.8 207.9 270.7 205.5C267.7 203.1 253.7 212.1 253.7 212.1C253.7 212.1 265.1 197.2 264.6 192.8C264.1 188.4 242.4 216.6 242.4 216.6C242.4 216.6 251.8 196.5 249.4 195.4C247.1 194.3 237.4 217.1 237.4 217.1C237.4 217.1 240.3 204.5 237.4 204.6C234.5 204.7 230.6 217.8 230.6 217.8C230.6 217.8 226.6 203.9 223.9 203.4C221.2 202.9 221.6 211.3 221.6 211.3C221.6 211.3 219.2 204.8 216.7 205.1C214.3 205.5 217.1 214.1 217.1 214.1C217.1 214.1 209.6 201.7 205.4 201.5C201.2 201.3 199.2 214.5 199.2 214.5C199.2 214.5 200.6 201.8 197.8 201.4C195 201 193 215.2 193 215.2C193 215.2 191.6 195.2 186 194.6C180.4 194.1 184.8 209.9 184.8 209.9C184.8 209.9 175.8 203.6 173.6 204.9C171.4 206.2 176.7 218.6 176.7 218.6H262.2V218.7Z" fill="#85CCC6"/>
<path d="M209.5 203.7C209.3 203.7 209.2 203.5 209.2 203.3L212.7 168.1C212.7 167.9 212.9 167.8 213.1 167.8C213.3 167.8 213.4 168 213.4 168.2L209.9 203.4C209.8 203.6 209.7 203.7 209.5 203.7Z" fill="#472938"/>
</g>
<defs>
<clipPath id="clip0_931_2516">
<rect width="309" height="352" fill="white"/>
</clipPath>
</defs>
</svg>
