<svg width="235" height="298" viewBox="0 0 235 298" fill="none" xmlns="http://www.w3.org/2000/svg">
<defs>
<clipPath id="clip0_1287_2617">
<rect width="235" height="298" fill="white"/>
</clipPath>
</defs>
<g clip-path="url(#clip0_1287_2617)">
<path d="M0 191.097C1.25536 205.075 4.83124 218.32 10.604 230.518L31.1843 218.644C27.4087 210.026 24.8885 200.771 23.8329 191.106H0V191.097Z" fill="#63B2BA"/>
<path d="M0 170.501H23.8329C24.879 160.826 27.3992 151.58 31.1843 142.963L10.604 131.089C4.93586 143.277 1.25536 156.522 0 170.501Z" fill="#63B2BA"/>
<path d="M49.6629 84.4124C38.4217 92.2966 28.6641 102.066 20.7896 113.312L41.3699 125.195C47.038 117.52 53.8664 110.693 61.5318 105.008L49.6629 84.4124Z" fill="#63B2BA"/>
<path d="M13.4381 170.501H23.8329C24.879 160.826 27.3992 151.581 31.1843 142.963L21.9498 137.707C17.4324 147.896 14.4842 158.932 13.4381 170.501Z" fill="#569EA6"/>
<path d="M13.5427 191.097C14.7981 202.552 17.8509 213.483 22.4634 223.576L31.1748 218.635C27.3992 210.017 24.879 200.762 23.8234 191.097H13.5427V191.097Z" fill="#569EA6"/>
<path d="M56.0633 95.5532C46.8288 102.276 38.6404 110.484 32.0212 119.834L41.3604 125.195C47.0285 117.52 53.8569 110.693 61.5223 105.009L56.0633 95.5532Z" fill="#569EA6"/>
<path d="M192.755 125.195L213.335 113.321C205.461 102.076 195.694 92.2966 184.462 84.4124L172.603 105.018C180.268 110.684 187.087 117.52 192.755 125.195Z" fill="#D02414"/>
<path d="M210.292 170.501H234.125C232.87 156.522 229.294 143.277 223.521 131.08L202.941 142.954C206.716 151.58 209.237 160.826 210.292 170.501Z" fill="#D02414"/>
<path d="M67.3996 287.488C79.5823 293.163 92.8112 296.743 106.772 298V274.243C97.1099 273.09 87.8753 270.567 79.2685 266.777L67.3996 287.488Z" fill="#D02414"/>
<path d="M41.3699 236.402L20.7896 248.276C28.6641 259.522 38.4312 269.301 49.6629 277.185L61.5223 256.579C53.8569 250.914 47.038 244.077 41.3699 236.402Z" fill="#D02414"/>
<path d="M202.941 218.644L223.521 230.518C229.189 218.32 232.86 205.075 234.125 191.097H210.292C209.237 200.771 206.716 210.026 202.941 218.644Z" fill="#D02414"/>
<path d="M127.353 274.252V298.009C141.314 296.753 154.543 293.172 166.725 287.497L154.866 266.787C146.25 270.567 137.006 273.09 127.353 274.252Z" fill="#D02414"/>
<path d="M172.603 256.589L184.462 277.195C195.694 269.31 205.461 259.531 213.335 248.286L192.755 236.412C187.087 244.077 180.268 250.914 172.603 256.589Z" fill="#D02414"/>
<path d="M127.353 274.252V283.717C138.689 282.67 149.607 279.613 159.583 275.205L154.857 266.797C146.25 270.567 137.006 273.091 127.353 274.252Z" fill="#BA2011"/>
<path d="M74.5419 275.195C84.5182 279.613 95.4361 282.66 106.772 283.708V274.243C97.1099 273.091 87.8754 270.567 79.2685 266.778L74.5419 275.195Z" fill="#BA2011"/>
<path d="M220.687 170.501C219.641 158.941 216.693 147.905 212.185 137.707L202.95 142.963C206.726 151.581 209.246 160.836 210.302 170.501H220.687Z" fill="#BA2011"/>
<path d="M41.3699 236.402L32.8677 241.344C39.4869 250.381 47.5706 258.37 56.7005 264.892L61.5318 256.589C53.857 250.914 47.0381 244.077 41.3699 236.402Z" fill="#BA2011"/>
<path d="M172.603 256.589L177.434 264.892C186.564 258.379 194.648 250.39 201.267 241.344L192.765 236.402C187.087 244.077 180.268 250.914 172.603 256.589Z" fill="#BA2011"/>
<path d="M202.941 218.644L211.652 223.586C216.274 213.493 219.318 202.561 220.573 191.106H210.283C209.237 200.771 206.716 210.027 202.941 218.644Z" fill="#BA2011"/>
<path d="M178.062 95.5532L172.603 105.018C180.268 110.693 187.087 117.53 192.765 125.205L202.113 119.844C195.485 110.474 187.296 102.276 178.062 95.5532Z" fill="#BA2011"/>
<path fill-rule="evenodd" clip-rule="evenodd" d="M93.7527 33.9553C120.21 75.8901 21.7311 172.281 62.8917 232.727C90.3956 273.09 130.396 274.985 161.685 237.564C182.684 212.445 188.352 177.442 178.376 132.136C173.754 142.23 166.516 150.114 155.598 155.056C162.94 102.695 143.52 62.1213 93.7527 33.9553Z" fill="#E83E38"/>
<path fill-rule="evenodd" clip-rule="evenodd" d="M113.277 116.682C131.442 133.393 143.092 158.627 143.092 186.897C143.092 270.358 83.4626 270.358 83.4626 186.897C83.4626 158.617 95.0176 133.393 113.277 116.682Z" fill="#FF8400"/>
<path fill-rule="evenodd" clip-rule="evenodd" d="M70.4429 0C69.0734 32.0605 103.615 49.7238 70.4429 86.0883C40.4188 56.5511 45.5639 22.1767 70.4429 0Z" fill="#E83E38"/>
<path fill-rule="evenodd" clip-rule="evenodd" d="M114.438 169.872C124.205 178.908 130.396 192.468 130.396 207.608C130.396 252.39 98.3748 252.39 98.3748 207.608C98.3748 192.468 104.671 178.908 114.438 169.872Z" fill="#FCC900"/>
</g>
</svg>
