<svg width="192" height="229" viewBox="0 0 192 229" fill="none" xmlns="http://www.w3.org/2000/svg">
<path d="M35.8153 220.49L43.2 207.705C44.723 205.074 48.1384 204.151 50.7692 205.674C53.4 207.197 54.323 210.613 52.8 213.243L45.4153 226.028C43.8923 228.659 40.4769 229.582 37.8461 228.059C35.2153 226.536 34.2923 223.167 35.8153 220.49Z" fill="#474E5D"/>
<path d="M52.8001 213.244C54.3232 210.613 53.4001 207.198 50.7694 205.674C50.2155 205.351 49.6155 205.121 49.0155 205.028C50.4925 206.782 50.8155 209.321 49.6155 211.398L42.2309 224.182C41.0309 226.259 38.6771 227.274 36.4155 226.859C36.8309 227.321 37.2925 227.736 37.8463 228.059C40.4771 229.582 43.8925 228.659 45.4155 226.028L52.8001 213.244Z" fill="#2E3544"/>
<path d="M140.815 42.3357L161.123 7.16652C162.138 5.41267 164.4 4.81267 166.154 5.82806C167.908 6.84344 168.508 9.10498 167.492 10.8588L147.185 46.0281C146.169 47.7819 143.908 48.3819 142.154 47.3665C140.4 46.3511 139.754 44.0896 140.815 42.3357Z" fill="#474E5D"/>
<path d="M167.492 10.859C168.508 9.10514 167.908 6.8436 166.154 5.82821C165.877 5.68975 165.6 5.55129 165.277 5.45898C166.431 6.61283 166.754 8.45898 165.877 9.93591L145.569 45.1051C144.692 46.5821 142.985 47.2744 141.369 46.8128C141.6 47.0436 141.831 47.2282 142.108 47.3667C143.861 48.3821 146.123 47.7821 147.138 46.0282L167.492 10.859Z" fill="#2E3544"/>
<path d="M186.046 59.9666L109.292 15.6589C117.462 1.53586 135.508 -3.3103 149.631 4.85893L175.2 19.6282C189.369 27.7512 194.216 45.7974 186.046 59.9666Z" fill="#FFCA10"/>
<path d="M159.23 10.3513L154.43 7.5821C140.307 -0.540981 122.261 4.30517 114.092 18.4283L118.892 21.1975C127.061 7.0744 145.107 2.22825 159.23 10.3513Z" fill="#FEE79B"/>
<path d="M175.246 19.5818L156.138 8.55103C170.215 16.7203 175.015 34.7664 166.892 48.8433L186.092 59.9203C194.215 45.7972 189.369 27.751 175.246 19.5818Z" fill="#FFA200"/>
<path d="M156.138 220.49L148.754 207.705C147.231 205.074 143.815 204.151 141.184 205.674C138.554 207.197 137.631 210.613 139.154 213.243L146.538 226.028C148.061 228.659 151.477 229.582 154.108 228.059C156.784 226.536 157.661 223.167 156.138 220.49Z" fill="#474E5D"/>
<path d="M139.154 213.244C137.631 210.613 138.554 207.198 141.184 205.674C141.738 205.351 142.338 205.121 142.938 205.028C141.461 206.782 141.138 209.321 142.338 211.398L149.723 224.182C150.923 226.259 153.277 227.274 155.538 226.859C155.123 227.321 154.661 227.736 154.108 228.059C151.477 229.582 148.061 228.659 146.538 226.028L139.154 213.244Z" fill="#2E3544"/>
<path d="M51.1847 42.3357L30.877 7.16652C29.8616 5.41267 27.6 4.81267 25.8462 5.82806C24.0924 6.84344 23.4924 9.10498 24.5077 10.8588L44.8154 46.0281C45.8308 47.7819 48.0924 48.3819 49.8462 47.3665C51.6 46.3973 52.2 44.1357 51.1847 42.3357Z" fill="#474E5D"/>
<path d="M24.5077 10.859C23.4924 9.10514 24.0924 6.8436 25.8462 5.82821C26.1231 5.68975 26.4 5.55129 26.7231 5.45898C25.5693 6.61283 25.2462 8.45898 26.1231 9.93591L46.4308 45.1051C47.3077 46.5821 49.0154 47.2744 50.6308 46.8128C50.4 47.0436 50.1693 47.2282 49.8924 47.3667C48.1385 48.3821 45.877 47.7821 44.8616 46.0282L24.5077 10.859Z" fill="#2E3544"/>
<path d="M5.90778 59.9666L82.6616 15.6589C74.4924 1.53586 56.4462 -3.3103 42.3232 4.85893L16.7539 19.6282C2.63086 27.7512 -2.2153 45.8435 5.90778 59.9666Z" fill="#FFCA10"/>
<path d="M32.7231 10.3975L37.5231 7.62822C51.6462 -0.54101 69.7385 4.30514 77.8616 18.4282L73.0616 21.1975C64.9385 7.07438 46.8462 2.22822 32.7231 10.3975Z" fill="#FEE79B"/>
<path d="M16.7539 19.6282L35.8616 8.59741C21.7847 16.7666 16.9847 34.8128 25.1078 48.8897L5.90778 59.9666C-2.2153 45.8436 2.63086 27.7513 16.7539 19.6282Z" fill="#FFA200"/>
<path d="M97.8461 12.8896H94.1538V32.2743H97.8461V12.8896Z" fill="#2E3544"/>
<path d="M95.9998 20.2744C100.078 20.2744 103.384 16.9682 103.384 12.8897C103.384 8.81133 100.078 5.50513 95.9998 5.50513C91.9214 5.50513 88.6152 8.81133 88.6152 12.8897C88.6152 16.9682 91.9214 20.2744 95.9998 20.2744Z" fill="#474E5D"/>
<path d="M100.2 6.79736C101.031 7.99736 101.538 9.42813 101.538 10.9974C101.538 15.0589 98.2152 18.382 94.1536 18.382C92.5844 18.382 91.1536 17.8743 89.9536 17.0435C91.2921 18.9358 93.5075 20.2281 95.9998 20.2281C100.061 20.2281 103.384 16.9051 103.384 12.8435C103.384 10.3512 102.138 8.13582 100.2 6.79736Z" fill="#2E3544"/>
<path d="M95.9998 7.62813C96.7383 8.3666 96.1383 10.1204 94.7075 11.5512C93.2768 12.982 91.5229 13.582 90.7845 12.8435C90.046 12.1051 90.646 10.3512 92.0768 8.92044C93.5075 7.53583 95.2614 6.93583 95.9998 7.62813Z" fill="#606776"/>
<path d="M96 223.351C149.019 223.351 192 180.371 192 127.351C192 74.332 149.019 31.3513 96 31.3513C42.9807 31.3513 0 74.332 0 127.351C0 180.371 42.9807 223.351 96 223.351Z" fill="#0399AF"/>
<path d="M95.9999 204.89C138.823 204.89 173.538 170.175 173.538 127.351C173.538 84.5279 138.823 49.8127 95.9999 49.8127C53.1766 49.8127 18.4614 84.5279 18.4614 127.351C18.4614 170.175 53.1766 204.89 95.9999 204.89Z" fill="white"/>
<path d="M25.846 134.736C25.846 91.9051 60.5537 57.1974 103.385 57.1974C122.908 57.1974 140.769 64.4435 154.385 76.3512C140.169 60.1051 119.261 49.8127 95.9999 49.8127C53.1691 49.8127 18.4614 84.5204 18.4614 127.351C18.4614 150.659 28.7537 171.52 44.9999 185.736C33.0922 172.074 25.846 154.259 25.846 134.736Z" fill="#E8EBF0"/>
<path d="M98.7695 190.12H96.9233V197.505H98.7695V190.12Z" fill="#474E5D"/>
<path d="M95.0766 190.12H93.2305V197.505H95.0766V190.12Z" fill="#474E5D"/>
<path d="M98.7695 57.1973H96.9233V64.5819H98.7695V57.1973Z" fill="#474E5D"/>
<path d="M95.0766 57.1973H93.2305V64.5819H95.0766V57.1973Z" fill="#474E5D"/>
<path d="M166.154 124.582H158.77V126.428H166.154V124.582Z" fill="#474E5D"/>
<path d="M166.154 128.274H158.77V130.12H166.154V128.274Z" fill="#474E5D"/>
<path d="M33.2308 124.582H25.8462V126.428H33.2308V124.582Z" fill="#474E5D"/>
<path d="M33.2308 128.274H25.8462V130.12H33.2308V128.274Z" fill="#474E5D"/>
<path d="M61.7306 66.1314L60.1318 67.0544L63.8241 73.4495L65.4229 72.5264L61.7306 66.1314Z" fill="#474E5D"/>
<path d="M128.188 181.236L126.589 182.159L130.282 188.554L131.88 187.631L128.188 181.236Z" fill="#474E5D"/>
<path d="M35.7204 91.465L34.7974 93.0637L41.1924 96.756L42.1155 95.1573L35.7204 91.465Z" fill="#474E5D"/>
<path d="M150.83 157.936L149.907 159.534L156.302 163.227L157.225 161.628L150.83 157.936Z" fill="#474E5D"/>
<path d="M41.1885 157.928L34.7935 161.62L35.7165 163.219L42.1116 159.526L41.1885 157.928Z" fill="#474E5D"/>
<path d="M156.294 91.4713L149.899 95.1636L150.822 96.7623L157.217 93.07L156.294 91.4713Z" fill="#474E5D"/>
<path d="M63.8227 181.244L60.1304 187.639L61.7291 188.562L65.4214 182.167L63.8227 181.244Z" fill="#474E5D"/>
<path d="M130.295 66.1342L126.603 72.5293L128.201 73.4524L131.894 67.0573L130.295 66.1342Z" fill="#474E5D"/>
<path d="M94.1536 127.351L94.1074 70.1206L95.9997 68.2744L97.7997 70.1206L97.8459 127.351H94.1536Z" fill="#474E5D"/>
<path d="M98.5847 128.413L69.6 177.151L65.7693 178.12L64.8462 174.29L93.6462 125.874L98.5847 128.413Z" fill="#474E5D"/>
<path d="M95.9998 134.736C100.078 134.736 103.384 131.43 103.384 127.351C103.384 123.273 100.078 119.967 95.9998 119.967C91.9214 119.967 88.6152 123.273 88.6152 127.351C88.6152 131.43 91.9214 134.736 95.9998 134.736Z" fill="#474E5D"/>
<path d="M128.445 69.3231L87.8296 139.669L89.4284 140.592L130.044 70.2462L128.445 69.3231Z" fill="#F93B2A"/>
<path d="M95.9999 131.044C98.0391 131.044 99.6922 129.39 99.6922 127.351C99.6922 125.312 98.0391 123.659 95.9999 123.659C93.9607 123.659 92.3076 125.312 92.3076 127.351C92.3076 129.39 93.9607 131.044 95.9999 131.044Z" fill="#F93B2A"/>
</svg>
