<svg width="50" height="50" viewBox="0 0 50 50" fill="none" xmlns="http://www.w3.org/2000/svg">
<mask id="mask0_326_4777" style="mask-type:alpha" maskUnits="userSpaceOnUse" x="0" y="0" width="50" height="50">
<circle cx="25" cy="25" r="25" fill="#C4C4C4"/>
</mask>
<g mask="url(#mask0_326_4777)">
<path d="M24.3608 60.4272C23.562 60.4287 22.7653 60.3439 21.9845 60.1744C20.6198 59.8932 19.3342 59.3119 18.2205 58.4723C17.1067 57.6328 16.1925 56.556 15.5436 55.3194C15.0287 54.1628 14.6462 52.9513 14.4035 51.7083L14.3475 51.4715C13.5474 48.0529 12.5392 44.4378 10.679 41.1717C10.3789 40.646 10.0509 40.1204 9.73485 39.6148C8.97025 38.4701 8.32288 37.2508 7.8026 35.9756C7.00249 33.7888 7.15051 31.6141 8.24266 30.1817C8.38652 29.9591 8.57371 29.768 8.793 29.6197C9.01229 29.4715 9.25916 29.3692 9.51883 29.319C9.67705 29.2998 9.83752 29.3134 9.99028 29.359C10.1431 29.4045 10.2849 29.481 10.4069 29.5838C10.5022 29.66 10.5803 29.7555 10.6361 29.864C10.692 29.9726 10.7243 30.0918 10.731 30.2138H10.471C10.4647 30.1287 10.4408 30.0459 10.4009 29.9706C10.3609 29.8953 10.3058 29.8291 10.2389 29.7764C10.1439 29.6973 10.0341 29.6381 9.91593 29.6022C9.79775 29.5664 9.6736 29.5547 9.55083 29.5678C9.10013 29.6708 8.70621 29.9438 8.45068 30.3301C7.41454 31.6983 7.25052 33.7728 8.05063 35.8753C8.56651 37.1414 9.20993 38.3514 9.97089 39.4864C10.2869 39.996 10.615 40.5216 10.919 41.0513C12.7833 44.3415 13.8034 47.9767 14.6035 51.4153L14.6595 51.6521C14.8972 52.8746 15.273 54.0659 15.7797 55.2031C16.4102 56.4047 17.2989 57.451 18.3816 58.2663C19.4643 59.0816 20.714 59.6456 22.0405 59.9176C24.7227 60.4508 27.5056 60.0724 29.9496 58.8423C30.9281 58.4049 31.8116 57.7792 32.5499 57.0006C33.301 56.0889 33.8799 55.0473 34.2581 53.9271C34.9262 52.1697 35.4583 50.3159 35.9384 48.5304C36.6785 45.8662 37.4426 43.1096 38.7387 40.6139C39.1388 39.8837 39.5388 39.1654 39.9629 38.4713C40.7569 37.2255 41.4269 35.9044 41.9632 34.5271C42.4232 33.2191 42.4432 32.1196 42.0272 31.3172C41.8811 31.0496 41.6782 30.8174 41.4328 30.6371C41.1874 30.4569 40.9054 30.3329 40.607 30.2739C40.3986 30.2245 40.1816 30.2245 39.9733 30.274C39.765 30.3234 39.571 30.421 39.4068 30.5588L39.2348 30.3622C39.4278 30.1966 39.6567 30.0784 39.9032 30.0171C40.1498 29.9558 40.4072 29.9531 40.655 30.0091C40.9936 30.0792 41.3127 30.2235 41.5893 30.4316C41.8659 30.6396 42.0933 30.9064 42.2552 31.2128C42.7073 32.0956 42.6873 33.2431 42.2032 34.6234C41.6614 36.0181 40.9805 37.3543 40.1709 38.6117C39.7709 39.3059 39.3308 40.0201 38.9708 40.7423C37.6906 43.214 36.9305 45.9585 36.1944 48.6067C35.6943 50.4042 35.1783 52.262 34.5022 54.0274C34.1154 55.1786 33.5215 56.2489 32.7499 57.1852C31.9874 57.9886 31.0754 58.6347 30.0656 59.0871C28.2875 59.9552 26.3383 60.4131 24.3608 60.4272Z" fill="#AB8DA8"/>
<path d="M27.2973 13.7068C27.5041 13.3775 27.6226 13.0002 27.6413 12.6114C27.6639 12.4368 27.648 12.2594 27.5948 12.0916C27.5416 11.9238 27.4523 11.7698 27.3333 11.6404C27.2333 11.5441 27.1092 11.4679 27.0172 11.3635C26.9252 11.2592 26.8812 11.1509 26.8052 11.0506C26.7228 10.9429 26.6168 10.8558 26.4954 10.796C26.3739 10.7361 26.2404 10.7052 26.1051 10.7055C25.8291 10.7055 25.537 10.8339 25.305 10.7055C25.161 10.6333 25.065 10.4888 24.905 10.4086C24.7543 10.3317 24.5816 10.3104 24.4169 10.3484C24.273 10.3987 24.1211 10.4218 23.9688 10.4166C23.7528 10.3845 23.6048 10.1919 23.4128 10.0836C23.314 10.033 23.2055 10.0046 23.0947 10.0005C22.9839 9.99643 22.8736 10.0167 22.7714 10.0599C22.6693 10.1031 22.5778 10.1682 22.5033 10.2506C22.4289 10.333 22.3734 10.4308 22.3406 10.537C22.3145 10.6383 22.3145 10.7446 22.3406 10.8459C22.3846 11.0907 22.5526 11.2873 22.5646 11.5321C22.5766 11.7768 22.4286 11.9895 22.5646 12.2061C22.7007 12.4228 22.9007 12.4308 22.9967 12.6355C23.1247 12.9123 22.9967 13.2734 23.1127 13.5704C23.1727 13.7589 23.2047 14.0278 23.3807 14.1481C23.6248 14.3167 24.1569 14.1762 24.4489 14.1481L25.581 14.0559C26.0811 14.0077 26.6972 14.0559 27.1493 13.8071C27.2038 13.7822 27.2539 13.7483 27.2973 13.7068Z" fill="#3B2645"/>
<path d="M23.4566 13.5301C23.4169 13.4754 23.3649 13.4309 23.3047 13.4002C23.2446 13.3695 23.1781 13.3535 23.1106 13.3535C23.0431 13.3535 22.9766 13.3695 22.9164 13.4002C22.8563 13.4309 22.8043 13.4754 22.7645 13.5301C22.4165 13.9314 23.0046 14.7339 23.4566 14.782C23.4829 14.3651 23.4829 13.947 23.4566 13.5301Z" fill="#E0855C"/>
<path d="M29.0773 20.2513C28.9719 20.9271 28.8303 21.5968 28.6533 22.2575C28.6253 22.3819 28.6013 22.5022 28.5853 22.6186C28.5693 22.735 28.5533 22.8232 28.5333 22.9717C28.5333 22.9998 28.5333 23.0319 28.5333 23.06C28.5333 23.1563 28.5053 23.2566 28.4933 23.3649L27.9892 28.0795C24.8568 28.9422 21.5883 28.0795 21.5883 28.0795C21.5883 28.0795 21.5883 28.0193 21.5883 27.9029C21.5363 27.3693 21.3763 25.672 21.2163 23.7581C21.2163 23.7581 21.2163 23.73 21.2163 23.718C21.2179 23.6886 21.2179 23.6591 21.2163 23.6297C21.1483 22.8272 21.0843 21.9766 21.0323 21.1661C20.9362 19.7577 20.8762 18.4577 20.8882 17.6512C20.8882 17.3543 21.5803 17.3864 22.0524 17.3222C22.4004 17.2741 22.7565 17.242 23.0645 17.2259C23.3726 17.2099 23.6046 17.2018 23.7606 17.2018H23.9366C23.9366 17.2018 23.9767 16.7404 23.9767 16.7364L24.0847 15.6049C24.1372 15.6185 24.1907 15.6279 24.2447 15.633C24.3437 15.6516 24.444 15.6623 24.5447 15.6651C24.6767 15.6651 24.8008 15.6651 24.9168 15.6651L25.0888 15.645H25.1888C25.3008 15.625 25.4088 15.6009 25.5089 15.5728C25.6089 15.5447 25.6409 15.5327 25.7049 15.5126C25.9971 15.4187 26.2746 15.2836 26.529 15.1114L26.565 15.0873L26.633 15.0351L26.681 14.999C26.681 15.0552 26.681 15.0793 26.681 15.1033C26.649 15.3682 26.613 15.7052 26.597 16.0382C26.597 16.271 26.573 16.4997 26.565 16.6963C26.557 16.8929 26.493 17.1778 26.633 17.2781C26.683 17.3062 26.7369 17.3265 26.793 17.3383C27.0126 17.373 27.2349 17.3878 27.4571 17.3824C27.5251 17.3824 27.5931 17.3824 27.6611 17.3824C27.8317 17.3724 28.0027 17.3724 28.1732 17.3824C28.2924 17.3821 28.4104 17.4057 28.5204 17.4518C28.6303 17.498 28.7299 17.5658 28.8133 17.6512C28.917 17.8018 28.9829 17.9752 29.0053 18.1568L29.0533 18.4858C29.1295 19.0714 29.1375 19.6638 29.0773 20.2513Z" fill="#FFEDE5"/>
<path d="M26.665 14.9707C26.6109 15.2579 26.4941 15.5294 26.3228 15.7659C26.1516 16.0023 25.9303 16.1978 25.6748 16.3382C25.4192 16.4786 25.1359 16.5605 24.845 16.578C24.5542 16.5954 24.2631 16.5481 23.9927 16.4392L24.0687 15.6087C24.5217 15.6963 24.9883 15.6847 25.4365 15.5746C25.8846 15.4645 26.3037 15.2585 26.665 14.9707Z" fill="#E0855C"/>
<path d="M23.5367 12.3265C23.3047 12.5672 23.2847 13.1049 23.2687 13.6987C23.2087 15.5043 23.7488 16.066 24.6649 16.1664C25.581 16.2667 26.5451 15.9096 26.7412 14.2404C26.8412 13.4018 26.9452 12.6354 26.6411 12.2703C26.2051 11.7326 24.2408 11.5882 23.5367 12.3265Z" fill="#FFEDE5"/>
<path d="M26.6053 13.9958C26.6053 13.9958 26.8853 13.2495 27.3294 13.6467C27.7735 14.044 27.1614 15.1715 26.4813 15.0872C26.4893 15.0872 26.3973 14.2526 26.6053 13.9958Z" fill="#FFEDE5"/>
<path d="M27.1333 13.9878C27.0283 14.0207 26.9343 14.0818 26.8613 14.1644C26.7787 14.2336 26.7118 14.3198 26.6653 14.4171C26.6653 14.4452 26.6933 14.4653 26.7133 14.4452C26.7697 14.3892 26.8231 14.3303 26.8733 14.2687C26.9098 14.309 26.9549 14.3406 27.0053 14.361C27.0453 14.361 27.0773 14.3249 27.0613 14.2928C27.0336 14.2503 26.9967 14.2146 26.9533 14.1884C27.028 14.1405 27.0989 14.0868 27.1653 14.0279C27.1666 14.0231 27.1667 14.0181 27.1657 14.0132C27.1646 14.0083 27.1625 14.0037 27.1594 13.9998C27.1562 13.9959 27.1523 13.9928 27.1478 13.9907C27.1433 13.9887 27.1383 13.9877 27.1333 13.9878Z" fill="#E0855C"/>
<path d="M24.0569 13.6585C24.0569 13.6585 23.9009 13.7147 23.9249 13.4379C23.9489 13.161 24.0569 13.2252 24.0569 13.2252C24.0569 13.2252 24.1649 13.2252 24.1489 13.4419C24.1329 13.6585 24.0569 13.6585 24.0569 13.6585Z" fill="#3B2645"/>
<path d="M25.6289 13.6585C25.6289 13.6585 25.4769 13.7147 25.5009 13.4379C25.5249 13.161 25.6289 13.2252 25.6289 13.2252C25.6289 13.2252 25.7369 13.2252 25.7209 13.4419C25.7049 13.6585 25.6289 13.6585 25.6289 13.6585Z" fill="#3B2645"/>
<path d="M24.2249 12.8202C24.162 12.7845 24.0895 12.7695 24.0177 12.7775C23.9459 12.7854 23.8784 12.8158 23.8248 12.8643C23.8221 12.8698 23.8208 12.8759 23.8211 12.882C23.8214 12.8881 23.8232 12.8941 23.8264 12.8993C23.8296 12.9045 23.8341 12.9088 23.8394 12.9118C23.8447 12.9148 23.8507 12.9164 23.8568 12.9165C23.9128 12.9165 23.9608 12.8844 24.0168 12.8804C24.0755 12.8776 24.1341 12.8871 24.1888 12.9085C24.2409 12.9245 24.2769 12.8443 24.2249 12.8202Z" fill="#3B2645"/>
<path d="M25.865 12.9566C25.801 12.7961 25.5249 12.7841 25.4049 12.8804C25.3991 12.8849 25.3944 12.8907 25.3912 12.8973C25.3879 12.9039 25.3862 12.9111 25.3862 12.9185C25.3862 12.9259 25.3879 12.9331 25.3912 12.9397C25.3944 12.9463 25.3991 12.9521 25.4049 12.9566C25.4768 12.9626 25.5491 12.9626 25.6209 12.9566C25.6791 12.966 25.7357 12.9836 25.789 13.0088C25.7959 13.0189 25.8065 13.0258 25.8185 13.0281C25.8305 13.0304 25.8429 13.0277 25.853 13.0208C25.863 13.0139 25.87 13.0033 25.8722 12.9912C25.8745 12.9792 25.8719 12.9667 25.865 12.9566Z" fill="#3B2645"/>
<path d="M24.3728 14.9507C24.7103 14.9951 25.0533 14.9364 25.3569 14.7822C25.3115 14.8893 25.2443 14.9857 25.1595 15.0651C25.0748 15.1446 24.9744 15.2054 24.8649 15.2437C24.5168 15.34 24.3728 14.9507 24.3728 14.9507Z" fill="white"/>
<path d="M22.3525 17.6468C23.2726 18.2928 23.3566 19.5487 22.9086 20.5518C22.6045 21.2219 22.0404 21.6913 21.7084 22.3253C21.3624 22.9401 20.9606 23.5217 20.5082 24.0626C19.5161 25.3266 18.572 26.4701 18.2079 26.9034C16.9558 28.4041 14.3234 30.3862 13.3753 31.0763C13.1593 31.2368 13.0312 31.3251 13.0312 31.3251C13.0312 31.3251 12.1231 30.8476 12.3631 29.9649C12.3631 29.9649 15.9636 26.129 16.4957 25.3466C17.0837 24.3296 17.6178 23.2823 18.0959 22.2089C18.7093 21.0186 19.3481 19.8443 20.0122 18.686C20.3162 18.1524 20.7043 17.4823 21.3724 17.3619C21.642 17.3315 21.9142 17.3892 22.1485 17.5264C22.2192 17.5616 22.2874 17.6018 22.3525 17.6468Z" fill="#FFEDE5"/>
<path d="M12.3633 29.9691C12.4618 29.9615 12.5608 29.9615 12.6593 29.9691C12.6593 29.9691 13.5234 30.4506 13.3754 31.0765C13.3754 31.0765 13.2834 31.1608 13.1394 31.2892C12.9953 31.4176 12.8393 31.57 12.6513 31.7626C12.4633 31.9552 12.0352 32.5651 11.8512 32.5129C11.8083 32.4971 11.7708 32.4692 11.7432 32.4327L11.3711 32.0315C11.1631 31.7987 10.815 31.4055 11.0791 31.0966C10.8871 31.2129 10.439 31.4978 10.219 31.3614L10.127 31.2129C10.127 31.2129 10.787 30.7194 11.0591 30.4746C11.4261 30.166 11.8847 29.9882 12.3633 29.9691Z" fill="#FFEDE5"/>
<path d="M23.4446 23.7939C23.4433 23.8153 23.4433 23.8368 23.4446 23.8581C23.4446 23.8581 23.4806 23.8581 23.4726 23.8581L23.4446 23.7939Z" fill="#D6BED3"/>
<path d="M24.929 36.7984C24.561 39.7555 24.1289 42.3275 24.1289 42.3275C24.1889 43.0417 24.2169 43.8161 24.2169 44.6105C24.2169 46.1674 24.1129 47.8205 23.9809 49.277C23.8129 51.1347 23.5808 52.7156 23.4808 53.5101V53.6104C23.6289 58.8787 22.1327 59.5768 21.4326 58.4253C20.7325 57.2737 21.4326 53.8792 21.4326 53.8792C21.4348 53.8485 21.4348 53.8177 21.4326 53.7869C21.138 52.2105 20.9416 50.6171 20.8445 49.0162C20.6044 45.1402 21.0165 42.488 20.9685 42.0065C20.1324 33.5804 21.3005 28.934 21.3005 28.934C21.4829 28.2589 21.8122 27.6327 22.2647 27.1004C23.1168 26.1775 24.1409 26.4102 24.785 27.5377C24.8527 27.6533 24.9142 27.7726 24.969 27.8948C25.2315 28.5424 25.3804 29.2307 25.4091 29.9291C25.4731 31.6745 25.2291 34.3669 24.929 36.7984Z" fill="#FFEDE5"/>
<path d="M29.0616 48.8114C28.9685 50.4457 28.7735 52.0726 28.4775 53.6824L28.4415 53.879C28.4415 53.879 29.1416 57.2856 28.4415 58.4251C27.7414 59.5646 26.2612 58.8986 26.3932 53.6824C26.3932 53.6583 26.3932 53.6343 26.3932 53.6142C26.2812 52.8599 26.0572 51.2268 25.8811 49.2928C25.7451 47.8243 25.6411 46.1792 25.6411 44.6224C25.6411 43.8199 25.6731 43.0495 25.7331 42.3313C25.7331 42.3313 25.2891 39.7594 24.933 36.8062C24.633 34.3707 24.385 31.6783 24.489 29.949C24.5189 29.2503 24.6691 28.562 24.933 27.9147C24.9854 27.7887 25.0469 27.6666 25.117 27.5496C25.8571 26.2616 27.0893 26.1492 27.9974 27.6017C28.2576 28.0228 28.462 28.476 28.6055 28.9499C28.6055 28.9499 29.7737 33.5842 28.9376 42.0224C28.8775 42.4958 29.2736 45.0557 29.0616 48.8114Z" fill="#FFEDE5"/>
<path d="M12.2672 32.5734C12.3469 32.6659 12.4459 32.7398 12.5572 32.7897C12.6685 32.8396 12.7893 32.8644 12.9112 32.8623C12.9671 32.8492 13.0197 32.825 13.0659 32.791C13.1122 32.757 13.1511 32.7139 13.1802 32.6644C13.2094 32.6149 13.2282 32.56 13.2356 32.5029C13.243 32.4459 13.2388 32.388 13.2233 32.3326C13.1768 32.2106 13.1012 32.1018 13.0033 32.0157C12.3992 31.4138 11.7791 30.8119 11.151 30.2542C11.0461 30.1355 10.9058 30.0539 10.751 30.0215C10.607 30.0214 10.4676 30.0726 10.3578 30.1659C10.2479 30.2592 10.1746 30.3886 10.1509 30.5311C10.1509 30.7879 10.3709 30.8842 10.5509 31.0286C11.119 31.5342 11.6871 32.0638 12.2672 32.5734Z" fill="#3B2645"/>
<path d="M12.1791 31.8627C12.204 31.837 12.2243 31.8071 12.2391 31.7745C12.2493 31.733 12.2499 31.6898 12.2409 31.6481C12.2318 31.6063 12.2135 31.5672 12.1871 31.5337C12.0391 31.289 11.7351 30.8957 11.435 30.8596C11.336 30.8546 11.2373 30.8756 11.1489 30.9207C11.0605 30.9657 10.9853 31.0332 10.931 31.1164C10.8412 31.246 10.7841 31.3954 10.7646 31.552C10.7451 31.7085 10.7637 31.8675 10.819 32.0152C10.9068 32.2809 11.0871 32.506 11.327 32.6492C11.4467 32.7 11.5814 32.7026 11.7029 32.6562C11.8244 32.6098 11.9234 32.5182 11.9791 32.4004C12.0391 32.2519 12.0191 32.0714 12.1151 31.947C12.1333 31.9166 12.1548 31.8884 12.1791 31.8627Z" fill="#FFEDE5"/>
<path d="M27.4893 17.6472C26.5651 18.2932 26.4811 19.549 26.9332 20.5521C27.2332 21.2222 27.7973 21.6917 28.1333 22.3256C28.4822 22.9387 28.8838 23.52 29.3335 24.063C30.3256 25.3269 31.2738 26.4705 31.6338 26.9038C32.89 28.4125 35.5223 30.3866 36.4705 31.0767L36.8185 31.3255C36.8185 31.3255 37.7226 30.848 37.4826 29.9653C37.4826 29.9653 33.8821 26.1294 33.35 25.347C32.7605 24.3309 32.2263 23.2834 31.7498 22.2093C31.1338 21.0055 30.4977 19.846 29.8296 18.6864C29.5255 18.1527 29.1415 17.4826 28.4694 17.3623C28.1998 17.3322 27.9277 17.3899 27.6933 17.5268C27.6224 17.5618 27.5542 17.602 27.4893 17.6472Z" fill="#FFEDE5"/>
<path d="M37.4785 29.969C37.3786 29.9615 37.2783 29.9615 37.1785 29.969C37.1785 29.969 36.3143 30.4505 36.4624 31.0765C36.4624 31.0765 36.5584 31.1607 36.6984 31.2891C36.8384 31.4175 37.0024 31.57 37.1865 31.7626C37.3705 31.9552 37.8065 32.5651 37.9866 32.5129C38.0289 32.4959 38.0661 32.4683 38.0946 32.4327L38.4626 32.0314C38.6747 31.7987 39.0187 31.4055 38.7587 31.0965C38.9467 31.2129 39.3948 31.4978 39.6188 31.3613L39.6948 31.2129C39.6948 31.2129 39.0347 30.7194 38.7587 30.4746C38.3987 30.1699 37.9489 29.9922 37.4785 29.969Z" fill="#FFEDE5"/>
<path d="M37.5706 32.5734C37.4909 32.666 37.3919 32.7398 37.2806 32.7898C37.1693 32.8397 37.0484 32.8645 36.9265 32.8623C36.87 32.8502 36.8165 32.8266 36.7694 32.793C36.7222 32.7594 36.6824 32.7165 36.6525 32.6668C36.6225 32.6172 36.6029 32.562 36.595 32.5045C36.5871 32.4471 36.591 32.3886 36.6065 32.3327C36.6564 32.216 36.7332 32.1129 36.8305 32.0318C37.4359 31.4299 38.0547 30.8428 38.6868 30.2703C38.7912 30.151 38.9317 30.0692 39.0868 30.0376C39.2303 30.0377 39.3691 30.089 39.4784 30.1824C39.5876 30.2757 39.6601 30.4051 39.6829 30.5472C39.6829 30.804 39.4669 30.9003 39.2829 31.0447C38.7188 31.5342 38.1507 32.0639 37.5706 32.5734Z" fill="#3B2645"/>
<path d="M37.6627 31.8627C37.6354 31.8382 37.6136 31.8081 37.5987 31.7745C37.5902 31.7326 37.5909 31.6895 37.6005 31.648C37.6102 31.6064 37.6287 31.5674 37.6547 31.5337C37.7987 31.289 38.1027 30.8957 38.4028 30.8596C38.5018 30.8546 38.6005 30.8756 38.6889 30.9207C38.7774 30.9657 38.8525 31.0332 38.9069 31.1164C38.9956 31.2466 39.0512 31.3966 39.0686 31.5533C39.086 31.71 39.0648 31.8686 39.0069 32.0152C38.9217 32.2824 38.7407 32.5083 38.4988 32.6492C38.3791 32.7 38.2444 32.7026 38.1229 32.6562C38.0014 32.6098 37.9024 32.5182 37.8467 32.4004C37.7907 32.2519 37.8107 32.0714 37.7107 31.947L37.6627 31.8627Z" fill="#FFEDE5"/>
<path d="M29.1215 46.2393V46.6405C29.1215 46.9094 29.1215 47.1862 29.1215 47.4711V47.7961C29.1215 48.1251 29.0975 48.4662 29.0815 48.8153C28.0457 49.1019 26.9792 49.2622 25.9051 49.2927C25.8611 48.8434 25.773 47.6477 25.769 47.5153C25.769 47.2424 25.709 46.472 25.705 46.3677C25.681 45.7819 25.665 45.1961 25.665 44.6223C25.665 43.876 25.693 43.1457 25.749 42.4676C25.749 42.4195 25.749 42.3754 25.749 42.3312C25.749 42.2871 25.305 39.7633 24.9489 36.8061C24.9089 37.1191 24.8689 37.4321 24.8289 37.733C24.4929 40.2769 24.1368 42.3312 24.1368 42.3312C24.1968 43.0454 24.2248 43.8198 24.2248 44.6143C24.2248 45.2202 24.2248 45.818 24.1808 46.452C24.1808 46.5563 24.1008 47.8964 24.0888 48.0248C24.0608 48.4542 24.0248 48.8755 23.9888 49.2807C23.4287 49.2566 22.8767 49.2205 22.3286 49.1724C21.8965 49.1363 21.3525 49.1122 20.8244 49.036C20.8004 48.6748 20.7844 48.3298 20.7724 47.9927C20.7724 47.9085 20.7724 47.8242 20.7724 47.7399C20.7724 47.3708 20.7724 47.0217 20.7724 46.6847V46.4199C20.7724 43.9883 21.0084 42.3874 20.9724 42.0062C20.1363 33.5801 21.3044 28.9338 21.3044 28.9338C21.4868 28.2586 21.8161 27.6324 22.2686 27.1001C22.6115 27.1534 22.948 27.2421 23.2727 27.3649C23.7673 27.4945 24.2779 27.5526 24.7889 27.5375H25.157C25.601 27.5375 26.0451 27.4853 26.4851 27.4733H26.7812C27.203 27.467 27.6243 27.5073 28.0374 27.5936C28.2842 28.0192 28.4752 28.4751 28.6054 28.9498C28.9286 30.4643 29.1187 32.0043 29.1735 33.5521C29.309 36.3774 29.2301 39.2089 28.9375 42.0223C28.8895 42.3794 29.1015 43.9081 29.1215 46.2393Z" fill="#3B2645"/>
<path d="M13.0874 17.1694C13.0874 17.1453 13.0394 17.1453 13.0354 17.1694C12.8354 18.5377 12.9514 19.9781 12.9514 21.3784C12.9514 22.859 12.9034 24.3516 12.9914 25.8282C12.9952 25.844 13.0042 25.858 13.0169 25.868C13.0296 25.8781 13.0453 25.8835 13.0614 25.8835C13.0776 25.8835 13.0933 25.8781 13.106 25.868C13.1187 25.858 13.1277 25.844 13.1315 25.8282C13.2155 24.3516 13.1675 22.859 13.1675 21.3784C13.1675 20.0102 13.2835 18.5497 13.0874 17.1694Z" fill="#F7F8F8"/>
<path d="M14.8356 17.635C14.8313 17.6153 14.8205 17.5976 14.8048 17.585C14.7892 17.5723 14.7697 17.5654 14.7496 17.5654C14.7295 17.5654 14.71 17.5723 14.6943 17.585C14.6787 17.5976 14.6678 17.6153 14.6636 17.635C14.6636 18.9511 14.5795 20.2912 14.6636 21.6033C14.6636 21.6256 14.6724 21.647 14.6882 21.6629C14.7039 21.6787 14.7253 21.6875 14.7476 21.6875C14.7699 21.6875 14.7912 21.6787 14.807 21.6629C14.8227 21.647 14.8316 21.6256 14.8316 21.6033C14.9236 20.2912 14.8436 18.9511 14.8356 17.635Z" fill="#F7F8F8"/>
<path d="M32.7219 31.4134C32.7186 31.4015 32.7116 31.391 32.7018 31.3836C32.6921 31.3761 32.6802 31.3721 32.6679 31.3721C32.6556 31.3721 32.6437 31.3761 32.6339 31.3836C32.6242 31.391 32.6171 31.4015 32.6139 31.4134C32.5012 33.1363 32.4785 34.864 32.5459 36.5894C32.5459 38.3147 32.5459 40.036 32.6099 41.7614C32.6133 41.7742 32.6208 41.7856 32.6313 41.7937C32.6418 41.8018 32.6546 41.8062 32.6679 41.8062C32.6811 41.8062 32.694 41.8018 32.7045 41.7937C32.715 41.7856 32.7225 41.7742 32.7259 41.7614C32.7819 40.036 32.7819 38.3147 32.7899 36.5894C32.8553 34.864 32.8326 33.1364 32.7219 31.4134Z" fill="#F7F8F8"/>
<path d="M35.8064 21.3223C35.794 20.1742 35.7192 19.0277 35.5824 17.8877C35.5824 17.8195 35.4744 17.8396 35.4704 17.8877C35.4395 19.1206 35.4756 20.3542 35.5784 21.5831C35.6304 22.7267 35.6184 23.8983 35.7704 25.0298C35.7704 25.1341 35.9465 25.102 35.9505 25.0057C36.0065 23.7819 35.8784 22.5341 35.8064 21.3223Z" fill="#F7F8F8"/>
<path d="M36.6065 21.9602C36.6037 21.9512 36.5982 21.9434 36.5906 21.9378C36.583 21.9322 36.5739 21.9292 36.5645 21.9292C36.5551 21.9292 36.546 21.9322 36.5385 21.9378C36.5309 21.9434 36.5253 21.9512 36.5225 21.9602C36.4165 23.6087 36.4085 25.262 36.4985 26.9115C36.496 26.9215 36.4959 26.932 36.498 26.9422C36.5002 26.9523 36.5046 26.9618 36.511 26.9699C36.5173 26.9781 36.5255 26.9847 36.5347 26.9892C36.544 26.9938 36.5542 26.9961 36.5645 26.9961C36.5748 26.9961 36.585 26.9938 36.5943 26.9892C36.6036 26.9847 36.6117 26.9781 36.6181 26.9699C36.6245 26.9618 36.6289 26.9523 36.631 26.9422C36.6332 26.932 36.633 26.9215 36.6305 26.9115C36.7205 25.262 36.7125 23.6087 36.6065 21.9602Z" fill="#F7F8F8"/>
<path d="M24.8088 37.7291C24.8149 37.4167 24.8552 37.1059 24.9289 36.8022C24.8888 37.1152 24.8488 37.4282 24.8088 37.7291Z" fill="#291B30"/>
<path d="M29.1615 33.5521C28.6215 30.298 24.1609 30.1455 24.1609 30.1455C23.8848 28.8054 25.6851 28.4041 25.6851 28.4041L26.7372 27.4933C27.1591 27.487 27.5803 27.5274 27.9934 27.6137C28.254 28.0307 28.4597 28.4798 28.6055 28.9498C28.922 30.4651 29.1081 32.0048 29.1615 33.5521Z" fill="#291B30"/>
<path d="M28.6695 29.2992C25.069 30.9965 21.1565 29.4396 21.1565 29.4396C21.4405 28.6372 21.2285 24.5445 21.2085 23.7661C21.2085 23.7661 21.2085 23.738 21.2085 23.726C21.2101 23.6966 21.2101 23.6671 21.2085 23.6377C21.9646 21.8803 22.0486 18.4938 22.0526 17.3302C22.3927 17.278 22.7487 17.2499 23.0567 17.2339C23.1768 18.5339 23.6048 21.8682 24.797 21.7238C25.9891 21.5793 26.5572 18.6101 26.7652 17.3101C26.9846 17.347 27.2071 17.3618 27.4293 17.3543C27.4973 17.3543 27.5654 17.3543 27.6334 17.3543C27.5293 19.1318 28.5135 22.8673 28.5415 22.9716C28.5415 22.9997 28.5415 23.0318 28.5415 23.0599C28.5415 23.1562 28.5135 23.2565 28.5015 23.3649C28.5015 23.3649 28.5015 23.409 28.5015 23.4331C28.2494 25.6961 28.6695 29.2992 28.6695 29.2992Z" fill="#AB8DA8"/>
</g>
</svg>
