<svg width="50" height="50" viewBox="0 0 50 50" fill="none" xmlns="http://www.w3.org/2000/svg">
<mask id="mask0_326_4836" style="mask-type:alpha" maskUnits="userSpaceOnUse" x="0" y="0" width="50" height="50">
<circle cx="25" cy="25" r="25" fill="#C4C4C4"/>
</mask>
<g mask="url(#mask0_326_4836)">
<path d="M33.0843 15.2443C33.0843 15.2443 33.0843 15.4051 33.0602 15.6786C32.9838 16.8489 32.7224 20.1427 32.1231 22.0169C31.9542 22.5397 31.4274 23.7744 30.808 25.1739C29.8991 27.2733 28.7891 29.6863 28.3668 30.7521C28.2301 31.098 26.9029 30.4424 26.549 30.3781C25.6562 30.2051 25.5476 28.6125 25.8371 27.2733C25.9309 26.8045 26.1021 26.3546 26.3439 25.9421L26.4203 25.8255L26.4726 25.749C26.9632 25.0332 27.7636 24.1082 28.4834 23.2676C29.0161 22.6865 29.4891 22.0532 29.8951 21.3774C30.2973 20.5208 31.5882 15.3931 31.5882 15.3931C32.1955 14.7335 33.0843 15.2443 33.0843 15.2443Z" fill="#FFEDE5"/>
<path d="M33.2534 14.6895C33.2091 14.8825 33.1729 15.0675 33.1448 15.2163C33.0925 15.4898 33.0684 15.6708 33.0684 15.6708C32.6179 16.1413 31.7412 15.6708 31.7412 15.6708C31.6815 15.5903 31.6277 15.5057 31.5803 15.4174C31.3387 15.0021 31.2425 14.5181 31.3068 14.042C31.3712 13.676 31.4355 12.8354 31.4355 12.8354H31.5964C31.7653 12.8354 31.8176 13.3583 31.8297 13.6036C31.8328 13.637 31.8328 13.6707 31.8297 13.7041C31.8389 13.6609 31.8567 13.6198 31.8819 13.5835C31.9355 13.5187 32.0043 13.4682 32.0823 13.4366C32.1602 13.405 32.2448 13.3933 32.3284 13.4025C32.5335 13.4025 32.7305 13.4025 32.9397 13.4025C33.0339 13.4005 33.1274 13.4197 33.2131 13.4588C33.2438 13.4714 33.2712 13.4907 33.2936 13.5151C33.563 13.7886 33.3257 14.4039 33.2534 14.6895Z" fill="#FFEDE5"/>
<path d="M33.2533 14.6895C33.2091 14.8826 33.1729 15.0676 33.1447 15.2164C33.1132 15.1684 33.0782 15.1227 33.0402 15.0796C32.8627 14.9074 32.6538 14.7709 32.4249 14.6775C32.1675 14.5407 31.4596 14.1385 31.6768 13.7323C31.7137 13.6769 31.7672 13.6347 31.8296 13.6117L31.89 13.5916C32.2228 13.5414 32.5588 13.5146 32.8954 13.5112C33.004 13.5112 33.1126 13.475 33.2212 13.4629C33.2512 13.4765 33.2785 13.4956 33.3016 13.5192C33.563 13.7887 33.3257 14.404 33.2533 14.6895Z" fill="#E0855C"/>
<path d="M27.1121 22.2665C27.2441 21.5103 27.4295 20.7644 27.6671 20.0345C27.6965 19.9559 27.7053 19.871 27.6926 19.788C27.6798 19.7051 27.646 19.6267 27.5944 19.5606C27.5427 19.4944 27.4749 19.4426 27.3975 19.4101C27.3201 19.3776 27.2357 19.3655 27.1523 19.3749C26.9804 19.405 26.8129 19.4563 26.6536 19.5277C26.6536 19.5277 27.0558 18.3695 26.4887 17.9874C25.9216 17.6053 25.0811 18.3373 24.7553 18.8843C24.8184 18.7673 24.836 18.6312 24.8049 18.502C24.7737 18.3729 24.6959 18.2598 24.5864 18.1845C24.1843 17.9271 22.3865 19.9098 22.7404 21.5386C23.0944 23.1674 23.2432 22.7089 23.2432 22.7089C23.2432 22.7089 26.9995 22.4757 27.1121 22.2665Z" fill="#3B2645"/>
<path d="M23.1426 22.0047C23.1026 21.9498 23.0503 21.9052 22.9898 21.8744C22.9294 21.8437 22.8625 21.8276 22.7947 21.8276C22.7268 21.8276 22.66 21.8437 22.5995 21.8744C22.5391 21.9052 22.4867 21.9498 22.4468 22.0047C22.0969 22.4068 22.6921 23.2112 23.1426 23.2594C23.169 22.8416 23.169 22.4225 23.1426 22.0047Z" fill="#E0855C"/>
<path d="M29.6296 26.8712C29.0958 28.1322 28.6732 29.4376 28.3668 30.7723C28.3426 30.9009 28.3185 31.0216 28.2984 31.1382C28.1657 31.9426 27.7635 35.908 27.6992 36.5314C27.6992 36.5837 27.6992 36.6118 27.6992 36.6118C24.5501 37.4805 21.2644 36.6118 21.2644 36.6118C21.2644 36.6118 21.2644 36.5515 21.2644 36.4349C21.192 35.6627 20.8823 32.4574 20.6973 29.6864C20.6008 28.2707 20.5405 26.9717 20.5565 26.1633C20.5565 25.8657 21.2483 25.8979 21.7228 25.8295C22.2925 25.7564 22.8659 25.7161 23.4401 25.7089H23.6171L23.6573 25.2464L23.6895 24.9367L23.7659 24.1082C23.8182 24.1082 23.8705 24.1283 23.9227 24.1324C24.0237 24.1509 24.1258 24.1616 24.2284 24.1645C24.3529 24.1747 24.4779 24.1747 24.6024 24.1645L24.7794 24.1444C24.8577 24.1366 24.9356 24.1245 25.0126 24.1082C25.1413 24.0801 25.266 24.0439 25.3826 24.0077L25.4872 23.9715H25.5153L25.5958 23.9393C25.7458 23.8796 25.8911 23.8083 26.0301 23.7262C26.1065 23.6819 26.1709 23.6377 26.2232 23.6015L26.2594 23.5774L26.3277 23.5251C26.3468 23.5157 26.3634 23.5019 26.376 23.4849C26.376 23.5452 26.376 23.5693 26.376 23.5975C26.3398 23.8589 26.3036 24.1967 26.2875 24.5345C26.2875 24.7638 26.2634 24.993 26.2553 25.1941C26.2553 25.5359 26.2553 25.7853 26.2553 25.7853C26.3304 25.7813 26.4055 25.7813 26.4806 25.7853C26.4842 25.7832 26.4884 25.7821 26.4926 25.7821C26.4969 25.7821 26.501 25.7832 26.5047 25.7853C26.8326 25.8006 27.1591 25.8383 27.482 25.8979C28.2233 26.0311 28.9362 26.291 29.5894 26.6661C29.6187 26.6903 29.6388 26.724 29.6461 26.7614C29.6535 26.7988 29.6476 26.8376 29.6296 26.8712Z" fill="#FFEDE5"/>
<path d="M26.3682 23.4487C26.3146 23.7369 26.1976 24.0096 26.0255 24.2469C25.8535 24.4842 25.6308 24.6803 25.3736 24.8208C25.1163 24.9614 24.8311 25.0429 24.5384 25.0595C24.2458 25.076 23.9531 25.0273 23.6816 24.9167L23.7581 24.0882C24.2135 24.176 24.6826 24.1644 25.1331 24.054C25.5836 23.9436 26.0049 23.7372 26.3682 23.4487Z" fill="#E0855C"/>
<path d="M23.2432 20.7983C23.01 21.0356 22.9939 21.5785 22.9738 22.1737C22.9135 23.9795 23.4564 24.5466 24.3774 24.6431C25.2984 24.7396 26.2676 24.3897 26.4647 22.7127C26.5652 21.8761 26.6698 21.104 26.3681 20.738C25.8936 20.1991 23.931 20.0583 23.2432 20.7983Z" fill="#FFEDE5"/>
<path d="M26.3159 22.4715C26.3159 22.4715 26.6014 21.7235 27.0438 22.1216C27.4862 22.5198 26.8628 23.6539 26.1952 23.5654C26.1952 23.5654 26.0987 22.7289 26.3159 22.4715Z" fill="#FFEDE5"/>
<path d="M26.8387 22.4474C26.7346 22.4835 26.6408 22.5442 26.5652 22.6244C26.4832 22.6947 26.4162 22.7809 26.3682 22.8777C26.3682 22.9099 26.3963 22.926 26.4204 22.9099C26.4446 22.8938 26.521 22.7893 26.5773 22.733C26.6115 22.7773 26.6556 22.8131 26.706 22.8375C26.7152 22.839 26.7247 22.838 26.7335 22.8346C26.7422 22.8311 26.7498 22.8254 26.7556 22.818C26.7613 22.8106 26.765 22.8018 26.7662 22.7925C26.7674 22.7832 26.766 22.7737 26.7623 22.7651C26.7343 22.7237 26.6971 22.6893 26.6537 22.6646C26.7289 22.6151 26.8001 22.56 26.8669 22.4997C26.8709 22.4948 26.8733 22.4888 26.8739 22.4824C26.8745 22.4761 26.8732 22.4698 26.8702 22.4642C26.8672 22.4586 26.8626 22.454 26.857 22.451C26.8514 22.4481 26.845 22.4468 26.8387 22.4474Z" fill="#E0855C"/>
<path d="M23.7458 22.1297C23.7458 22.1297 23.589 22.19 23.6131 21.9125C23.6372 21.635 23.7458 21.6993 23.7458 21.6993C23.7458 21.6993 23.8544 21.6993 23.8383 21.9165C23.8223 22.1337 23.7458 22.1297 23.7458 22.1297Z" fill="#3B2645"/>
<path d="M25.3303 22.1297C25.3303 22.1297 25.1735 22.19 25.1976 21.9125C25.2217 21.635 25.3303 21.6993 25.3303 21.6993C25.3303 21.6993 25.4389 21.6993 25.4228 21.9165C25.4067 22.1337 25.3303 22.1297 25.3303 22.1297Z" fill="#3B2645"/>
<path d="M24.4496 22.8694C24.3732 22.8694 24.1923 22.9016 24.152 22.8171C24.1676 22.6253 24.2068 22.4362 24.2687 22.2541C24.343 22.0083 24.4034 21.7586 24.4496 21.506C24.4496 21.506 24.4496 21.4859 24.4215 21.506C24.2625 21.9435 24.1375 22.3926 24.0475 22.8493C24.0463 22.8549 24.0464 22.8606 24.0476 22.8662C24.0488 22.8718 24.0513 22.877 24.0547 22.8816C24.0581 22.8861 24.0625 22.8899 24.0675 22.8927C24.0725 22.8954 24.078 22.8971 24.0837 22.8975C24.2003 22.8975 24.3129 22.9217 24.4295 22.9217C24.4858 22.9377 24.4979 22.8734 24.4496 22.8694Z" fill="#E0855C"/>
<path d="M23.9187 21.2928C23.8061 21.2325 23.597 21.2205 23.5165 21.3371C23.5137 21.342 23.5122 21.3476 23.5122 21.3532C23.5122 21.3589 23.5137 21.3645 23.5166 21.3694C23.5194 21.3743 23.5236 21.3783 23.5285 21.3811C23.5334 21.3839 23.539 21.3854 23.5447 21.3853C23.601 21.3853 23.6492 21.3572 23.7055 21.3532C23.7645 21.3504 23.8234 21.3599 23.8785 21.3813C23.9308 21.3974 23.967 21.317 23.9187 21.2928Z" fill="#3B2645"/>
<path d="M25.5637 21.4299C25.4993 21.269 25.2218 21.2529 25.1052 21.3534C25.0984 21.3567 25.0927 21.3619 25.0887 21.3683C25.0846 21.3747 25.0825 21.3821 25.0825 21.3896C25.0825 21.3972 25.0846 21.4046 25.0887 21.411C25.0927 21.4174 25.0984 21.4225 25.1052 21.4258C25.1736 21.45 25.246 21.4258 25.3184 21.4258C25.3768 21.4352 25.4337 21.4528 25.4873 21.4781C25.5396 21.4942 25.5758 21.458 25.5637 21.4299Z" fill="#3B2645"/>
<path d="M24.0476 23.4284C24.393 23.4738 24.7439 23.412 25.053 23.2515C25.0068 23.3584 24.9389 23.4546 24.8538 23.5342C24.7687 23.6138 24.6682 23.675 24.5584 23.714C24.2085 23.8185 24.0476 23.4284 24.0476 23.4284Z" fill="white"/>
<path d="M23.4001 30.3784C23.0542 30.4427 21.4656 30.6197 21.1841 30.3784C20.982 30.1768 20.8149 29.943 20.6894 29.6866C20.0452 28.3298 19.4825 26.9358 19.0043 25.5121C18.4654 23.9918 18.0069 22.5762 17.834 22.0373C17.2106 20.143 16.9693 16.8452 16.8929 15.6749C16.8728 15.4014 16.8647 15.2446 16.8647 15.2446C16.8647 15.2446 17.7455 14.7459 18.3729 15.4014C18.3729 15.4014 19.684 20.5331 20.0701 21.3898C20.3943 21.948 20.7757 22.471 21.2082 22.9502C21.9522 23.843 22.8692 24.8887 23.4322 25.689L23.5368 25.8378L23.6132 25.9545C23.9678 26.5974 24.179 27.3095 24.2326 28.0417C24.3371 29.1517 24.132 30.2376 23.4001 30.3784Z" fill="#FFEDE5"/>
<path d="M18.3727 15.4012C18.3254 15.4894 18.2716 15.5741 18.2119 15.6545C18.2119 15.6545 17.3392 16.1372 16.8928 15.6747C16.8928 15.6747 16.8726 15.55 16.8364 15.3569C16.8003 15.1639 16.76 14.9548 16.6997 14.6893C16.6514 14.4963 16.3378 13.7281 16.4986 13.5914C16.5371 13.5654 16.5812 13.5488 16.6273 13.5431L17.1662 13.4466C17.4759 13.3903 17.9947 13.3059 18.1194 13.696C18.1194 13.4707 18.1194 12.9399 18.3526 12.8232H18.5216C18.5216 12.8232 18.5819 13.6477 18.6462 14.0298C18.7097 14.5046 18.6135 14.987 18.3727 15.4012Z" fill="#FFEDE5"/>
<path d="M20.6492 37.3277C20.6492 37.3277 18.9842 41.82 18.9158 50.3179C18.9158 50.9936 17.6007 55.6709 18.1115 62.2062L20.0701 62.5762C20.0701 62.5762 21.9683 55.6749 22.0528 50.9654C22.0528 50.9654 24.4658 42.6083 24.6307 38.7635C24.7956 34.9187 22.2378 33.672 20.6492 37.3277Z" fill="#FFEDE5"/>
<path d="M28.2382 37.3277C28.2382 37.3277 29.9032 41.82 29.9676 50.3179C29.9676 50.9936 31.2867 55.6709 30.7719 62.2062L28.8134 62.5762C28.8134 62.5762 26.9191 55.6749 26.8306 50.9654C26.8306 50.9654 24.4176 42.6083 24.2527 38.7635C24.0878 34.9187 26.6497 33.672 28.2382 37.3277Z" fill="#FFEDE5"/>
<path d="M30.808 25.1742C29.8991 27.2736 28.7931 29.6866 28.3668 30.7524C28.3426 30.8811 28.3185 31.0017 28.2984 31.1183C28.1657 31.9227 27.7635 35.8881 27.6992 36.5115C26.6093 36.8453 24.3933 37.2394 21.2644 36.415C21.192 35.6428 20.8823 32.4375 20.6973 29.6665C20.0531 28.3097 19.4904 26.9157 19.0122 25.4919C19.7643 25.0174 20.818 24.1688 21.2161 22.9502C21.9601 23.843 22.8771 24.8887 23.4401 25.689H23.5206C23.5206 25.7332 23.5206 25.7855 23.5447 25.8378C23.6451 26.6077 23.8806 27.3538 24.2405 28.0417C24.2925 28.1377 24.3661 28.2203 24.4554 28.283C24.5447 28.3458 24.6473 28.3871 24.7552 28.4037C25.1574 28.4037 25.5395 27.8969 25.8451 27.2856C26.0743 26.8178 26.2692 26.3339 26.4283 25.8378L26.4564 25.7614C26.4601 25.7593 26.4643 25.7582 26.4685 25.7582C26.4727 25.7582 26.4769 25.7593 26.4806 25.7614C26.9712 25.0455 27.7716 24.1205 28.4914 23.28C28.8735 23.8269 29.7905 24.9208 30.808 25.1742Z" fill="#E8CEE5"/>
<path d="M30.056 46.4854C28.9996 47.0356 27.8077 47.2715 26.6214 47.1651C26.2035 47.1295 25.7951 47.0206 25.4149 46.8433L24.4497 41.4542L23.5126 46.8433C21.4776 47.5793 18.6865 46.236 18.6865 46.236C19.5753 37.5209 21.2323 36.2139 21.2323 36.2139C23.963 37.1027 27.7234 36.242 27.7234 36.242C29.6498 38.828 30.056 46.4854 30.056 46.4854Z" fill="#3B2645"/>
<path d="M16.8728 15.3368H16.8366C16.8044 15.1639 16.7602 14.9346 16.6999 14.6692C16.6516 14.4762 16.3419 13.712 16.4988 13.5713C16.5376 13.5459 16.5815 13.5294 16.6275 13.523L17.1664 13.4265C17.3947 13.3683 17.6339 13.3683 17.8622 13.4265C17.9706 13.4769 18.0615 13.5586 18.1231 13.6611C18.1848 13.7636 18.2143 13.8822 18.208 14.0016C18.208 14.7255 17.0618 15.2363 16.8728 15.3368Z" fill="#E0855C"/>
<path d="M38.4493 13.7925H10.2328C10.1686 13.7845 10.1094 13.7533 10.0665 13.7048C10.0237 13.6563 10 13.5938 10 13.529C10 13.4643 10.0237 13.4018 10.0665 13.3533C10.1094 13.3047 10.1686 13.2736 10.2328 13.2656H38.4493C38.5136 13.2736 38.5727 13.3047 38.6156 13.3533C38.6585 13.4018 38.6822 13.4643 38.6822 13.529C38.6822 13.5938 38.6585 13.6563 38.6156 13.7048C38.5727 13.7533 38.5136 13.7845 38.4493 13.7925Z" fill="#3B2645"/>
<path d="M11.1296 14.8784C11.0109 14.8784 10.8969 14.8315 10.8125 14.7479C10.7282 14.6643 10.6803 14.5507 10.6792 14.432V12.6262C10.6792 12.5068 10.7267 12.3922 10.8111 12.3077C10.8956 12.2232 11.0102 12.1758 11.1296 12.1758C11.2491 12.1758 11.3637 12.2232 11.4481 12.3077C11.5326 12.3922 11.5801 12.5068 11.5801 12.6262V14.432C11.5801 14.4909 11.5684 14.5493 11.5457 14.6037C11.523 14.6582 11.4898 14.7076 11.4479 14.7491C11.406 14.7906 11.3563 14.8234 11.3017 14.8456C11.2471 14.8678 11.1886 14.8789 11.1296 14.8784Z" fill="#3B2645"/>
<path d="M12.0225 16.4547C11.9051 16.4547 11.7926 16.408 11.7097 16.3251C11.6267 16.2421 11.5801 16.1296 11.5801 16.0123V11.0494C11.5801 10.931 11.6271 10.8175 11.7108 10.7338C11.7945 10.6501 11.9081 10.603 12.0265 10.603C12.1449 10.603 12.2584 10.6501 12.3422 10.7338C12.4259 10.8175 12.4729 10.931 12.4729 11.0494V16.0123C12.4724 16.0709 12.4603 16.1288 12.4374 16.1828C12.4145 16.2368 12.3811 16.2857 12.3393 16.3268C12.2975 16.3678 12.248 16.4003 12.1936 16.4222C12.1392 16.4442 12.0811 16.4552 12.0225 16.4547Z" fill="#291B30"/>
<path d="M12.9154 17.219C12.797 17.219 12.6835 17.172 12.5997 17.0883C12.516 17.0046 12.469 16.891 12.469 16.7726V10.4464C12.469 10.328 12.516 10.2145 12.5997 10.1308C12.6835 10.047 12.797 10 12.9154 10C13.0338 10 13.1474 10.047 13.2311 10.1308C13.3148 10.2145 13.3618 10.328 13.3618 10.4464V16.7605C13.3634 16.8202 13.3531 16.8795 13.3314 16.9351C13.3097 16.9906 13.277 17.0413 13.2354 17.084C13.1938 17.1268 13.144 17.1607 13.0891 17.1839C13.0341 17.2071 12.9751 17.219 12.9154 17.219Z" fill="#3B2645"/>
<path d="M37.1625 14.8783C37.2809 14.8783 37.3944 14.8312 37.4781 14.7475C37.5619 14.6638 37.6089 14.5503 37.6089 14.4319V12.6261C37.6089 12.5675 37.5973 12.5094 37.5749 12.4553C37.5525 12.4011 37.5196 12.3519 37.4781 12.3104C37.4367 12.269 37.3875 12.2361 37.3333 12.2137C37.2792 12.1912 37.2211 12.1797 37.1625 12.1797C37.1039 12.1797 37.0458 12.1912 36.9916 12.2137C36.9375 12.2361 36.8883 12.269 36.8468 12.3104C36.8054 12.3519 36.7725 12.4011 36.75 12.4553C36.7276 12.5094 36.7161 12.5675 36.7161 12.6261V14.4319C36.7161 14.5503 36.7631 14.6638 36.8468 14.7475C36.9305 14.8312 37.0441 14.8783 37.1625 14.8783Z" fill="#3B2645"/>
<path d="M36.2697 16.4547C36.3874 16.4547 36.5003 16.4082 36.5839 16.3253C36.6675 16.2425 36.715 16.13 36.7161 16.0123V11.0494C36.7161 10.931 36.669 10.8175 36.5853 10.7338C36.5016 10.6501 36.3881 10.603 36.2697 10.603C36.1513 10.603 36.0377 10.6501 35.954 10.7338C35.8703 10.8175 35.8232 10.931 35.8232 11.0494V16.0123C35.8243 16.13 35.8718 16.2425 35.9554 16.3253C36.039 16.4082 36.152 16.4547 36.2697 16.4547Z" fill="#291B30"/>
<path d="M35.3768 17.219C35.4951 17.219 35.6087 17.172 35.6924 17.0883C35.7761 17.0046 35.8232 16.891 35.8232 16.7726V10.4464C35.8232 10.328 35.7761 10.2145 35.6924 10.1308C35.6087 10.047 35.4951 10 35.3768 10C35.2584 10 35.1448 10.047 35.0611 10.1308C34.9774 10.2145 34.9303 10.328 34.9303 10.4464V16.7605C34.9287 16.8202 34.9391 16.8795 34.9608 16.9351C34.9825 16.9906 35.0151 17.0413 35.0567 17.084C35.0984 17.1268 35.1481 17.1607 35.2031 17.1839C35.258 17.2071 35.3171 17.219 35.3768 17.219Z" fill="#3B2645"/>
<path d="M16.8807 14.0983C16.8967 14.1381 16.9214 14.1739 16.9531 14.2029C17.001 14.2345 17.0566 14.2526 17.114 14.2551C17.2927 14.272 17.4729 14.2625 17.6489 14.227C17.8121 14.2052 17.9621 14.1253 18.0711 14.0018C18.128 13.9205 18.1627 13.8259 18.1719 13.7272C18.181 13.6284 18.1643 13.529 18.1234 13.4387C18.0629 13.2965 17.9693 13.1709 17.8504 13.0723C17.7314 12.9736 17.5906 12.9048 17.4397 12.8717C17.1904 12.8154 16.559 12.8395 16.4584 13.1492C16.4061 13.302 16.5549 13.4548 16.6273 13.5755C16.6997 13.6961 16.8083 13.9294 16.8807 14.0983Z" fill="#FFEDE5"/>
<path d="M32.8954 14.0983C32.8794 14.1392 32.8531 14.1752 32.819 14.2029C32.7713 14.2351 32.7156 14.2532 32.6581 14.2551C32.4807 14.2719 32.3018 14.2624 32.1272 14.227C31.9587 14.2072 31.8031 14.1272 31.6889 14.0018C31.6319 13.9205 31.5974 13.8256 31.589 13.7267C31.5805 13.6279 31.5983 13.5285 31.6406 13.4387C31.7007 13.297 31.7937 13.1717 31.9119 13.0731C32.0301 12.9745 32.1701 12.9054 32.3203 12.8717C32.5736 12.8154 33.2051 12.8395 33.3056 13.1492C33.3579 13.302 33.2091 13.4548 33.1367 13.5755C33.0643 13.6961 32.9839 13.9294 32.8954 14.0983Z" fill="#FFEDE5"/>
<path d="M26.6214 47.165C26.2035 47.1294 25.7951 47.0205 25.4149 46.8432L24.4497 41.4541C24.4497 41.4541 25.6562 43.1794 26.6214 47.165Z" fill="#291B30"/>
<path d="M23.1306 32.2925C23.1283 32.3139 23.1283 32.3354 23.1306 32.3568C23.1306 32.3568 23.1668 32.3568 23.1588 32.3568L23.1306 32.2925Z" fill="#D6BED3"/>
<path d="M27.3173 28.13C27.1326 27.5174 27.0073 26.8885 26.9433 26.2518C26.9433 26.2348 26.9365 26.2184 26.9244 26.2063C26.9124 26.1943 26.896 26.1875 26.8789 26.1875C26.8619 26.1875 26.8455 26.1943 26.8334 26.2063C26.8214 26.2184 26.8146 26.2348 26.8146 26.2518C26.6738 27.4141 27.1645 28.8338 27.7758 29.8111C27.7863 29.8259 27.8016 29.8367 27.8192 29.8418C27.8367 29.8468 27.8554 29.8457 27.8722 29.8387C27.8891 29.8317 27.903 29.8191 27.9118 29.8032C27.9206 29.7872 27.9237 29.7687 27.9206 29.7508C27.7677 29.1958 27.4983 28.677 27.3173 28.13Z" fill="#D6BED3"/>
<path d="M22.8892 26.0346C22.5594 26.5534 22.2778 27.1043 21.9481 27.6433C21.6183 28.1822 21.2322 28.6406 20.9426 29.1796C20.9373 29.1865 20.9349 29.1953 20.9361 29.2039C20.9372 29.2126 20.9417 29.2205 20.9487 29.2258C20.9556 29.2311 20.9644 29.2335 20.973 29.2324C20.9817 29.2312 20.9896 29.2267 20.9949 29.2198C21.8656 28.3155 22.549 27.248 23.0058 26.0788C23.0259 26.0144 22.9253 25.9742 22.8892 26.0346Z" fill="#D6BED3"/>
</g>
</svg>
