<svg width="26" height="76" viewBox="0 0 26 76" fill="none" xmlns="http://www.w3.org/2000/svg">
<g clip-path="url(#clip0_326_4063)">
<path d="M22 18.4102H3.85C2.82892 18.4102 1.84965 18.8158 1.12764 19.5378C0.405624 20.2598 0 21.2391 0 22.2602L0 71.2602C-1.49446e-06 71.8388 0.114138 72.4118 0.335884 72.9463C0.55763 73.4808 0.882626 73.9663 1.29226 74.375C1.7019 74.7837 2.18813 75.1076 2.72312 75.3281C3.25811 75.5486 3.83134 75.6615 4.41 75.6602H21.41C22.577 75.6602 23.6961 75.1966 24.5213 74.3714C25.3464 73.5463 25.81 72.4271 25.81 71.2602V22.2602C25.8127 21.2452 25.4134 20.2704 24.6994 19.549C23.9855 18.8275 23.015 18.4181 22 18.4102V18.4102Z" fill="#4292A6"/>
<path d="M22 13.1802H3.54004V18.4102H22V13.1802Z" fill="#333333"/>
<path d="M15.9301 6.87012H9.62011C8.62289 6.87012 7.66652 7.26626 6.96139 7.9714C6.25625 8.67653 5.86011 9.6329 5.86011 10.6301V13.1801H19.6901V10.6301C19.6901 9.6329 19.294 8.67653 18.5888 7.9714C17.8837 7.26626 16.9273 6.87012 15.9301 6.87012Z" fill="#474747"/>
<path d="M12.79 0.000112372C12.5554 -0.00120559 12.3229 0.0438627 12.1058 0.132726C11.8886 0.221589 11.6912 0.352494 11.5249 0.517914C11.3585 0.683333 11.2265 0.880004 11.1364 1.09662C11.0464 1.31323 11 1.54552 11 1.78011V6.87011H14.59V1.78011C14.59 1.54467 14.5433 1.31156 14.4526 1.09428C14.3619 0.877011 14.229 0.679891 14.0616 0.514338C13.8942 0.348786 13.6956 0.218091 13.4773 0.129823C13.259 0.0415548 13.0254 -0.00253308 12.79 0.000112372Z" fill="#474747"/>
<path d="M14.57 5.22998H10.98V6.86998H14.57V5.22998Z" fill="#2E2E2E"/>
<path d="M21.0501 71.7603C20.8457 71.7616 20.6431 71.7225 20.4539 71.6452C20.2647 71.5679 20.0926 71.4539 19.9476 71.3098C19.8026 71.1658 19.6876 70.9945 19.609 70.8057C19.5305 70.617 19.4901 70.4147 19.4901 70.2103V47.7903C19.4729 47.5756 19.5003 47.3596 19.5706 47.1561C19.6409 46.9525 19.7527 46.7657 19.8987 46.6074C20.0448 46.4492 20.2221 46.3228 20.4194 46.2365C20.6167 46.1501 20.8297 46.1055 21.0451 46.1055C21.2605 46.1055 21.4735 46.1501 21.6708 46.2365C21.8681 46.3228 22.0454 46.4492 22.1915 46.6074C22.3375 46.7657 22.4493 46.9525 22.5196 47.1561C22.5899 47.3596 22.6173 47.5756 22.6001 47.7903V70.2103C22.6014 70.4142 22.5623 70.6163 22.4848 70.805C22.4074 70.9936 22.2933 71.165 22.1491 71.3092C22.0049 71.4534 21.8335 71.5676 21.6448 71.645C21.4562 71.7224 21.254 71.7616 21.0501 71.7603Z" fill="white"/>
<path d="M25.85 27.0503H0V41.4703H25.85V27.0503Z" fill="#163138"/>
<path d="M12.6001 29.21H7.32007C4.69672 29.21 2.57007 31.3366 2.57007 33.96V34.05C2.57007 36.6733 4.69672 38.8 7.32007 38.8H12.6001C15.2234 38.8 17.3501 36.6733 17.3501 34.05V33.96C17.3501 31.3366 15.2234 29.21 12.6001 29.21Z" fill="#295C69"/>
<path d="M5.00008 14.1299C4.75608 14.1299 4.52207 14.2269 4.34954 14.3994C4.17701 14.5719 4.08008 14.8059 4.08008 15.0499V18.4099H5.93008V15.0499C5.93009 14.9283 5.90596 14.8078 5.8591 14.6955C5.81224 14.5833 5.74358 14.4814 5.65709 14.3958C5.5706 14.3103 5.468 14.2427 5.35522 14.1971C5.24244 14.1514 5.12173 14.1286 5.00008 14.1299Z" fill="#212121"/>
<path d="M8.11995 14.1299C7.87595 14.1299 7.64195 14.2268 7.46941 14.3993C7.29688 14.5719 7.19995 14.8059 7.19995 15.0499V18.4099H8.99995V15.0499C9.00018 14.8127 8.90876 14.5845 8.74478 14.4131C8.58081 14.2417 8.35695 14.1402 8.11995 14.1299Z" fill="#212121"/>
<path d="M11.2301 14.1301C10.9861 14.1301 10.7521 14.227 10.5795 14.3996C10.407 14.5721 10.3101 14.8061 10.3101 15.0501V18.4101H12.1701V15.0501C12.1701 14.9276 12.1456 14.8063 12.0982 14.6933C12.0507 14.5804 11.9811 14.4781 11.8936 14.3924C11.806 14.3067 11.7022 14.2393 11.5883 14.1943C11.4743 14.1493 11.3525 14.1274 11.2301 14.1301Z" fill="#212121"/>
<path d="M14.3399 14.1301C14.0959 14.1301 13.8619 14.227 13.6894 14.3996C13.5169 14.5721 13.4199 14.8061 13.4199 15.0501V18.4101H15.2799V15.0501C15.28 14.9276 15.2555 14.8063 15.208 14.6933C15.1605 14.5804 15.091 14.4781 15.0034 14.3924C14.9159 14.3067 14.8121 14.2393 14.6981 14.1943C14.5842 14.1493 14.4624 14.1274 14.3399 14.1301Z" fill="#212121"/>
<path d="M17.45 14.1301C17.3292 14.1301 17.2096 14.1539 17.098 14.2001C16.9863 14.2464 16.8849 14.3141 16.7995 14.3996C16.7141 14.485 16.6463 14.5864 16.6001 14.698C16.5538 14.8097 16.53 14.9293 16.53 15.0501V18.4101H18.39V15.0501C18.3901 14.9276 18.3656 14.8063 18.3181 14.6933C18.2707 14.5804 18.2011 14.4781 18.1135 14.3924C18.026 14.3067 17.9222 14.2393 17.8082 14.1943C17.6943 14.1493 17.5725 14.1274 17.45 14.1301Z" fill="#212121"/>
<path d="M20.5599 14.1299C20.4391 14.1299 20.3194 14.1537 20.2078 14.2C20.0962 14.2462 19.9948 14.314 19.9094 14.3994C19.8239 14.4848 19.7562 14.5862 19.7099 14.6979C19.6637 14.8095 19.6399 14.9291 19.6399 15.0499V18.4099H21.4899V15.0499C21.4899 14.9283 21.4658 14.8078 21.4189 14.6955C21.3721 14.5833 21.3034 14.4814 21.2169 14.3958C21.1304 14.3103 21.0278 14.2427 20.915 14.1971C20.8023 14.1514 20.6815 14.1286 20.5599 14.1299Z" fill="#212121"/>
</g>
<defs>
<clipPath id="clip0_326_4063">
<rect width="25.85" height="75.67" fill="white"/>
</clipPath>
</defs>
</svg>
