<svg width="198" height="58" viewBox="0 0 198 58" fill="none" xmlns="http://www.w3.org/2000/svg">
<path d="M1 56.5L8.5 49L13.5 56.5L17 52H19.5L28.5 40.5L31.5 52L34 46H36.5L42 28.5L48.5 46H52.5L54.5 40.5L64 56.5L69 46H76L81 26.5L84 46H90.5L92 42H96L98.5 37L100 35L103 37L105 32L114.5 13.5L122.5 32H126.5L131.5 37L139 32H149.5L158.5 1L165 32H167L168.5 29H170.5L172 27.5L173 25.5L175.5 28.5L178 32H183L188.5 27.5L190.5 32L196.5 12" stroke="url(#paint0_linear_1187_2286)" stroke-width="1.5" stroke-linecap="round" stroke-linejoin="round"/>
<defs>
<linearGradient id="paint0_linear_1187_2286" x1="196.5" y1="56.5" x2="-47.4931" y2="-10.0067" gradientUnits="userSpaceOnUse">
<stop stop-color="#92A3FD"/>
<stop offset="1" stop-color="#9DCEFF"/>
</linearGradient>
</defs>
</svg>
