<svg width="18" height="18" viewBox="0 0 18 18" fill="none" xmlns="http://www.w3.org/2000/svg">
<path d="M7.3001 10.8C6.9001 10.4 6.6001 9.79995 6.6001 9.09995C6.6001 7.79995 7.7001 6.69995 9.0001 6.69995C9.7001 6.69995 10.2001 6.99995 10.7001 7.39995" stroke="#ADA4A5" stroke-width="1.2" stroke-linecap="round" stroke-linejoin="round"/>
<path d="M11.2999 9.5C11.0999 10.5 10.3999 11.2 9.3999 11.4" stroke="#ADA4A5" stroke-width="1.2" stroke-linecap="round" stroke-linejoin="round"/>
<path d="M5.0001 13.1C3.8001 12.2 2.8001 10.8 2.1001 9.09998C2.8001 7.39998 3.9001 5.99998 5.1001 5.09998C6.3001 4.19998 7.7001 3.59998 9.1001 3.59998C10.5001 3.59998 11.9001 4.09998 13.1001 5.09998" stroke="#ADA4A5" stroke-width="1.2" stroke-linecap="round" stroke-linejoin="round"/>
<path d="M14.9001 3.19995L3.1001 15" stroke="#ADA4A5" stroke-width="1.2" stroke-linecap="round" stroke-linejoin="round"/>
</svg>
