<?xml version="1.0" encoding="utf-8"?>
<!-- Generator: Adobe Illustrator 24.3.0, SVG Export Plug-In . SVG Version: 6.00 Build 0)  -->
<svg version="1.1" id="Слой_1" xmlns="http://www.w3.org/2000/svg" xmlns:xlink="http://www.w3.org/1999/xlink" x="0px" y="0px"
	 viewBox="0 0 18 18" style="enable-background:new 0 0 18 18;" xml:space="preserve">
<style type="text/css">
	.st0{fill:none;stroke:#ADA4A5;stroke-width:1.2;stroke-linecap:round;stroke-linejoin:round;}
	.st1{display:none;fill:none;stroke:#ADA4A5;stroke-width:1.2;stroke-linecap:round;stroke-linejoin:round;}
</style>
<path class="st0" d="M7.3,10.8c-0.4-0.4-0.7-1-0.7-1.7c0-1.3,1.1-2.4,2.4-2.4c0.7,0,1.2,0.3,1.7,0.7"/>
<path class="st0" d="M11.3,9.5c-0.2,1-0.9,1.7-1.9,1.9"/>
<path class="st0" d="M5,13.1c-1.2-0.9-2.2-2.3-2.9-4c0.7-1.7,1.8-3.1,3-4c1.2-0.9,2.6-1.5,4-1.5c1.4,0,2.8,0.5,4,1.5"/>
<path class="st1" d="M14.6,6.7c0.5,0.7,1,1.5,1.4,2.4c-1.5,3.4-4.1,5.5-6.9,5.5c-0.6,0-1.3-0.1-1.9-0.3"/>
<path class="st0" d="M14.9,3.2L3.1,15"/>
</svg>
